<?xml version="1.0" encoding="utf-8" standalone="no"?>
<!DOCTYPE svg PUBLIC "-//W3C//DTD SVG 1.1//EN"
  "http://www.w3.org/Graphics/SVG/1.1/DTD/svg11.dtd">
<!-- Created with matplotlib (https://matplotlib.org/) -->
<svg height="576pt" version="1.1" viewBox="0 0 1080 576" width="1080pt" xmlns="http://www.w3.org/2000/svg" xmlns:xlink="http://www.w3.org/1999/xlink">
 <defs>
  <style type="text/css">
*{stroke-linecap:butt;stroke-linejoin:round;}
  </style>
 </defs>
 <g id="figure_1">
  <g id="patch_1">
   <path d="M 0 576 
L 1080 576 
L 1080 0 
L 0 0 
z
" style="fill:#ffffff;"/>
  </g>
  <g id="axes_1">
   <g id="patch_2">
    <path d="M 135 504 
L 972 504 
L 972 69.12 
L 135 69.12 
z
" style="fill:#ffffff;"/>
   </g>
   <g id="PolyCollection_1">
    <defs>
     <path d="M 605.590493 -191.560348 
L 605.590493 -91.767273 
L 606.815833 -91.767273 
L 608.041173 -91.767273 
L 609.266513 -91.767273 
L 610.491853 -91.767273 
L 611.717193 -91.767273 
L 612.942533 -91.767273 
L 614.167873 -91.767273 
L 615.393213 -91.767273 
L 616.618553 -91.767273 
L 617.843893 -91.767273 
L 619.069233 -91.767273 
L 620.294573 -91.767273 
L 621.519913 -91.767273 
L 622.745253 -91.767273 
L 623.970593 -91.767273 
L 625.195934 -91.767273 
L 626.421274 -91.767273 
L 627.646614 -91.767273 
L 628.871954 -91.767273 
L 630.097294 -91.767273 
L 631.322634 -91.767273 
L 632.547974 -91.767273 
L 633.773314 -91.767273 
L 634.998654 -91.767273 
L 636.223994 -91.767273 
L 637.449334 -91.767273 
L 638.674674 -91.767273 
L 639.900014 -91.767273 
L 641.125354 -91.767273 
L 642.350694 -91.767273 
L 643.576034 -91.767273 
L 644.801374 -91.767273 
L 646.026714 -91.767273 
L 647.252054 -91.767273 
L 648.477395 -91.767273 
L 649.702735 -91.767273 
L 650.928075 -91.767273 
L 652.153415 -91.767273 
L 653.378755 -91.767273 
L 654.604095 -91.767273 
L 655.829435 -91.767273 
L 657.054775 -91.767273 
L 658.280115 -91.767273 
L 659.505455 -91.767273 
L 660.730795 -91.767273 
L 661.956135 -91.767273 
L 663.181475 -91.767273 
L 664.406815 -91.767273 
L 665.632155 -91.767273 
L 666.857495 -91.767273 
L 668.082835 -91.767273 
L 669.308175 -91.767273 
L 670.533515 -91.767273 
L 671.758856 -91.767273 
L 672.984196 -91.767273 
L 674.209536 -91.767273 
L 675.434876 -91.767273 
L 676.660216 -91.767273 
L 677.885556 -91.767273 
L 679.110896 -91.767273 
L 680.336236 -91.767273 
L 681.561576 -91.767273 
L 682.786916 -91.767273 
L 684.012256 -91.767273 
L 685.237596 -91.767273 
L 686.462936 -91.767273 
L 687.688276 -91.767273 
L 688.913616 -91.767273 
L 690.138956 -91.767273 
L 691.364296 -91.767273 
L 692.589636 -91.767273 
L 693.814976 -91.767273 
L 695.040316 -91.767273 
L 696.265657 -91.767273 
L 697.490997 -91.767273 
L 698.716337 -91.767273 
L 699.941677 -91.767273 
L 701.167017 -91.767273 
L 702.392357 -91.767273 
L 703.617697 -91.767273 
L 704.843037 -91.767273 
L 706.068377 -91.767273 
L 707.293717 -91.767273 
L 708.519057 -91.767273 
L 709.744397 -91.767273 
L 710.969737 -91.767273 
L 712.195077 -91.767273 
L 713.420417 -91.767273 
L 714.645757 -91.767273 
L 715.871097 -91.767273 
L 717.096437 -91.767273 
L 718.321777 -91.767273 
L 719.547118 -91.767273 
L 720.772458 -91.767273 
L 721.997798 -91.767273 
L 723.223138 -91.767273 
L 724.448478 -91.767273 
L 725.673818 -91.767273 
L 726.899158 -91.767273 
L 728.124498 -91.767273 
L 729.349838 -91.767273 
L 730.575178 -91.767273 
L 731.800518 -91.767273 
L 733.025858 -91.767273 
L 734.251198 -91.767273 
L 735.476538 -91.767273 
L 736.701878 -91.767273 
L 737.927218 -91.767273 
L 739.152558 -91.767273 
L 740.377898 -91.767273 
L 741.603238 -91.767273 
L 742.828578 -91.767273 
L 744.053919 -91.767273 
L 745.279259 -91.767273 
L 746.504599 -91.767273 
L 747.729939 -91.767273 
L 748.955279 -91.767273 
L 750.180619 -91.767273 
L 751.405959 -91.767273 
L 752.631299 -91.767273 
L 753.856639 -91.767273 
L 755.081979 -91.767273 
L 756.307319 -91.767273 
L 757.532659 -91.767273 
L 758.757999 -91.767273 
L 759.983339 -91.767273 
L 761.208679 -91.767273 
L 762.434019 -91.767273 
L 763.659359 -91.767273 
L 764.884699 -91.767273 
L 766.110039 -91.767273 
L 767.33538 -91.767273 
L 768.56072 -91.767273 
L 769.78606 -91.767273 
L 771.0114 -91.767273 
L 772.23674 -91.767273 
L 773.46208 -91.767273 
L 774.68742 -91.767273 
L 775.91276 -91.767273 
L 777.1381 -91.767273 
L 778.36344 -91.767273 
L 779.58878 -91.767273 
L 780.81412 -91.767273 
L 782.03946 -91.767273 
L 783.2648 -91.767273 
L 784.49014 -91.767273 
L 784.49014 -91.899897 
L 784.49014 -91.899897 
L 783.2648 -91.908663 
L 782.03946 -91.917969 
L 780.81412 -91.927846 
L 779.58878 -91.938327 
L 778.36344 -91.949445 
L 777.1381 -91.961236 
L 775.91276 -91.973736 
L 774.68742 -91.986986 
L 773.46208 -92.001026 
L 772.23674 -92.0159 
L 771.0114 -92.031652 
L 769.78606 -92.048329 
L 768.56072 -92.065982 
L 767.33538 -92.084662 
L 766.110039 -92.104424 
L 764.884699 -92.125324 
L 763.659359 -92.147422 
L 762.434019 -92.17078 
L 761.208679 -92.195463 
L 759.983339 -92.221539 
L 758.757999 -92.249079 
L 757.532659 -92.278158 
L 756.307319 -92.308852 
L 755.081979 -92.341243 
L 753.856639 -92.375415 
L 752.631299 -92.411456 
L 751.405959 -92.449457 
L 750.180619 -92.489514 
L 748.955279 -92.531727 
L 747.729939 -92.5762 
L 746.504599 -92.623039 
L 745.279259 -92.672358 
L 744.053919 -92.724274 
L 742.828578 -92.778907 
L 741.603238 -92.836384 
L 740.377898 -92.896837 
L 739.152558 -92.960401 
L 737.927218 -93.027218 
L 736.701878 -93.097435 
L 735.476538 -93.171204 
L 734.251198 -93.248684 
L 733.025858 -93.330038 
L 731.800518 -93.415436 
L 730.575178 -93.505054 
L 729.349838 -93.599074 
L 728.124498 -93.697684 
L 726.899158 -93.80108 
L 725.673818 -93.909464 
L 724.448478 -94.023043 
L 723.223138 -94.142034 
L 721.997798 -94.266659 
L 720.772458 -94.397149 
L 719.547118 -94.53374 
L 718.321777 -94.676677 
L 717.096437 -94.826213 
L 715.871097 -94.982609 
L 714.645757 -95.146132 
L 713.420417 -95.317059 
L 712.195077 -95.495674 
L 710.969737 -95.68227 
L 709.744397 -95.877148 
L 708.519057 -96.080618 
L 707.293717 -96.292998 
L 706.068377 -96.514615 
L 704.843037 -96.745804 
L 703.617697 -96.98691 
L 702.392357 -97.238286 
L 701.167017 -97.500295 
L 699.941677 -97.773307 
L 698.716337 -98.057704 
L 697.490997 -98.353874 
L 696.265657 -98.662216 
L 695.040316 -98.983137 
L 693.814976 -99.317056 
L 692.589636 -99.664396 
L 691.364296 -100.025593 
L 690.138956 -100.401092 
L 688.913616 -100.791344 
L 687.688276 -101.196812 
L 686.462936 -101.617966 
L 685.237596 -102.055285 
L 684.012256 -102.509258 
L 682.786916 -102.980381 
L 681.561576 -103.469158 
L 680.336236 -103.976103 
L 679.110896 -104.501735 
L 677.885556 -105.046584 
L 676.660216 -105.611186 
L 675.434876 -106.196085 
L 674.209536 -106.80183 
L 672.984196 -107.42898 
L 671.758856 -108.078097 
L 670.533515 -108.749753 
L 669.308175 -109.444522 
L 668.082835 -110.162986 
L 666.857495 -110.905731 
L 665.632155 -111.673347 
L 664.406815 -112.466432 
L 663.181475 -113.285582 
L 661.956135 -114.1314 
L 660.730795 -115.004492 
L 659.505455 -115.905463 
L 658.280115 -116.834925 
L 657.054775 -117.793485 
L 655.829435 -118.781756 
L 654.604095 -119.800347 
L 653.378755 -120.849868 
L 652.153415 -121.930928 
L 650.928075 -123.044134 
L 649.702735 -124.190088 
L 648.477395 -125.369391 
L 647.252054 -126.582639 
L 646.026714 -127.830422 
L 644.801374 -129.113326 
L 643.576034 -130.431929 
L 642.350694 -131.7868 
L 641.125354 -133.178504 
L 639.900014 -134.607592 
L 638.674674 -136.074608 
L 637.449334 -137.580084 
L 636.223994 -139.124539 
L 634.998654 -140.70848 
L 633.773314 -142.332401 
L 632.547974 -143.996779 
L 631.322634 -145.702076 
L 630.097294 -147.448738 
L 628.871954 -149.237191 
L 627.646614 -151.067845 
L 626.421274 -152.941088 
L 625.195934 -154.857286 
L 623.970593 -156.816785 
L 622.745253 -158.819907 
L 621.519913 -160.866951 
L 620.294573 -162.958188 
L 619.069233 -165.093865 
L 617.843893 -167.274201 
L 616.618553 -169.499386 
L 615.393213 -171.769583 
L 614.167873 -174.08492 
L 612.942533 -176.445498 
L 611.717193 -178.851384 
L 610.491853 -181.302609 
L 609.266513 -183.799174 
L 608.041173 -186.34104 
L 606.815833 -188.928135 
L 605.590493 -191.560348 
z
" id="m3308c9c236" style="stroke:#808080;stroke-opacity:0.8;"/>
    </defs>
    <g clip-path="url(#pe46abd61a9)">
     <use style="fill:#808080;fill-opacity:0.8;stroke:#808080;stroke-opacity:0.8;" x="0" xlink:href="#m3308c9c236" y="576"/>
    </g>
   </g>
   <g id="PolyCollection_2">
    <defs>
     <path d="M 605.563412 -470.103847 
L 605.563412 -91.767273 
L 606.788752 -91.767273 
L 608.014092 -91.767273 
L 609.239432 -91.767273 
L 610.464772 -91.767273 
L 611.690112 -91.767273 
L 612.915452 -91.767273 
L 614.140792 -91.767273 
L 615.366132 -91.767273 
L 616.591472 -91.767273 
L 617.816812 -91.767273 
L 619.042152 -91.767273 
L 620.267492 -91.767273 
L 621.492832 -91.767273 
L 622.718172 -91.767273 
L 623.943512 -91.767273 
L 625.168852 -91.767273 
L 626.394193 -91.767273 
L 627.619533 -91.767273 
L 628.844873 -91.767273 
L 630.070213 -91.767273 
L 631.295553 -91.767273 
L 632.520893 -91.767273 
L 633.746233 -91.767273 
L 634.971573 -91.767273 
L 636.196913 -91.767273 
L 637.422253 -91.767273 
L 638.647593 -91.767273 
L 639.872933 -91.767273 
L 641.098273 -91.767273 
L 642.323613 -91.767273 
L 643.548953 -91.767273 
L 644.774293 -91.767273 
L 645.999633 -91.767273 
L 647.224973 -91.767273 
L 648.450313 -91.767273 
L 649.675654 -91.767273 
L 650.900994 -91.767273 
L 652.126334 -91.767273 
L 653.351674 -91.767273 
L 654.577014 -91.767273 
L 655.802354 -91.767273 
L 657.027694 -91.767273 
L 658.253034 -91.767273 
L 659.478374 -91.767273 
L 660.703714 -91.767273 
L 661.929054 -91.767273 
L 663.154394 -91.767273 
L 664.379734 -91.767273 
L 665.605074 -91.767273 
L 666.830414 -91.767273 
L 668.055754 -91.767273 
L 669.281094 -91.767273 
L 670.506434 -91.767273 
L 671.731774 -91.767273 
L 672.957114 -91.767273 
L 674.182455 -91.767273 
L 675.407795 -91.767273 
L 676.633135 -91.767273 
L 677.858475 -91.767273 
L 679.083815 -91.767273 
L 680.309155 -91.767273 
L 681.534495 -91.767273 
L 682.759835 -91.767273 
L 683.985175 -91.767273 
L 685.210515 -91.767273 
L 686.435855 -91.767273 
L 687.661195 -91.767273 
L 688.886535 -91.767273 
L 690.111875 -91.767273 
L 691.337215 -91.767273 
L 692.562555 -91.767273 
L 693.787895 -91.767273 
L 695.013235 -91.767273 
L 696.238575 -91.767273 
L 697.463916 -91.767273 
L 698.689256 -91.767273 
L 699.914596 -91.767273 
L 701.139936 -91.767273 
L 702.365276 -91.767273 
L 703.590616 -91.767273 
L 704.815956 -91.767273 
L 706.041296 -91.767273 
L 707.266636 -91.767273 
L 708.491976 -91.767273 
L 709.717316 -91.767273 
L 710.942656 -91.767273 
L 712.167996 -91.767273 
L 713.393336 -91.767273 
L 714.618676 -91.767273 
L 715.844016 -91.767273 
L 717.069356 -91.767273 
L 718.294696 -91.767273 
L 719.520036 -91.767273 
L 720.745376 -91.767273 
L 721.970717 -91.767273 
L 723.196057 -91.767273 
L 724.421397 -91.767273 
L 725.646737 -91.767273 
L 726.872077 -91.767273 
L 728.097417 -91.767273 
L 729.322757 -91.767273 
L 730.548097 -91.767273 
L 731.773437 -91.767273 
L 732.998777 -91.767273 
L 734.224117 -91.767273 
L 735.449457 -91.767273 
L 736.674797 -91.767273 
L 737.900137 -91.767273 
L 739.125477 -91.767273 
L 740.350817 -91.767273 
L 741.576157 -91.767273 
L 742.801497 -91.767273 
L 744.026837 -91.767273 
L 745.252178 -91.767273 
L 746.477518 -91.767273 
L 747.702858 -91.767273 
L 748.928198 -91.767273 
L 750.153538 -91.767273 
L 751.378878 -91.767273 
L 752.604218 -91.767273 
L 753.829558 -91.767273 
L 755.054898 -91.767273 
L 756.280238 -91.767273 
L 757.505578 -91.767273 
L 758.730918 -91.767273 
L 759.956258 -91.767273 
L 761.181598 -91.767273 
L 762.406938 -91.767273 
L 763.632278 -91.767273 
L 764.857618 -91.767273 
L 766.082958 -91.767273 
L 767.308298 -91.767273 
L 768.533639 -91.767273 
L 769.758979 -91.767273 
L 770.984319 -91.767273 
L 772.209659 -91.767273 
L 773.434999 -91.767273 
L 774.660339 -91.767273 
L 775.885679 -91.767273 
L 777.111019 -91.767273 
L 778.336359 -91.767273 
L 779.561699 -91.767273 
L 780.787039 -91.767273 
L 782.012379 -91.767273 
L 783.237719 -91.767273 
L 784.463059 -91.767273 
L 785.688399 -91.767273 
L 786.913739 -91.767273 
L 788.139079 -91.767273 
L 789.364419 -91.767273 
L 790.589759 -91.767273 
L 791.815099 -91.767273 
L 793.04044 -91.767273 
L 794.26578 -91.767273 
L 795.49112 -91.767273 
L 796.71646 -91.767273 
L 797.9418 -91.767273 
L 799.16714 -91.767273 
L 800.39248 -91.767273 
L 801.61782 -91.767273 
L 802.84316 -91.767273 
L 804.0685 -91.767273 
L 805.29384 -91.767273 
L 806.51918 -91.767273 
L 807.74452 -91.767273 
L 808.96986 -91.767273 
L 810.1952 -91.767273 
L 811.42054 -91.767273 
L 812.64588 -91.767273 
L 813.87122 -91.767273 
L 815.09656 -91.767273 
L 816.321901 -91.767273 
L 817.547241 -91.767273 
L 818.772581 -91.767273 
L 819.997921 -91.767273 
L 821.223261 -91.767273 
L 822.448601 -91.767273 
L 823.673941 -91.767273 
L 824.899281 -91.767273 
L 826.124621 -91.767273 
L 827.349961 -91.767273 
L 828.575301 -91.767273 
L 829.800641 -91.767273 
L 831.025981 -91.767273 
L 832.251321 -91.767273 
L 833.476661 -91.767273 
L 834.702001 -91.767273 
L 835.927341 -91.767273 
L 837.152681 -91.767273 
L 838.378021 -91.767273 
L 839.603361 -91.767273 
L 840.828702 -91.767273 
L 842.054042 -91.767273 
L 843.279382 -91.767273 
L 844.504722 -91.767273 
L 845.730062 -91.767273 
L 846.955402 -91.767273 
L 848.180742 -91.767273 
L 849.406082 -91.767273 
L 850.631422 -91.767273 
L 851.856762 -91.767273 
L 853.082102 -91.767273 
L 854.307442 -91.767273 
L 855.532782 -91.767273 
L 856.758122 -91.767273 
L 857.983462 -91.767273 
L 859.208802 -91.767273 
L 860.434142 -91.767273 
L 861.659482 -91.767273 
L 862.884822 -91.767273 
L 864.110163 -91.767273 
L 865.335503 -91.767273 
L 866.560843 -91.767273 
L 867.786183 -91.767273 
L 869.011523 -91.767273 
L 870.236863 -91.767273 
L 871.462203 -91.767273 
L 872.687543 -91.767273 
L 873.912883 -91.767273 
L 875.138223 -91.767273 
L 876.363563 -91.767273 
L 877.588903 -91.767273 
L 878.814243 -91.767273 
L 880.039583 -91.767273 
L 881.264923 -91.767273 
L 882.490263 -91.767273 
L 883.715603 -91.767273 
L 884.940943 -91.767273 
L 886.166283 -91.767273 
L 887.391623 -91.767273 
L 888.616964 -91.767273 
L 889.842304 -91.767273 
L 891.067644 -91.767273 
L 892.292984 -91.767273 
L 893.518324 -91.767273 
L 894.743664 -91.767273 
L 895.969004 -91.767273 
L 897.194344 -91.767273 
L 898.419684 -91.767273 
L 899.645024 -91.767273 
L 900.870364 -91.767273 
L 902.095704 -91.767273 
L 903.321044 -91.767273 
L 904.546384 -91.767273 
L 905.771724 -91.767273 
L 906.997064 -91.767273 
L 908.222404 -91.767273 
L 909.447744 -91.767273 
L 910.673084 -91.767273 
L 911.898425 -91.767273 
L 913.123765 -91.767273 
L 914.349105 -91.767273 
L 915.574445 -91.767273 
L 916.799785 -91.767273 
L 918.025125 -91.767273 
L 919.250465 -91.767273 
L 920.475805 -91.767273 
L 921.701145 -91.767273 
L 922.926485 -91.767273 
L 924.151825 -91.767273 
L 925.377165 -91.767273 
L 926.602505 -91.767273 
L 927.827845 -91.767273 
L 929.053185 -91.767273 
L 930.278525 -91.767273 
L 931.503865 -91.767273 
L 932.729205 -91.767273 
L 933.954545 -91.767273 
L 933.954545 -91.899897 
L 933.954545 -91.899897 
L 932.729205 -91.908663 
L 931.503865 -91.917969 
L 930.278525 -91.927846 
L 929.053185 -91.938327 
L 927.827845 -91.949445 
L 926.602505 -91.961236 
L 925.377165 -91.973736 
L 924.151825 -91.986986 
L 922.926485 -92.001026 
L 921.701145 -92.0159 
L 920.475805 -92.031652 
L 919.250465 -92.048329 
L 918.025125 -92.065982 
L 916.799785 -92.084662 
L 915.574445 -92.104424 
L 914.349105 -92.125324 
L 913.123765 -92.147422 
L 911.898425 -92.17078 
L 910.673084 -92.195463 
L 909.447744 -92.221539 
L 908.222404 -92.249079 
L 906.997064 -92.278158 
L 905.771724 -92.308852 
L 904.546384 -92.341243 
L 903.321044 -92.375415 
L 902.095704 -92.411456 
L 900.870364 -92.449457 
L 899.645024 -92.489514 
L 898.419684 -92.531727 
L 897.194344 -92.5762 
L 895.969004 -92.623039 
L 894.743664 -92.672358 
L 893.518324 -92.724274 
L 892.292984 -92.778907 
L 891.067644 -92.836384 
L 889.842304 -92.896837 
L 888.616964 -92.960401 
L 887.391623 -93.027218 
L 886.166283 -93.097435 
L 884.940943 -93.171204 
L 883.715603 -93.248684 
L 882.490263 -93.330038 
L 881.264923 -93.415436 
L 880.039583 -93.505054 
L 878.814243 -93.599074 
L 877.588903 -93.697684 
L 876.363563 -93.80108 
L 875.138223 -93.909464 
L 873.912883 -94.023043 
L 872.687543 -94.142034 
L 871.462203 -94.266659 
L 870.236863 -94.397149 
L 869.011523 -94.53374 
L 867.786183 -94.676677 
L 866.560843 -94.826213 
L 865.335503 -94.982609 
L 864.110163 -95.146132 
L 862.884822 -95.317059 
L 861.659482 -95.495674 
L 860.434142 -95.68227 
L 859.208802 -95.877148 
L 857.983462 -96.080618 
L 856.758122 -96.292998 
L 855.532782 -96.514615 
L 854.307442 -96.745804 
L 853.082102 -96.98691 
L 851.856762 -97.238286 
L 850.631422 -97.500295 
L 849.406082 -97.773307 
L 848.180742 -98.057704 
L 846.955402 -98.353874 
L 845.730062 -98.662216 
L 844.504722 -98.983137 
L 843.279382 -99.317056 
L 842.054042 -99.664396 
L 840.828702 -100.025593 
L 839.603361 -100.401092 
L 838.378021 -100.791344 
L 837.152681 -101.196812 
L 835.927341 -101.617966 
L 834.702001 -102.055285 
L 833.476661 -102.509258 
L 832.251321 -102.980381 
L 831.025981 -103.469158 
L 829.800641 -103.976103 
L 828.575301 -104.501735 
L 827.349961 -105.046584 
L 826.124621 -105.611186 
L 824.899281 -106.196085 
L 823.673941 -106.80183 
L 822.448601 -107.42898 
L 821.223261 -108.078097 
L 819.997921 -108.749753 
L 818.772581 -109.444522 
L 817.547241 -110.162986 
L 816.321901 -110.905731 
L 815.09656 -111.673347 
L 813.87122 -112.466432 
L 812.64588 -113.285582 
L 811.42054 -114.1314 
L 810.1952 -115.004492 
L 808.96986 -115.905463 
L 807.74452 -116.834925 
L 806.51918 -117.793485 
L 805.29384 -118.781756 
L 804.0685 -119.800347 
L 802.84316 -120.849868 
L 801.61782 -121.930928 
L 800.39248 -123.044134 
L 799.16714 -124.190088 
L 797.9418 -125.369391 
L 796.71646 -126.582639 
L 795.49112 -127.830422 
L 794.26578 -129.113326 
L 793.04044 -130.431929 
L 791.815099 -131.7868 
L 790.589759 -133.178504 
L 789.364419 -134.607592 
L 788.139079 -136.074608 
L 786.913739 -137.580084 
L 785.688399 -139.124539 
L 784.463059 -140.70848 
L 783.237719 -142.332401 
L 782.012379 -143.996779 
L 780.787039 -145.702076 
L 779.561699 -147.448738 
L 778.336359 -149.237191 
L 777.111019 -151.067845 
L 775.885679 -152.941088 
L 774.660339 -154.857286 
L 773.434999 -156.816785 
L 772.209659 -158.819907 
L 770.984319 -160.866951 
L 769.758979 -162.958188 
L 768.533639 -165.093865 
L 767.308298 -167.274201 
L 766.082958 -169.499386 
L 764.857618 -171.769583 
L 763.632278 -174.08492 
L 762.406938 -176.445498 
L 761.181598 -178.851384 
L 759.956258 -181.302609 
L 758.730918 -183.799174 
L 757.505578 -186.34104 
L 756.280238 -188.928135 
L 755.054898 -191.560348 
L 753.829558 -194.23753 
L 752.604218 -196.959493 
L 751.378878 -199.726009 
L 750.153538 -202.536809 
L 748.928198 -205.391582 
L 747.702858 -208.289975 
L 746.477518 -211.231593 
L 745.252178 -214.215996 
L 744.026837 -217.242698 
L 742.801497 -220.311172 
L 741.576157 -223.420841 
L 740.350817 -226.571085 
L 739.125477 -229.761237 
L 737.900137 -232.990581 
L 736.674797 -236.258355 
L 735.449457 -239.56375 
L 734.224117 -242.905908 
L 732.998777 -246.283923 
L 731.773437 -249.696841 
L 730.548097 -253.143659 
L 729.322757 -256.623325 
L 728.097417 -260.134742 
L 726.872077 -263.67676 
L 725.646737 -267.248183 
L 724.421397 -270.847769 
L 723.196057 -274.474225 
L 721.970717 -278.126213 
L 720.745376 -281.802348 
L 719.520036 -285.501197 
L 718.294696 -289.221282 
L 717.069356 -292.961083 
L 715.844016 -296.71903 
L 714.618676 -300.493514 
L 713.393336 -304.282882 
L 712.167996 -308.085437 
L 710.942656 -311.899445 
L 709.717316 -315.723129 
L 708.491976 -319.554676 
L 707.266636 -323.392233 
L 706.041296 -327.233912 
L 704.815956 -331.077792 
L 703.590616 -334.921915 
L 702.365276 -338.764295 
L 701.139936 -342.602913 
L 699.914596 -346.435723 
L 698.689256 -350.26065 
L 697.463916 -354.075596 
L 696.238575 -357.878438 
L 695.013235 -361.667031 
L 693.787895 -365.439212 
L 692.562555 -369.192799 
L 691.337215 -372.925594 
L 690.111875 -376.635386 
L 688.886535 -380.319952 
L 687.661195 -383.97706 
L 686.435855 -387.60447 
L 685.210515 -391.199937 
L 683.985175 -394.761214 
L 682.759835 -398.286054 
L 681.534495 -401.772209 
L 680.309155 -405.217438 
L 679.083815 -408.619506 
L 677.858475 -411.976185 
L 676.633135 -415.285261 
L 675.407795 -418.544531 
L 674.182455 -421.751812 
L 672.957114 -424.904935 
L 671.731774 -428.001754 
L 670.506434 -431.040148 
L 669.281094 -434.01802 
L 668.055754 -436.9333 
L 666.830414 -439.783952 
L 665.605074 -442.567969 
L 664.379734 -445.283383 
L 663.154394 -447.928261 
L 661.929054 -450.500712 
L 660.703714 -452.998883 
L 659.478374 -455.420971 
L 658.253034 -457.765216 
L 657.027694 -460.029907 
L 655.802354 -462.213385 
L 654.577014 -464.314041 
L 653.351674 -466.330325 
L 652.126334 -468.260739 
L 650.900994 -470.103847 
L 649.675654 -471.858272 
L 648.450313 -473.522698 
L 647.224973 -475.095874 
L 645.999633 -476.576614 
L 644.774293 -477.963799 
L 643.548953 -479.256376 
L 642.323613 -480.453363 
L 641.098273 -481.553849 
L 639.872933 -482.556995 
L 638.647593 -483.462033 
L 637.422253 -484.268271 
L 636.196913 -484.97509 
L 634.971573 -485.581949 
L 633.746233 -486.088379 
L 632.520893 -486.493992 
L 631.295553 -486.798476 
L 630.070213 -487.001596 
L 628.844873 -487.103195 
L 627.619533 -487.103195 
L 626.394193 -487.001596 
L 625.168852 -486.798476 
L 623.943512 -486.493992 
L 622.718172 -486.088379 
L 621.492832 -485.581949 
L 620.267492 -484.97509 
L 619.042152 -484.268271 
L 617.816812 -483.462033 
L 616.591472 -482.556995 
L 615.366132 -481.553849 
L 614.140792 -480.453363 
L 612.915452 -479.256376 
L 611.690112 -477.963799 
L 610.464772 -476.576614 
L 609.239432 -475.095874 
L 608.014092 -473.522698 
L 606.788752 -471.858272 
L 605.563412 -470.103847 
z
" id="mf5dbb45f07" style="stroke:#008000;stroke-opacity:0.3;"/>
    </defs>
    <g clip-path="url(#pe46abd61a9)">
     <use style="fill:#008000;fill-opacity:0.3;stroke:#008000;stroke-opacity:0.3;" x="0" xlink:href="#mf5dbb45f07" y="576"/>
    </g>
   </g>
   <g id="matplotlib.axis_1">
    <g id="xtick_1">
     <g id="line2d_1">
      <path clip-path="url(#pe46abd61a9)" d="M 213.844509 504 
L 213.844509 69.12 
" style="fill:none;stroke:#808080;stroke-dasharray:0.3,0.495;stroke-dashoffset:0;stroke-width:0.3;"/>
     </g>
     <g id="line2d_2">
      <defs>
       <path d="M 0 0 
L 0 3.5 
" id="m867143b805" style="stroke:#000000;stroke-width:0.8;"/>
      </defs>
      <g>
       <use style="stroke:#000000;stroke-width:0.8;" x="213.844509" xlink:href="#m867143b805" y="504"/>
      </g>
     </g>
     <g id="text_1">
      <!-- −0.010 -->
      <defs>
       <path d="M 10.59375 35.5 
L 73.1875 35.5 
L 73.1875 27.203125 
L 10.59375 27.203125 
z
" id="DejaVuSans-8722"/>
       <path d="M 31.78125 66.40625 
Q 24.171875 66.40625 20.328125 58.90625 
Q 16.5 51.421875 16.5 36.375 
Q 16.5 21.390625 20.328125 13.890625 
Q 24.171875 6.390625 31.78125 6.390625 
Q 39.453125 6.390625 43.28125 13.890625 
Q 47.125 21.390625 47.125 36.375 
Q 47.125 51.421875 43.28125 58.90625 
Q 39.453125 66.40625 31.78125 66.40625 
z
M 31.78125 74.21875 
Q 44.046875 74.21875 50.515625 64.515625 
Q 56.984375 54.828125 56.984375 36.375 
Q 56.984375 17.96875 50.515625 8.265625 
Q 44.046875 -1.421875 31.78125 -1.421875 
Q 19.53125 -1.421875 13.0625 8.265625 
Q 6.59375 17.96875 6.59375 36.375 
Q 6.59375 54.828125 13.0625 64.515625 
Q 19.53125 74.21875 31.78125 74.21875 
z
" id="DejaVuSans-48"/>
       <path d="M 10.6875 12.40625 
L 21 12.40625 
L 21 0 
L 10.6875 0 
z
" id="DejaVuSans-46"/>
       <path d="M 12.40625 8.296875 
L 28.515625 8.296875 
L 28.515625 63.921875 
L 10.984375 60.40625 
L 10.984375 69.390625 
L 28.421875 72.90625 
L 38.28125 72.90625 
L 38.28125 8.296875 
L 54.390625 8.296875 
L 54.390625 0 
L 12.40625 0 
z
" id="DejaVuSans-49"/>
      </defs>
      <g transform="translate(191.639822 520.118125)scale(0.12 -0.12)">
       <use xlink:href="#DejaVuSans-8722"/>
       <use x="83.789062" xlink:href="#DejaVuSans-48"/>
       <use x="147.412109" xlink:href="#DejaVuSans-46"/>
       <use x="179.199219" xlink:href="#DejaVuSans-48"/>
       <use x="242.822266" xlink:href="#DejaVuSans-49"/>
       <use x="306.445312" xlink:href="#DejaVuSans-48"/>
      </g>
     </g>
    </g>
    <g id="xtick_2">
     <g id="line2d_3">
      <path clip-path="url(#pe46abd61a9)" d="M 346.306153 504 
L 346.306153 69.12 
" style="fill:none;stroke:#808080;stroke-dasharray:0.3,0.495;stroke-dashoffset:0;stroke-width:0.3;"/>
     </g>
     <g id="line2d_4">
      <g>
       <use style="stroke:#000000;stroke-width:0.8;" x="346.306153" xlink:href="#m867143b805" y="504"/>
      </g>
     </g>
     <g id="text_2">
      <!-- −0.005 -->
      <defs>
       <path d="M 10.796875 72.90625 
L 49.515625 72.90625 
L 49.515625 64.59375 
L 19.828125 64.59375 
L 19.828125 46.734375 
Q 21.96875 47.46875 24.109375 47.828125 
Q 26.265625 48.1875 28.421875 48.1875 
Q 40.625 48.1875 47.75 41.5 
Q 54.890625 34.8125 54.890625 23.390625 
Q 54.890625 11.625 47.5625 5.09375 
Q 40.234375 -1.421875 26.90625 -1.421875 
Q 22.3125 -1.421875 17.546875 -0.640625 
Q 12.796875 0.140625 7.71875 1.703125 
L 7.71875 11.625 
Q 12.109375 9.234375 16.796875 8.0625 
Q 21.484375 6.890625 26.703125 6.890625 
Q 35.15625 6.890625 40.078125 11.328125 
Q 45.015625 15.765625 45.015625 23.390625 
Q 45.015625 31 40.078125 35.4375 
Q 35.15625 39.890625 26.703125 39.890625 
Q 22.75 39.890625 18.8125 39.015625 
Q 14.890625 38.140625 10.796875 36.28125 
z
" id="DejaVuSans-53"/>
      </defs>
      <g transform="translate(324.101466 520.118125)scale(0.12 -0.12)">
       <use xlink:href="#DejaVuSans-8722"/>
       <use x="83.789062" xlink:href="#DejaVuSans-48"/>
       <use x="147.412109" xlink:href="#DejaVuSans-46"/>
       <use x="179.199219" xlink:href="#DejaVuSans-48"/>
       <use x="242.822266" xlink:href="#DejaVuSans-48"/>
       <use x="306.445312" xlink:href="#DejaVuSans-53"/>
      </g>
     </g>
    </g>
    <g id="xtick_3">
     <g id="line2d_5">
      <path clip-path="url(#pe46abd61a9)" d="M 478.767797 504 
L 478.767797 69.12 
" style="fill:none;stroke:#808080;stroke-dasharray:0.3,0.495;stroke-dashoffset:0;stroke-width:0.3;"/>
     </g>
     <g id="line2d_6">
      <g>
       <use style="stroke:#000000;stroke-width:0.8;" x="478.767797" xlink:href="#m867143b805" y="504"/>
      </g>
     </g>
     <g id="text_3">
      <!-- 0.000 -->
      <g transform="translate(461.590922 520.118125)scale(0.12 -0.12)">
       <use xlink:href="#DejaVuSans-48"/>
       <use x="63.623047" xlink:href="#DejaVuSans-46"/>
       <use x="95.410156" xlink:href="#DejaVuSans-48"/>
       <use x="159.033203" xlink:href="#DejaVuSans-48"/>
       <use x="222.65625" xlink:href="#DejaVuSans-48"/>
      </g>
     </g>
    </g>
    <g id="xtick_4">
     <g id="line2d_7">
      <path clip-path="url(#pe46abd61a9)" d="M 611.229442 504 
L 611.229442 69.12 
" style="fill:none;stroke:#808080;stroke-dasharray:0.3,0.495;stroke-dashoffset:0;stroke-width:0.3;"/>
     </g>
     <g id="line2d_8">
      <g>
       <use style="stroke:#000000;stroke-width:0.8;" x="611.229442" xlink:href="#m867143b805" y="504"/>
      </g>
     </g>
     <g id="text_4">
      <!-- 0.005 -->
      <g transform="translate(594.052567 520.118125)scale(0.12 -0.12)">
       <use xlink:href="#DejaVuSans-48"/>
       <use x="63.623047" xlink:href="#DejaVuSans-46"/>
       <use x="95.410156" xlink:href="#DejaVuSans-48"/>
       <use x="159.033203" xlink:href="#DejaVuSans-48"/>
       <use x="222.65625" xlink:href="#DejaVuSans-53"/>
      </g>
     </g>
    </g>
    <g id="xtick_5">
     <g id="line2d_9">
      <path clip-path="url(#pe46abd61a9)" d="M 743.691086 504 
L 743.691086 69.12 
" style="fill:none;stroke:#808080;stroke-dasharray:0.3,0.495;stroke-dashoffset:0;stroke-width:0.3;"/>
     </g>
     <g id="line2d_10">
      <g>
       <use style="stroke:#000000;stroke-width:0.8;" x="743.691086" xlink:href="#m867143b805" y="504"/>
      </g>
     </g>
     <g id="text_5">
      <!-- 0.010 -->
      <g transform="translate(726.514211 520.118125)scale(0.12 -0.12)">
       <use xlink:href="#DejaVuSans-48"/>
       <use x="63.623047" xlink:href="#DejaVuSans-46"/>
       <use x="95.410156" xlink:href="#DejaVuSans-48"/>
       <use x="159.033203" xlink:href="#DejaVuSans-49"/>
       <use x="222.65625" xlink:href="#DejaVuSans-48"/>
      </g>
     </g>
    </g>
    <g id="xtick_6">
     <g id="line2d_11">
      <path clip-path="url(#pe46abd61a9)" d="M 876.15273 504 
L 876.15273 69.12 
" style="fill:none;stroke:#808080;stroke-dasharray:0.3,0.495;stroke-dashoffset:0;stroke-width:0.3;"/>
     </g>
     <g id="line2d_12">
      <g>
       <use style="stroke:#000000;stroke-width:0.8;" x="876.15273" xlink:href="#m867143b805" y="504"/>
      </g>
     </g>
     <g id="text_6">
      <!-- 0.015 -->
      <g transform="translate(858.975855 520.118125)scale(0.12 -0.12)">
       <use xlink:href="#DejaVuSans-48"/>
       <use x="63.623047" xlink:href="#DejaVuSans-46"/>
       <use x="95.410156" xlink:href="#DejaVuSans-48"/>
       <use x="159.033203" xlink:href="#DejaVuSans-49"/>
       <use x="222.65625" xlink:href="#DejaVuSans-53"/>
      </g>
     </g>
    </g>
    <g id="text_7">
     <!-- Difference between variants ($\hat{d}$) -->
     <defs>
      <path d="M 19.671875 64.796875 
L 19.671875 8.109375 
L 31.59375 8.109375 
Q 46.6875 8.109375 53.6875 14.9375 
Q 60.6875 21.78125 60.6875 36.53125 
Q 60.6875 51.171875 53.6875 57.984375 
Q 46.6875 64.796875 31.59375 64.796875 
z
M 9.8125 72.90625 
L 30.078125 72.90625 
Q 51.265625 72.90625 61.171875 64.09375 
Q 71.09375 55.28125 71.09375 36.53125 
Q 71.09375 17.671875 61.125 8.828125 
Q 51.171875 0 30.078125 0 
L 9.8125 0 
z
" id="DejaVuSans-68"/>
      <path d="M 9.421875 54.6875 
L 18.40625 54.6875 
L 18.40625 0 
L 9.421875 0 
z
M 9.421875 75.984375 
L 18.40625 75.984375 
L 18.40625 64.59375 
L 9.421875 64.59375 
z
" id="DejaVuSans-105"/>
      <path d="M 37.109375 75.984375 
L 37.109375 68.5 
L 28.515625 68.5 
Q 23.6875 68.5 21.796875 66.546875 
Q 19.921875 64.59375 19.921875 59.515625 
L 19.921875 54.6875 
L 34.71875 54.6875 
L 34.71875 47.703125 
L 19.921875 47.703125 
L 19.921875 0 
L 10.890625 0 
L 10.890625 47.703125 
L 2.296875 47.703125 
L 2.296875 54.6875 
L 10.890625 54.6875 
L 10.890625 58.5 
Q 10.890625 67.625 15.140625 71.796875 
Q 19.390625 75.984375 28.609375 75.984375 
z
" id="DejaVuSans-102"/>
      <path d="M 56.203125 29.59375 
L 56.203125 25.203125 
L 14.890625 25.203125 
Q 15.484375 15.921875 20.484375 11.0625 
Q 25.484375 6.203125 34.421875 6.203125 
Q 39.59375 6.203125 44.453125 7.46875 
Q 49.3125 8.734375 54.109375 11.28125 
L 54.109375 2.78125 
Q 49.265625 0.734375 44.1875 -0.34375 
Q 39.109375 -1.421875 33.890625 -1.421875 
Q 20.796875 -1.421875 13.15625 6.1875 
Q 5.515625 13.8125 5.515625 26.8125 
Q 5.515625 40.234375 12.765625 48.109375 
Q 20.015625 56 32.328125 56 
Q 43.359375 56 49.78125 48.890625 
Q 56.203125 41.796875 56.203125 29.59375 
z
M 47.21875 32.234375 
Q 47.125 39.59375 43.09375 43.984375 
Q 39.0625 48.390625 32.421875 48.390625 
Q 24.90625 48.390625 20.390625 44.140625 
Q 15.875 39.890625 15.1875 32.171875 
z
" id="DejaVuSans-101"/>
      <path d="M 41.109375 46.296875 
Q 39.59375 47.171875 37.8125 47.578125 
Q 36.03125 48 33.890625 48 
Q 26.265625 48 22.1875 43.046875 
Q 18.109375 38.09375 18.109375 28.8125 
L 18.109375 0 
L 9.078125 0 
L 9.078125 54.6875 
L 18.109375 54.6875 
L 18.109375 46.1875 
Q 20.953125 51.171875 25.484375 53.578125 
Q 30.03125 56 36.53125 56 
Q 37.453125 56 38.578125 55.875 
Q 39.703125 55.765625 41.0625 55.515625 
z
" id="DejaVuSans-114"/>
      <path d="M 54.890625 33.015625 
L 54.890625 0 
L 45.90625 0 
L 45.90625 32.71875 
Q 45.90625 40.484375 42.875 44.328125 
Q 39.84375 48.1875 33.796875 48.1875 
Q 26.515625 48.1875 22.3125 43.546875 
Q 18.109375 38.921875 18.109375 30.90625 
L 18.109375 0 
L 9.078125 0 
L 9.078125 54.6875 
L 18.109375 54.6875 
L 18.109375 46.1875 
Q 21.34375 51.125 25.703125 53.5625 
Q 30.078125 56 35.796875 56 
Q 45.21875 56 50.046875 50.171875 
Q 54.890625 44.34375 54.890625 33.015625 
z
" id="DejaVuSans-110"/>
      <path d="M 48.78125 52.59375 
L 48.78125 44.1875 
Q 44.96875 46.296875 41.140625 47.34375 
Q 37.3125 48.390625 33.40625 48.390625 
Q 24.65625 48.390625 19.8125 42.84375 
Q 14.984375 37.3125 14.984375 27.296875 
Q 14.984375 17.28125 19.8125 11.734375 
Q 24.65625 6.203125 33.40625 6.203125 
Q 37.3125 6.203125 41.140625 7.25 
Q 44.96875 8.296875 48.78125 10.40625 
L 48.78125 2.09375 
Q 45.015625 0.34375 40.984375 -0.53125 
Q 36.96875 -1.421875 32.421875 -1.421875 
Q 20.0625 -1.421875 12.78125 6.34375 
Q 5.515625 14.109375 5.515625 27.296875 
Q 5.515625 40.671875 12.859375 48.328125 
Q 20.21875 56 33.015625 56 
Q 37.15625 56 41.109375 55.140625 
Q 45.0625 54.296875 48.78125 52.59375 
z
" id="DejaVuSans-99"/>
      <path id="DejaVuSans-32"/>
      <path d="M 48.6875 27.296875 
Q 48.6875 37.203125 44.609375 42.84375 
Q 40.53125 48.484375 33.40625 48.484375 
Q 26.265625 48.484375 22.1875 42.84375 
Q 18.109375 37.203125 18.109375 27.296875 
Q 18.109375 17.390625 22.1875 11.75 
Q 26.265625 6.109375 33.40625 6.109375 
Q 40.53125 6.109375 44.609375 11.75 
Q 48.6875 17.390625 48.6875 27.296875 
z
M 18.109375 46.390625 
Q 20.953125 51.265625 25.265625 53.625 
Q 29.59375 56 35.59375 56 
Q 45.5625 56 51.78125 48.09375 
Q 58.015625 40.1875 58.015625 27.296875 
Q 58.015625 14.40625 51.78125 6.484375 
Q 45.5625 -1.421875 35.59375 -1.421875 
Q 29.59375 -1.421875 25.265625 0.953125 
Q 20.953125 3.328125 18.109375 8.203125 
L 18.109375 0 
L 9.078125 0 
L 9.078125 75.984375 
L 18.109375 75.984375 
z
" id="DejaVuSans-98"/>
      <path d="M 18.3125 70.21875 
L 18.3125 54.6875 
L 36.8125 54.6875 
L 36.8125 47.703125 
L 18.3125 47.703125 
L 18.3125 18.015625 
Q 18.3125 11.328125 20.140625 9.421875 
Q 21.96875 7.515625 27.59375 7.515625 
L 36.8125 7.515625 
L 36.8125 0 
L 27.59375 0 
Q 17.1875 0 13.234375 3.875 
Q 9.28125 7.765625 9.28125 18.015625 
L 9.28125 47.703125 
L 2.6875 47.703125 
L 2.6875 54.6875 
L 9.28125 54.6875 
L 9.28125 70.21875 
z
" id="DejaVuSans-116"/>
      <path d="M 4.203125 54.6875 
L 13.1875 54.6875 
L 24.421875 12.015625 
L 35.59375 54.6875 
L 46.1875 54.6875 
L 57.421875 12.015625 
L 68.609375 54.6875 
L 77.59375 54.6875 
L 63.28125 0 
L 52.6875 0 
L 40.921875 44.828125 
L 29.109375 0 
L 18.5 0 
z
" id="DejaVuSans-119"/>
      <path d="M 2.984375 54.6875 
L 12.5 54.6875 
L 29.59375 8.796875 
L 46.6875 54.6875 
L 56.203125 54.6875 
L 35.6875 0 
L 23.484375 0 
z
" id="DejaVuSans-118"/>
      <path d="M 34.28125 27.484375 
Q 23.390625 27.484375 19.1875 25 
Q 14.984375 22.515625 14.984375 16.5 
Q 14.984375 11.71875 18.140625 8.90625 
Q 21.296875 6.109375 26.703125 6.109375 
Q 34.1875 6.109375 38.703125 11.40625 
Q 43.21875 16.703125 43.21875 25.484375 
L 43.21875 27.484375 
z
M 52.203125 31.203125 
L 52.203125 0 
L 43.21875 0 
L 43.21875 8.296875 
Q 40.140625 3.328125 35.546875 0.953125 
Q 30.953125 -1.421875 24.3125 -1.421875 
Q 15.921875 -1.421875 10.953125 3.296875 
Q 6 8.015625 6 15.921875 
Q 6 25.140625 12.171875 29.828125 
Q 18.359375 34.515625 30.609375 34.515625 
L 43.21875 34.515625 
L 43.21875 35.40625 
Q 43.21875 41.609375 39.140625 45 
Q 35.0625 48.390625 27.6875 48.390625 
Q 23 48.390625 18.546875 47.265625 
Q 14.109375 46.140625 10.015625 43.890625 
L 10.015625 52.203125 
Q 14.9375 54.109375 19.578125 55.046875 
Q 24.21875 56 28.609375 56 
Q 40.484375 56 46.34375 49.84375 
Q 52.203125 43.703125 52.203125 31.203125 
z
" id="DejaVuSans-97"/>
      <path d="M 44.28125 53.078125 
L 44.28125 44.578125 
Q 40.484375 46.53125 36.375 47.5 
Q 32.28125 48.484375 27.875 48.484375 
Q 21.1875 48.484375 17.84375 46.4375 
Q 14.5 44.390625 14.5 40.28125 
Q 14.5 37.15625 16.890625 35.375 
Q 19.28125 33.59375 26.515625 31.984375 
L 29.59375 31.296875 
Q 39.15625 29.25 43.1875 25.515625 
Q 47.21875 21.78125 47.21875 15.09375 
Q 47.21875 7.46875 41.1875 3.015625 
Q 35.15625 -1.421875 24.609375 -1.421875 
Q 20.21875 -1.421875 15.453125 -0.5625 
Q 10.6875 0.296875 5.421875 2 
L 5.421875 11.28125 
Q 10.40625 8.6875 15.234375 7.390625 
Q 20.0625 6.109375 24.8125 6.109375 
Q 31.15625 6.109375 34.5625 8.28125 
Q 37.984375 10.453125 37.984375 14.40625 
Q 37.984375 18.0625 35.515625 20.015625 
Q 33.0625 21.96875 24.703125 23.78125 
L 21.578125 24.515625 
Q 13.234375 26.265625 9.515625 29.90625 
Q 5.8125 33.546875 5.8125 39.890625 
Q 5.8125 47.609375 11.28125 51.796875 
Q 16.75 56 26.8125 56 
Q 31.78125 56 36.171875 55.265625 
Q 40.578125 54.546875 44.28125 53.078125 
z
" id="DejaVuSans-115"/>
      <path d="M 31 75.875 
Q 24.46875 64.65625 21.28125 53.65625 
Q 18.109375 42.671875 18.109375 31.390625 
Q 18.109375 20.125 21.3125 9.0625 
Q 24.515625 -2 31 -13.1875 
L 23.1875 -13.1875 
Q 15.875 -1.703125 12.234375 9.375 
Q 8.59375 20.453125 8.59375 31.390625 
Q 8.59375 42.28125 12.203125 53.3125 
Q 15.828125 64.359375 23.1875 75.875 
z
" id="DejaVuSans-40"/>
      <path d="M -28.609375 79.984375 
L -21.390625 79.984375 
L -9.421875 61.625 
L -16.21875 61.625 
L -25 73.578125 
L -33.796875 61.625 
L -40.578125 61.625 
z
M -25 56 
z
" id="DejaVuSans-770"/>
      <path d="M 41.796875 8.203125 
Q 38.1875 3.46875 33.25 1.015625 
Q 28.328125 -1.421875 22.3125 -1.421875 
Q 14.109375 -1.421875 9.34375 4.171875 
Q 4.59375 9.765625 4.59375 19.484375 
Q 4.59375 27.59375 7.46875 34.9375 
Q 10.359375 42.28125 15.828125 48.09375 
Q 19.4375 51.953125 23.96875 53.96875 
Q 28.515625 56 33.5 56 
Q 38.765625 56 42.796875 53.453125 
Q 46.828125 50.921875 49.03125 46.1875 
L 54.890625 75.984375 
L 63.921875 75.984375 
L 49.125 0 
L 40.09375 0 
z
M 13.921875 21.09375 
Q 13.921875 14.015625 17.109375 10.0625 
Q 20.3125 6.109375 25.984375 6.109375 
Q 30.171875 6.109375 33.765625 8.125 
Q 37.359375 10.15625 40.09375 14.109375 
Q 42.96875 18.21875 44.625 23.578125 
Q 46.296875 28.953125 46.296875 34.1875 
Q 46.296875 40.96875 43.09375 44.765625 
Q 39.890625 48.578125 34.28125 48.578125 
Q 30.03125 48.578125 26.359375 46.578125 
Q 22.703125 44.578125 20.125 40.828125 
Q 17.28125 36.765625 15.59375 31.390625 
Q 13.921875 26.03125 13.921875 21.09375 
z
" id="DejaVuSans-Oblique-100"/>
      <path d="M 8.015625 75.875 
L 15.828125 75.875 
Q 23.140625 64.359375 26.78125 53.3125 
Q 30.421875 42.28125 30.421875 31.390625 
Q 30.421875 20.453125 26.78125 9.375 
Q 23.140625 -1.703125 15.828125 -13.1875 
L 8.015625 -13.1875 
Q 14.5 -2 17.703125 9.0625 
Q 20.90625 20.125 20.90625 31.390625 
Q 20.90625 42.671875 17.703125 53.65625 
Q 14.5 64.65625 8.015625 75.875 
z
" id="DejaVuSans-41"/>
     </defs>
     <g transform="translate(425.98 543.60625)scale(0.16 -0.16)">
      <use transform="translate(0 0.53125)" xlink:href="#DejaVuSans-68"/>
      <use transform="translate(77.001953 0.53125)" xlink:href="#DejaVuSans-105"/>
      <use transform="translate(104.785156 0.53125)" xlink:href="#DejaVuSans-102"/>
      <use transform="translate(139.990234 0.53125)" xlink:href="#DejaVuSans-102"/>
      <use transform="translate(175.195312 0.53125)" xlink:href="#DejaVuSans-101"/>
      <use transform="translate(236.71875 0.53125)" xlink:href="#DejaVuSans-114"/>
      <use transform="translate(277.832031 0.53125)" xlink:href="#DejaVuSans-101"/>
      <use transform="translate(339.355469 0.53125)" xlink:href="#DejaVuSans-110"/>
      <use transform="translate(402.734375 0.53125)" xlink:href="#DejaVuSans-99"/>
      <use transform="translate(457.714844 0.53125)" xlink:href="#DejaVuSans-101"/>
      <use transform="translate(519.238281 0.53125)" xlink:href="#DejaVuSans-32"/>
      <use transform="translate(551.025391 0.53125)" xlink:href="#DejaVuSans-98"/>
      <use transform="translate(614.501953 0.53125)" xlink:href="#DejaVuSans-101"/>
      <use transform="translate(676.025391 0.53125)" xlink:href="#DejaVuSans-116"/>
      <use transform="translate(715.234375 0.53125)" xlink:href="#DejaVuSans-119"/>
      <use transform="translate(797.021484 0.53125)" xlink:href="#DejaVuSans-101"/>
      <use transform="translate(858.544922 0.53125)" xlink:href="#DejaVuSans-101"/>
      <use transform="translate(920.068359 0.53125)" xlink:href="#DejaVuSans-110"/>
      <use transform="translate(983.447266 0.53125)" xlink:href="#DejaVuSans-32"/>
      <use transform="translate(1015.234375 0.53125)" xlink:href="#DejaVuSans-118"/>
      <use transform="translate(1074.414062 0.53125)" xlink:href="#DejaVuSans-97"/>
      <use transform="translate(1135.693359 0.53125)" xlink:href="#DejaVuSans-114"/>
      <use transform="translate(1176.806641 0.53125)" xlink:href="#DejaVuSans-105"/>
      <use transform="translate(1204.589844 0.53125)" xlink:href="#DejaVuSans-97"/>
      <use transform="translate(1265.869141 0.53125)" xlink:href="#DejaVuSans-110"/>
      <use transform="translate(1329.248047 0.53125)" xlink:href="#DejaVuSans-116"/>
      <use transform="translate(1368.457031 0.53125)" xlink:href="#DejaVuSans-115"/>
      <use transform="translate(1420.556641 0.53125)" xlink:href="#DejaVuSans-32"/>
      <use transform="translate(1452.34375 0.53125)" xlink:href="#DejaVuSans-40"/>
      <use transform="translate(1555.804688 33.015625)" xlink:href="#DejaVuSans-770"/>
      <use transform="translate(1491.357422 0.53125)" xlink:href="#DejaVuSans-Oblique-100"/>
      <use transform="translate(1554.833984 0.53125)" xlink:href="#DejaVuSans-41"/>
     </g>
    </g>
   </g>
   <g id="matplotlib.axis_2">
    <g id="ytick_1">
     <g id="line2d_13">
      <path clip-path="url(#pe46abd61a9)" d="M 135 484.232727 
L 972 484.232727 
" style="fill:none;stroke:#808080;stroke-dasharray:0.3,0.495;stroke-dashoffset:0;stroke-width:0.3;"/>
     </g>
     <g id="line2d_14">
      <defs>
       <path d="M 0 0 
L -3.5 0 
" id="m81f19b8dbc" style="stroke:#000000;stroke-width:0.8;"/>
      </defs>
      <g>
       <use style="stroke:#000000;stroke-width:0.8;" x="135" xlink:href="#m81f19b8dbc" y="484.232727"/>
      </g>
     </g>
     <g id="text_8">
      <!-- 0 -->
      <g transform="translate(120.365 488.79179)scale(0.12 -0.12)">
       <use xlink:href="#DejaVuSans-48"/>
      </g>
     </g>
    </g>
    <g id="ytick_2">
     <g id="line2d_15">
      <path clip-path="url(#pe46abd61a9)" d="M 135 427.052324 
L 972 427.052324 
" style="fill:none;stroke:#808080;stroke-dasharray:0.3,0.495;stroke-dashoffset:0;stroke-width:0.3;"/>
     </g>
     <g id="line2d_16">
      <g>
       <use style="stroke:#000000;stroke-width:0.8;" x="135" xlink:href="#m81f19b8dbc" y="427.052324"/>
      </g>
     </g>
     <g id="text_9">
      <!-- 20 -->
      <defs>
       <path d="M 19.1875 8.296875 
L 53.609375 8.296875 
L 53.609375 0 
L 7.328125 0 
L 7.328125 8.296875 
Q 12.9375 14.109375 22.625 23.890625 
Q 32.328125 33.6875 34.8125 36.53125 
Q 39.546875 41.84375 41.421875 45.53125 
Q 43.3125 49.21875 43.3125 52.78125 
Q 43.3125 58.59375 39.234375 62.25 
Q 35.15625 65.921875 28.609375 65.921875 
Q 23.96875 65.921875 18.8125 64.3125 
Q 13.671875 62.703125 7.8125 59.421875 
L 7.8125 69.390625 
Q 13.765625 71.78125 18.9375 73 
Q 24.125 74.21875 28.421875 74.21875 
Q 39.75 74.21875 46.484375 68.546875 
Q 53.21875 62.890625 53.21875 53.421875 
Q 53.21875 48.921875 51.53125 44.890625 
Q 49.859375 40.875 45.40625 35.40625 
Q 44.1875 33.984375 37.640625 27.21875 
Q 31.109375 20.453125 19.1875 8.296875 
z
" id="DejaVuSans-50"/>
      </defs>
      <g transform="translate(112.73 431.611387)scale(0.12 -0.12)">
       <use xlink:href="#DejaVuSans-50"/>
       <use x="63.623047" xlink:href="#DejaVuSans-48"/>
      </g>
     </g>
    </g>
    <g id="ytick_3">
     <g id="line2d_17">
      <path clip-path="url(#pe46abd61a9)" d="M 135 369.871921 
L 972 369.871921 
" style="fill:none;stroke:#808080;stroke-dasharray:0.3,0.495;stroke-dashoffset:0;stroke-width:0.3;"/>
     </g>
     <g id="line2d_18">
      <g>
       <use style="stroke:#000000;stroke-width:0.8;" x="135" xlink:href="#m81f19b8dbc" y="369.871921"/>
      </g>
     </g>
     <g id="text_10">
      <!-- 40 -->
      <defs>
       <path d="M 37.796875 64.3125 
L 12.890625 25.390625 
L 37.796875 25.390625 
z
M 35.203125 72.90625 
L 47.609375 72.90625 
L 47.609375 25.390625 
L 58.015625 25.390625 
L 58.015625 17.1875 
L 47.609375 17.1875 
L 47.609375 0 
L 37.796875 0 
L 37.796875 17.1875 
L 4.890625 17.1875 
L 4.890625 26.703125 
z
" id="DejaVuSans-52"/>
      </defs>
      <g transform="translate(112.73 374.430984)scale(0.12 -0.12)">
       <use xlink:href="#DejaVuSans-52"/>
       <use x="63.623047" xlink:href="#DejaVuSans-48"/>
      </g>
     </g>
    </g>
    <g id="ytick_4">
     <g id="line2d_19">
      <path clip-path="url(#pe46abd61a9)" d="M 135 312.691518 
L 972 312.691518 
" style="fill:none;stroke:#808080;stroke-dasharray:0.3,0.495;stroke-dashoffset:0;stroke-width:0.3;"/>
     </g>
     <g id="line2d_20">
      <g>
       <use style="stroke:#000000;stroke-width:0.8;" x="135" xlink:href="#m81f19b8dbc" y="312.691518"/>
      </g>
     </g>
     <g id="text_11">
      <!-- 60 -->
      <defs>
       <path d="M 33.015625 40.375 
Q 26.375 40.375 22.484375 35.828125 
Q 18.609375 31.296875 18.609375 23.390625 
Q 18.609375 15.53125 22.484375 10.953125 
Q 26.375 6.390625 33.015625 6.390625 
Q 39.65625 6.390625 43.53125 10.953125 
Q 47.40625 15.53125 47.40625 23.390625 
Q 47.40625 31.296875 43.53125 35.828125 
Q 39.65625 40.375 33.015625 40.375 
z
M 52.59375 71.296875 
L 52.59375 62.3125 
Q 48.875 64.0625 45.09375 64.984375 
Q 41.3125 65.921875 37.59375 65.921875 
Q 27.828125 65.921875 22.671875 59.328125 
Q 17.53125 52.734375 16.796875 39.40625 
Q 19.671875 43.65625 24.015625 45.921875 
Q 28.375 48.1875 33.59375 48.1875 
Q 44.578125 48.1875 50.953125 41.515625 
Q 57.328125 34.859375 57.328125 23.390625 
Q 57.328125 12.15625 50.6875 5.359375 
Q 44.046875 -1.421875 33.015625 -1.421875 
Q 20.359375 -1.421875 13.671875 8.265625 
Q 6.984375 17.96875 6.984375 36.375 
Q 6.984375 53.65625 15.1875 63.9375 
Q 23.390625 74.21875 37.203125 74.21875 
Q 40.921875 74.21875 44.703125 73.484375 
Q 48.484375 72.75 52.59375 71.296875 
z
" id="DejaVuSans-54"/>
      </defs>
      <g transform="translate(112.73 317.250581)scale(0.12 -0.12)">
       <use xlink:href="#DejaVuSans-54"/>
       <use x="63.623047" xlink:href="#DejaVuSans-48"/>
      </g>
     </g>
    </g>
    <g id="ytick_5">
     <g id="line2d_21">
      <path clip-path="url(#pe46abd61a9)" d="M 135 255.511115 
L 972 255.511115 
" style="fill:none;stroke:#808080;stroke-dasharray:0.3,0.495;stroke-dashoffset:0;stroke-width:0.3;"/>
     </g>
     <g id="line2d_22">
      <g>
       <use style="stroke:#000000;stroke-width:0.8;" x="135" xlink:href="#m81f19b8dbc" y="255.511115"/>
      </g>
     </g>
     <g id="text_12">
      <!-- 80 -->
      <defs>
       <path d="M 31.78125 34.625 
Q 24.75 34.625 20.71875 30.859375 
Q 16.703125 27.09375 16.703125 20.515625 
Q 16.703125 13.921875 20.71875 10.15625 
Q 24.75 6.390625 31.78125 6.390625 
Q 38.8125 6.390625 42.859375 10.171875 
Q 46.921875 13.96875 46.921875 20.515625 
Q 46.921875 27.09375 42.890625 30.859375 
Q 38.875 34.625 31.78125 34.625 
z
M 21.921875 38.8125 
Q 15.578125 40.375 12.03125 44.71875 
Q 8.5 49.078125 8.5 55.328125 
Q 8.5 64.0625 14.71875 69.140625 
Q 20.953125 74.21875 31.78125 74.21875 
Q 42.671875 74.21875 48.875 69.140625 
Q 55.078125 64.0625 55.078125 55.328125 
Q 55.078125 49.078125 51.53125 44.71875 
Q 48 40.375 41.703125 38.8125 
Q 48.828125 37.15625 52.796875 32.3125 
Q 56.78125 27.484375 56.78125 20.515625 
Q 56.78125 9.90625 50.3125 4.234375 
Q 43.84375 -1.421875 31.78125 -1.421875 
Q 19.734375 -1.421875 13.25 4.234375 
Q 6.78125 9.90625 6.78125 20.515625 
Q 6.78125 27.484375 10.78125 32.3125 
Q 14.796875 37.15625 21.921875 38.8125 
z
M 18.3125 54.390625 
Q 18.3125 48.734375 21.84375 45.5625 
Q 25.390625 42.390625 31.78125 42.390625 
Q 38.140625 42.390625 41.71875 45.5625 
Q 45.3125 48.734375 45.3125 54.390625 
Q 45.3125 60.0625 41.71875 63.234375 
Q 38.140625 66.40625 31.78125 66.40625 
Q 25.390625 66.40625 21.84375 63.234375 
Q 18.3125 60.0625 18.3125 54.390625 
z
" id="DejaVuSans-56"/>
      </defs>
      <g transform="translate(112.73 260.070178)scale(0.12 -0.12)">
       <use xlink:href="#DejaVuSans-56"/>
       <use x="63.623047" xlink:href="#DejaVuSans-48"/>
      </g>
     </g>
    </g>
    <g id="ytick_6">
     <g id="line2d_23">
      <path clip-path="url(#pe46abd61a9)" d="M 135 198.330712 
L 972 198.330712 
" style="fill:none;stroke:#808080;stroke-dasharray:0.3,0.495;stroke-dashoffset:0;stroke-width:0.3;"/>
     </g>
     <g id="line2d_24">
      <g>
       <use style="stroke:#000000;stroke-width:0.8;" x="135" xlink:href="#m81f19b8dbc" y="198.330712"/>
      </g>
     </g>
     <g id="text_13">
      <!-- 100 -->
      <g transform="translate(105.095 202.889775)scale(0.12 -0.12)">
       <use xlink:href="#DejaVuSans-49"/>
       <use x="63.623047" xlink:href="#DejaVuSans-48"/>
       <use x="127.246094" xlink:href="#DejaVuSans-48"/>
      </g>
     </g>
    </g>
    <g id="ytick_7">
     <g id="line2d_25">
      <path clip-path="url(#pe46abd61a9)" d="M 135 141.150309 
L 972 141.150309 
" style="fill:none;stroke:#808080;stroke-dasharray:0.3,0.495;stroke-dashoffset:0;stroke-width:0.3;"/>
     </g>
     <g id="line2d_26">
      <g>
       <use style="stroke:#000000;stroke-width:0.8;" x="135" xlink:href="#m81f19b8dbc" y="141.150309"/>
      </g>
     </g>
     <g id="text_14">
      <!-- 120 -->
      <g transform="translate(105.095 145.709372)scale(0.12 -0.12)">
       <use xlink:href="#DejaVuSans-49"/>
       <use x="63.623047" xlink:href="#DejaVuSans-50"/>
       <use x="127.246094" xlink:href="#DejaVuSans-48"/>
      </g>
     </g>
    </g>
    <g id="ytick_8">
     <g id="line2d_27">
      <path clip-path="url(#pe46abd61a9)" d="M 135 83.969906 
L 972 83.969906 
" style="fill:none;stroke:#808080;stroke-dasharray:0.3,0.495;stroke-dashoffset:0;stroke-width:0.3;"/>
     </g>
     <g id="line2d_28">
      <g>
       <use style="stroke:#000000;stroke-width:0.8;" x="135" xlink:href="#m81f19b8dbc" y="83.969906"/>
      </g>
     </g>
     <g id="text_15">
      <!-- 140 -->
      <g transform="translate(105.095 88.528969)scale(0.12 -0.12)">
       <use xlink:href="#DejaVuSans-49"/>
       <use x="63.623047" xlink:href="#DejaVuSans-52"/>
       <use x="127.246094" xlink:href="#DejaVuSans-48"/>
      </g>
     </g>
    </g>
    <g id="text_16">
     <!-- PDF -->
     <defs>
      <path d="M 19.671875 64.796875 
L 19.671875 37.40625 
L 32.078125 37.40625 
Q 38.96875 37.40625 42.71875 40.96875 
Q 46.484375 44.53125 46.484375 51.125 
Q 46.484375 57.671875 42.71875 61.234375 
Q 38.96875 64.796875 32.078125 64.796875 
z
M 9.8125 72.90625 
L 32.078125 72.90625 
Q 44.34375 72.90625 50.609375 67.359375 
Q 56.890625 61.8125 56.890625 51.125 
Q 56.890625 40.328125 50.609375 34.8125 
Q 44.34375 29.296875 32.078125 29.296875 
L 19.671875 29.296875 
L 19.671875 0 
L 9.8125 0 
z
" id="DejaVuSans-80"/>
      <path d="M 9.8125 72.90625 
L 51.703125 72.90625 
L 51.703125 64.59375 
L 19.671875 64.59375 
L 19.671875 43.109375 
L 48.578125 43.109375 
L 48.578125 34.8125 
L 19.671875 34.8125 
L 19.671875 0 
L 9.8125 0 
z
" id="DejaVuSans-70"/>
     </defs>
     <g transform="translate(97.7675 302.145)rotate(-90)scale(0.16 -0.16)">
      <use xlink:href="#DejaVuSans-80"/>
      <use x="60.302734" xlink:href="#DejaVuSans-68"/>
      <use x="137.304688" xlink:href="#DejaVuSans-70"/>
     </g>
    </g>
   </g>
   <g id="line2d_29">
    <path clip-path="url(#pe46abd61a9)" d="M 173.045455 484.100103 
L 194.467441 483.84147 
L 209.156802 483.447638 
L 220.173824 482.940811 
L 229.354675 482.30696 
L 237.311413 481.542503 
L 244.656093 480.605058 
L 250.776661 479.611436 
L 256.897228 478.383291 
L 262.405739 477.040748 
L 267.302193 475.628369 
L 272.198647 473.980787 
L 276.483044 472.322485 
L 280.767441 470.439356 
L 285.051838 468.308601 
L 289.336236 465.906372 
L 293.008576 463.612512 
L 296.680917 461.085036 
L 300.353257 458.30768 
L 304.025597 455.264041 
L 307.697938 451.937716 
L 311.370278 448.312469 
L 315.042619 444.372401 
L 318.714959 440.102149 
L 322.3873 435.487087 
L 326.05964 430.513555 
L 329.731981 425.169084 
L 333.404321 419.442645 
L 337.076662 413.324894 
L 340.749002 406.808429 
L 344.421342 399.888042 
L 348.70574 391.300208 
L 352.990137 382.159224 
L 357.274534 372.470859 
L 361.558931 362.246833 
L 366.455385 349.929826 
L 371.351839 336.97478 
L 376.86035 321.700049 
L 382.36886 305.770319 
L 389.101485 285.571635 
L 397.670279 259.065653 
L 416.031981 201.954119 
L 422.152549 183.741204 
L 427.049003 169.7836 
L 431.3334 158.139606 
L 435.617797 147.125388 
L 439.290138 138.255377 
L 442.962478 129.970776 
L 446.022762 123.552233 
L 449.083045 117.605649 
L 452.143329 112.158012 
L 455.203613 107.234321 
L 457.65184 103.688016 
L 460.100067 100.502282 
L 462.548294 97.686697 
L 464.996521 95.249775 
L 467.444748 93.198916 
L 469.280918 91.917931 
L 471.117088 90.859853 
L 472.953258 90.026504 
L 474.789429 89.419323 
L 476.625599 89.03936 
L 478.461769 88.887273 
L 480.297939 88.963324 
L 482.134109 89.267382 
L 483.97028 89.79892 
L 485.80645 90.557021 
L 487.64262 91.540373 
L 489.47879 92.747282 
L 491.314961 94.175669 
L 493.763188 96.420414 
L 496.211415 99.047663 
L 498.659642 102.049454 
L 501.107868 105.416736 
L 503.556095 109.139413 
L 506.004322 113.206393 
L 509.064606 118.755886 
L 512.12489 124.799082 
L 515.185174 131.308616 
L 518.857514 139.694524 
L 522.529854 148.656783 
L 526.814252 159.76665 
L 531.098649 171.492967 
L 535.995103 185.527979 
L 542.11567 203.812482 
L 550.072408 228.384082 
L 570.27028 291.148327 
L 577.002905 311.146683 
L 582.511415 326.869219 
L 588.019926 341.904803 
L 592.91638 354.625758 
L 597.812834 366.693139 
L 602.097231 376.689431 
L 606.381628 386.144283 
L 610.666025 395.048578 
L 614.950423 403.398959 
L 619.23482 411.197345 
L 622.90716 417.447281 
L 626.579501 423.30321 
L 630.251841 428.773857 
L 633.924182 433.869716 
L 637.596522 438.602804 
L 641.268863 442.986411 
L 644.941203 447.034865 
L 648.613543 450.763308 
L 652.285884 454.187482 
L 655.958224 457.323532 
L 659.630565 460.187823 
L 663.302905 462.796776 
L 666.975246 465.166715 
L 671.259643 467.651019 
L 675.54404 469.856861 
L 679.828437 471.808365 
L 684.112834 473.528644 
L 689.009288 475.239668 
L 693.905742 476.708134 
L 699.414253 478.105698 
L 704.922764 479.269536 
L 711.043331 480.329168 
L 717.775955 481.257543 
L 725.120636 482.039917 
L 733.689431 482.71451 
L 743.482338 483.250587 
L 755.111417 483.659556 
L 770.412835 483.96032 
L 784.49014 484.100103 
L 784.49014 484.100103 
" style="fill:none;stroke:#1f77b4;stroke-linecap:square;stroke-width:2;"/>
   </g>
   <g id="line2d_30">
    <path clip-path="url(#pe46abd61a9)" d="M 322.50986 484.100103 
L 343.931846 483.84147 
L 358.621208 483.447638 
L 369.638229 482.940811 
L 378.81908 482.30696 
L 386.775818 481.542503 
L 394.120499 480.605058 
L 400.241066 479.611436 
L 406.361633 478.383291 
L 411.870144 477.040748 
L 416.766598 475.628369 
L 421.663052 473.980787 
L 425.947449 472.322485 
L 430.231846 470.439356 
L 434.516244 468.308601 
L 438.800641 465.906372 
L 442.472981 463.612512 
L 446.145322 461.085036 
L 449.817662 458.30768 
L 453.490003 455.264041 
L 457.162343 451.937716 
L 460.834684 448.312469 
L 464.507024 444.372401 
L 468.179364 440.102149 
L 471.851705 435.487087 
L 475.524045 430.513555 
L 479.196386 425.169084 
L 482.868726 419.442645 
L 486.541067 413.324894 
L 490.213407 406.808429 
L 493.885748 399.888042 
L 498.170145 391.300208 
L 502.454542 382.159224 
L 506.738939 372.470859 
L 511.023336 362.246833 
L 515.91979 349.929826 
L 520.816244 336.97478 
L 526.324755 321.700049 
L 531.833266 305.770319 
L 538.56589 285.571635 
L 547.134684 259.065653 
L 565.496387 201.954119 
L 571.616954 183.741204 
L 576.513408 169.7836 
L 580.797805 158.139606 
L 585.082202 147.125388 
L 588.754543 138.255377 
L 592.426883 129.970776 
L 595.487167 123.552233 
L 598.547451 117.605649 
L 601.607734 112.158012 
L 604.668018 107.234321 
L 607.116245 103.688016 
L 609.564472 100.502282 
L 612.012699 97.686697 
L 614.460926 95.249775 
L 616.909153 93.198916 
L 618.745323 91.917931 
L 620.581493 90.859853 
L 622.417664 90.026504 
L 624.253834 89.419323 
L 626.090004 89.03936 
L 627.926174 88.887273 
L 629.762344 88.963324 
L 631.598515 89.267382 
L 633.434685 89.79892 
L 635.270855 90.557021 
L 637.107025 91.540373 
L 638.943196 92.747282 
L 640.779366 94.175669 
L 643.227593 96.420414 
L 645.67582 99.047663 
L 648.124047 102.049454 
L 650.572274 105.416736 
L 653.020501 109.139413 
L 655.468728 113.206393 
L 658.529011 118.755886 
L 661.589295 124.799082 
L 664.649579 131.308616 
L 668.321919 139.694524 
L 671.99426 148.656783 
L 676.278657 159.76665 
L 680.563054 171.492967 
L 685.459508 185.527979 
L 691.580075 203.812482 
L 699.536813 228.384082 
L 719.734686 291.148327 
L 726.46731 311.146683 
L 731.97582 326.869219 
L 737.484331 341.904803 
L 742.380785 354.625758 
L 747.277239 366.693139 
L 751.561636 376.689431 
L 755.846033 386.144283 
L 760.130431 395.048578 
L 764.414828 403.398959 
L 768.699225 411.197345 
L 772.371565 417.447281 
L 776.043906 423.30321 
L 779.716246 428.773857 
L 783.388587 433.869716 
L 787.060927 438.602804 
L 790.733268 442.986411 
L 794.405608 447.034865 
L 798.077949 450.763308 
L 801.750289 454.187482 
L 805.42263 457.323532 
L 809.09497 460.187823 
L 812.76731 462.796776 
L 816.439651 465.166715 
L 820.724048 467.651019 
L 825.008445 469.856861 
L 829.292842 471.808365 
L 833.57724 473.528644 
L 838.473694 475.239668 
L 843.370148 476.708134 
L 848.878658 478.105698 
L 854.387169 479.269536 
L 860.507736 480.329168 
L 867.240361 481.257543 
L 874.585041 482.039917 
L 883.153836 482.71451 
L 892.946744 483.250587 
L 904.575822 483.659556 
L 919.87724 483.96032 
L 933.954545 484.100103 
L 933.954545 484.100103 
" style="fill:none;stroke:#ff7f0e;stroke-linecap:square;stroke-width:2;"/>
   </g>
   <g id="patch_3">
    <path d="M 135 504 
L 135 69.12 
" style="fill:none;stroke:#d3d3d3;stroke-linecap:square;stroke-linejoin:miter;stroke-width:0.8;"/>
   </g>
   <g id="patch_4">
    <path d="M 972 504 
L 972 69.12 
" style="fill:none;stroke:#d3d3d3;stroke-linecap:square;stroke-linejoin:miter;stroke-width:0.8;"/>
   </g>
   <g id="patch_5">
    <path d="M 135 504 
L 972 504 
" style="fill:none;stroke:#d3d3d3;stroke-linecap:square;stroke-linejoin:miter;stroke-width:0.8;"/>
   </g>
   <g id="patch_6">
    <path d="M 135 69.12 
L 972 69.12 
" style="fill:none;stroke:#d3d3d3;stroke-linecap:square;stroke-linejoin:miter;stroke-width:0.8;"/>
   </g>
   <g id="text_17">
    <!-- Power of the test: 62.20% at a significance level of 5% -->
    <defs>
     <path d="M 30.609375 48.390625 
Q 23.390625 48.390625 19.1875 42.75 
Q 14.984375 37.109375 14.984375 27.296875 
Q 14.984375 17.484375 19.15625 11.84375 
Q 23.34375 6.203125 30.609375 6.203125 
Q 37.796875 6.203125 41.984375 11.859375 
Q 46.1875 17.53125 46.1875 27.296875 
Q 46.1875 37.015625 41.984375 42.703125 
Q 37.796875 48.390625 30.609375 48.390625 
z
M 30.609375 56 
Q 42.328125 56 49.015625 48.375 
Q 55.71875 40.765625 55.71875 27.296875 
Q 55.71875 13.875 49.015625 6.21875 
Q 42.328125 -1.421875 30.609375 -1.421875 
Q 18.84375 -1.421875 12.171875 6.21875 
Q 5.515625 13.875 5.515625 27.296875 
Q 5.515625 40.765625 12.171875 48.375 
Q 18.84375 56 30.609375 56 
z
" id="DejaVuSans-111"/>
     <path d="M 54.890625 33.015625 
L 54.890625 0 
L 45.90625 0 
L 45.90625 32.71875 
Q 45.90625 40.484375 42.875 44.328125 
Q 39.84375 48.1875 33.796875 48.1875 
Q 26.515625 48.1875 22.3125 43.546875 
Q 18.109375 38.921875 18.109375 30.90625 
L 18.109375 0 
L 9.078125 0 
L 9.078125 75.984375 
L 18.109375 75.984375 
L 18.109375 46.1875 
Q 21.34375 51.125 25.703125 53.5625 
Q 30.078125 56 35.796875 56 
Q 45.21875 56 50.046875 50.171875 
Q 54.890625 44.34375 54.890625 33.015625 
z
" id="DejaVuSans-104"/>
     <path d="M 11.71875 12.40625 
L 22.015625 12.40625 
L 22.015625 0 
L 11.71875 0 
z
M 11.71875 51.703125 
L 22.015625 51.703125 
L 22.015625 39.3125 
L 11.71875 39.3125 
z
" id="DejaVuSans-58"/>
     <path d="M 72.703125 32.078125 
Q 68.453125 32.078125 66.03125 28.46875 
Q 63.625 24.859375 63.625 18.40625 
Q 63.625 12.0625 66.03125 8.421875 
Q 68.453125 4.78125 72.703125 4.78125 
Q 76.859375 4.78125 79.265625 8.421875 
Q 81.6875 12.0625 81.6875 18.40625 
Q 81.6875 24.8125 79.265625 28.4375 
Q 76.859375 32.078125 72.703125 32.078125 
z
M 72.703125 38.28125 
Q 80.421875 38.28125 84.953125 32.90625 
Q 89.5 27.546875 89.5 18.40625 
Q 89.5 9.28125 84.9375 3.921875 
Q 80.375 -1.421875 72.703125 -1.421875 
Q 64.890625 -1.421875 60.34375 3.921875 
Q 55.8125 9.28125 55.8125 18.40625 
Q 55.8125 27.59375 60.375 32.9375 
Q 64.9375 38.28125 72.703125 38.28125 
z
M 22.3125 68.015625 
Q 18.109375 68.015625 15.6875 64.375 
Q 13.28125 60.75 13.28125 54.390625 
Q 13.28125 47.953125 15.671875 44.328125 
Q 18.0625 40.71875 22.3125 40.71875 
Q 26.5625 40.71875 28.96875 44.328125 
Q 31.390625 47.953125 31.390625 54.390625 
Q 31.390625 60.6875 28.953125 64.34375 
Q 26.515625 68.015625 22.3125 68.015625 
z
M 66.40625 74.21875 
L 74.21875 74.21875 
L 28.609375 -1.421875 
L 20.796875 -1.421875 
z
M 22.3125 74.21875 
Q 30.03125 74.21875 34.609375 68.875 
Q 39.203125 63.53125 39.203125 54.390625 
Q 39.203125 45.171875 34.640625 39.84375 
Q 30.078125 34.515625 22.3125 34.515625 
Q 14.546875 34.515625 10.03125 39.859375 
Q 5.515625 45.21875 5.515625 54.390625 
Q 5.515625 63.484375 10.046875 68.84375 
Q 14.59375 74.21875 22.3125 74.21875 
z
" id="DejaVuSans-37"/>
     <path d="M 45.40625 27.984375 
Q 45.40625 37.75 41.375 43.109375 
Q 37.359375 48.484375 30.078125 48.484375 
Q 22.859375 48.484375 18.828125 43.109375 
Q 14.796875 37.75 14.796875 27.984375 
Q 14.796875 18.265625 18.828125 12.890625 
Q 22.859375 7.515625 30.078125 7.515625 
Q 37.359375 7.515625 41.375 12.890625 
Q 45.40625 18.265625 45.40625 27.984375 
z
M 54.390625 6.78125 
Q 54.390625 -7.171875 48.1875 -13.984375 
Q 42 -20.796875 29.203125 -20.796875 
Q 24.46875 -20.796875 20.265625 -20.09375 
Q 16.0625 -19.390625 12.109375 -17.921875 
L 12.109375 -9.1875 
Q 16.0625 -11.328125 19.921875 -12.34375 
Q 23.78125 -13.375 27.78125 -13.375 
Q 36.625 -13.375 41.015625 -8.765625 
Q 45.40625 -4.15625 45.40625 5.171875 
L 45.40625 9.625 
Q 42.625 4.78125 38.28125 2.390625 
Q 33.9375 0 27.875 0 
Q 17.828125 0 11.671875 7.65625 
Q 5.515625 15.328125 5.515625 27.984375 
Q 5.515625 40.671875 11.671875 48.328125 
Q 17.828125 56 27.875 56 
Q 33.9375 56 38.28125 53.609375 
Q 42.625 51.21875 45.40625 46.390625 
L 45.40625 54.6875 
L 54.390625 54.6875 
z
" id="DejaVuSans-103"/>
     <path d="M 9.421875 75.984375 
L 18.40625 75.984375 
L 18.40625 0 
L 9.421875 0 
z
" id="DejaVuSans-108"/>
    </defs>
    <g transform="translate(356.259375 63.12)scale(0.144 -0.144)">
     <use xlink:href="#DejaVuSans-80"/>
     <use x="60.255859" xlink:href="#DejaVuSans-111"/>
     <use x="121.4375" xlink:href="#DejaVuSans-119"/>
     <use x="203.224609" xlink:href="#DejaVuSans-101"/>
     <use x="264.748047" xlink:href="#DejaVuSans-114"/>
     <use x="305.861328" xlink:href="#DejaVuSans-32"/>
     <use x="337.648438" xlink:href="#DejaVuSans-111"/>
     <use x="398.830078" xlink:href="#DejaVuSans-102"/>
     <use x="434.035156" xlink:href="#DejaVuSans-32"/>
     <use x="465.822266" xlink:href="#DejaVuSans-116"/>
     <use x="505.03125" xlink:href="#DejaVuSans-104"/>
     <use x="568.410156" xlink:href="#DejaVuSans-101"/>
     <use x="629.933594" xlink:href="#DejaVuSans-32"/>
     <use x="661.720703" xlink:href="#DejaVuSans-116"/>
     <use x="700.929688" xlink:href="#DejaVuSans-101"/>
     <use x="762.453125" xlink:href="#DejaVuSans-115"/>
     <use x="814.552734" xlink:href="#DejaVuSans-116"/>
     <use x="853.761719" xlink:href="#DejaVuSans-58"/>
     <use x="887.453125" xlink:href="#DejaVuSans-32"/>
     <use x="919.240234" xlink:href="#DejaVuSans-54"/>
     <use x="982.863281" xlink:href="#DejaVuSans-50"/>
     <use x="1046.486328" xlink:href="#DejaVuSans-46"/>
     <use x="1078.273438" xlink:href="#DejaVuSans-50"/>
     <use x="1141.896484" xlink:href="#DejaVuSans-48"/>
     <use x="1205.519531" xlink:href="#DejaVuSans-37"/>
     <use x="1300.539062" xlink:href="#DejaVuSans-32"/>
     <use x="1332.326172" xlink:href="#DejaVuSans-97"/>
     <use x="1393.605469" xlink:href="#DejaVuSans-116"/>
     <use x="1432.814453" xlink:href="#DejaVuSans-32"/>
     <use x="1464.601562" xlink:href="#DejaVuSans-97"/>
     <use x="1525.880859" xlink:href="#DejaVuSans-32"/>
     <use x="1557.667969" xlink:href="#DejaVuSans-115"/>
     <use x="1609.767578" xlink:href="#DejaVuSans-105"/>
     <use x="1637.550781" xlink:href="#DejaVuSans-103"/>
     <use x="1701.027344" xlink:href="#DejaVuSans-110"/>
     <use x="1764.40625" xlink:href="#DejaVuSans-105"/>
     <use x="1792.189453" xlink:href="#DejaVuSans-102"/>
     <use x="1827.394531" xlink:href="#DejaVuSans-105"/>
     <use x="1855.177734" xlink:href="#DejaVuSans-99"/>
     <use x="1910.158203" xlink:href="#DejaVuSans-97"/>
     <use x="1971.4375" xlink:href="#DejaVuSans-110"/>
     <use x="2034.816406" xlink:href="#DejaVuSans-99"/>
     <use x="2089.796875" xlink:href="#DejaVuSans-101"/>
     <use x="2151.320312" xlink:href="#DejaVuSans-32"/>
     <use x="2183.107422" xlink:href="#DejaVuSans-108"/>
     <use x="2210.890625" xlink:href="#DejaVuSans-101"/>
     <use x="2272.414062" xlink:href="#DejaVuSans-118"/>
     <use x="2331.59375" xlink:href="#DejaVuSans-101"/>
     <use x="2393.117188" xlink:href="#DejaVuSans-108"/>
     <use x="2420.900391" xlink:href="#DejaVuSans-32"/>
     <use x="2452.6875" xlink:href="#DejaVuSans-111"/>
     <use x="2513.869141" xlink:href="#DejaVuSans-102"/>
     <use x="2549.074219" xlink:href="#DejaVuSans-32"/>
     <use x="2580.861328" xlink:href="#DejaVuSans-53"/>
     <use x="2644.484375" xlink:href="#DejaVuSans-37"/>
    </g>
   </g>
   <g id="legend_1">
    <g id="patch_7">
     <path d="M 143.4 131.56125 
L 247.845 131.56125 
Q 250.245 131.56125 250.245 129.16125 
L 250.245 77.52 
Q 250.245 75.12 247.845 75.12 
L 143.4 75.12 
Q 141 75.12 141 77.52 
L 141 129.16125 
Q 141 131.56125 143.4 131.56125 
z
" style="fill:#ffffff;opacity:0.8;stroke:#cccccc;stroke-linejoin:miter;"/>
    </g>
    <g id="text_18">
     <!-- Hypothesis -->
     <defs>
      <path d="M 9.8125 72.90625 
L 19.671875 72.90625 
L 19.671875 43.015625 
L 55.515625 43.015625 
L 55.515625 72.90625 
L 65.375 72.90625 
L 65.375 0 
L 55.515625 0 
L 55.515625 34.71875 
L 19.671875 34.71875 
L 19.671875 0 
L 9.8125 0 
z
" id="DejaVuSans-72"/>
      <path d="M 32.171875 -5.078125 
Q 28.375 -14.84375 24.75 -17.8125 
Q 21.140625 -20.796875 15.09375 -20.796875 
L 7.90625 -20.796875 
L 7.90625 -13.28125 
L 13.1875 -13.28125 
Q 16.890625 -13.28125 18.9375 -11.515625 
Q 21 -9.765625 23.484375 -3.21875 
L 25.09375 0.875 
L 2.984375 54.6875 
L 12.5 54.6875 
L 29.59375 11.921875 
L 46.6875 54.6875 
L 56.203125 54.6875 
z
" id="DejaVuSans-121"/>
      <path d="M 18.109375 8.203125 
L 18.109375 -20.796875 
L 9.078125 -20.796875 
L 9.078125 54.6875 
L 18.109375 54.6875 
L 18.109375 46.390625 
Q 20.953125 51.265625 25.265625 53.625 
Q 29.59375 56 35.59375 56 
Q 45.5625 56 51.78125 48.09375 
Q 58.015625 40.1875 58.015625 27.296875 
Q 58.015625 14.40625 51.78125 6.484375 
Q 45.5625 -1.421875 35.59375 -1.421875 
Q 29.59375 -1.421875 25.265625 0.953125 
Q 20.953125 3.328125 18.109375 8.203125 
z
M 48.6875 27.296875 
Q 48.6875 37.203125 44.609375 42.84375 
Q 40.53125 48.484375 33.40625 48.484375 
Q 26.265625 48.484375 22.1875 42.84375 
Q 18.109375 37.203125 18.109375 27.296875 
Q 18.109375 17.390625 22.1875 11.75 
Q 26.265625 6.109375 33.40625 6.109375 
Q 40.53125 6.109375 44.609375 11.75 
Q 48.6875 17.390625 48.6875 27.296875 
z
" id="DejaVuSans-112"/>
     </defs>
     <g transform="translate(162.314063 89.038125)scale(0.12 -0.12)">
      <use xlink:href="#DejaVuSans-72"/>
      <use x="75.195312" xlink:href="#DejaVuSans-121"/>
      <use x="134.375" xlink:href="#DejaVuSans-112"/>
      <use x="197.851562" xlink:href="#DejaVuSans-111"/>
      <use x="259.033203" xlink:href="#DejaVuSans-116"/>
      <use x="298.242188" xlink:href="#DejaVuSans-104"/>
      <use x="361.621094" xlink:href="#DejaVuSans-101"/>
      <use x="423.144531" xlink:href="#DejaVuSans-115"/>
      <use x="475.244141" xlink:href="#DejaVuSans-105"/>
      <use x="503.027344" xlink:href="#DejaVuSans-115"/>
     </g>
    </g>
    <g id="line2d_31">
     <path d="M 145.8 102.451875 
L 169.8 102.451875 
" style="fill:none;stroke:#1f77b4;stroke-linecap:square;stroke-width:2;"/>
    </g>
    <g id="line2d_32"/>
    <g id="text_19">
     <!-- Null -->
     <defs>
      <path d="M 9.8125 72.90625 
L 23.09375 72.90625 
L 55.421875 11.921875 
L 55.421875 72.90625 
L 64.984375 72.90625 
L 64.984375 0 
L 51.703125 0 
L 19.390625 60.984375 
L 19.390625 0 
L 9.8125 0 
z
" id="DejaVuSans-78"/>
      <path d="M 8.5 21.578125 
L 8.5 54.6875 
L 17.484375 54.6875 
L 17.484375 21.921875 
Q 17.484375 14.15625 20.5 10.265625 
Q 23.53125 6.390625 29.59375 6.390625 
Q 36.859375 6.390625 41.078125 11.03125 
Q 45.3125 15.671875 45.3125 23.6875 
L 45.3125 54.6875 
L 54.296875 54.6875 
L 54.296875 0 
L 45.3125 0 
L 45.3125 8.40625 
Q 42.046875 3.421875 37.71875 1 
Q 33.40625 -1.421875 27.6875 -1.421875 
Q 18.265625 -1.421875 13.375 4.4375 
Q 8.5 10.296875 8.5 21.578125 
z
M 31.109375 56 
z
" id="DejaVuSans-117"/>
     </defs>
     <g transform="translate(179.4 106.651875)scale(0.12 -0.12)">
      <use xlink:href="#DejaVuSans-78"/>
      <use x="74.804688" xlink:href="#DejaVuSans-117"/>
      <use x="138.183594" xlink:href="#DejaVuSans-108"/>
      <use x="165.966797" xlink:href="#DejaVuSans-108"/>
     </g>
    </g>
    <g id="line2d_33">
     <path d="M 145.8 120.065625 
L 169.8 120.065625 
" style="fill:none;stroke:#ff7f0e;stroke-linecap:square;stroke-width:2;"/>
    </g>
    <g id="line2d_34"/>
    <g id="text_20">
     <!-- Alternative -->
     <defs>
      <path d="M 34.1875 63.1875 
L 20.796875 26.90625 
L 47.609375 26.90625 
z
M 28.609375 72.90625 
L 39.796875 72.90625 
L 67.578125 0 
L 57.328125 0 
L 50.6875 18.703125 
L 17.828125 18.703125 
L 11.1875 0 
L 0.78125 0 
z
" id="DejaVuSans-65"/>
     </defs>
     <g transform="translate(179.4 124.265625)scale(0.12 -0.12)">
      <use xlink:href="#DejaVuSans-65"/>
      <use x="68.408203" xlink:href="#DejaVuSans-108"/>
      <use x="96.191406" xlink:href="#DejaVuSans-116"/>
      <use x="135.400391" xlink:href="#DejaVuSans-101"/>
      <use x="196.923828" xlink:href="#DejaVuSans-114"/>
      <use x="238.021484" xlink:href="#DejaVuSans-110"/>
      <use x="301.400391" xlink:href="#DejaVuSans-97"/>
      <use x="362.679688" xlink:href="#DejaVuSans-116"/>
      <use x="401.888672" xlink:href="#DejaVuSans-105"/>
      <use x="429.671875" xlink:href="#DejaVuSans-118"/>
      <use x="488.851562" xlink:href="#DejaVuSans-101"/>
     </g>
    </g>
   </g>
  </g>
  <g id="text_21">
   <!-- AB Test results -->
   <defs>
    <path d="M 19.671875 34.8125 
L 19.671875 8.109375 
L 35.5 8.109375 
Q 43.453125 8.109375 47.28125 11.40625 
Q 51.125 14.703125 51.125 21.484375 
Q 51.125 28.328125 47.28125 31.5625 
Q 43.453125 34.8125 35.5 34.8125 
z
M 19.671875 64.796875 
L 19.671875 42.828125 
L 34.28125 42.828125 
Q 41.5 42.828125 45.03125 45.53125 
Q 48.578125 48.25 48.578125 53.8125 
Q 48.578125 59.328125 45.03125 62.0625 
Q 41.5 64.796875 34.28125 64.796875 
z
M 9.8125 72.90625 
L 35.015625 72.90625 
Q 46.296875 72.90625 52.390625 68.21875 
Q 58.5 63.53125 58.5 54.890625 
Q 58.5 48.1875 55.375 44.234375 
Q 52.25 40.28125 46.1875 39.3125 
Q 53.46875 37.75 57.5 32.78125 
Q 61.53125 27.828125 61.53125 20.40625 
Q 61.53125 10.640625 54.890625 5.3125 
Q 48.25 0 35.984375 0 
L 9.8125 0 
z
" id="DejaVuSans-66"/>
    <path d="M -0.296875 72.90625 
L 61.375 72.90625 
L 61.375 64.59375 
L 35.5 64.59375 
L 35.5 0 
L 25.59375 0 
L 25.59375 64.59375 
L -0.296875 64.59375 
z
" id="DejaVuSans-84"/>
   </defs>
   <g transform="translate(472.37625 36.717187)scale(0.18 -0.18)">
    <use xlink:href="#DejaVuSans-65"/>
    <use x="68.408203" xlink:href="#DejaVuSans-66"/>
    <use x="137.011719" xlink:href="#DejaVuSans-32"/>
    <use x="168.798828" xlink:href="#DejaVuSans-84"/>
    <use x="229.617188" xlink:href="#DejaVuSans-101"/>
    <use x="291.140625" xlink:href="#DejaVuSans-115"/>
    <use x="343.240234" xlink:href="#DejaVuSans-116"/>
    <use x="382.449219" xlink:href="#DejaVuSans-32"/>
    <use x="414.236328" xlink:href="#DejaVuSans-114"/>
    <use x="455.318359" xlink:href="#DejaVuSans-101"/>
    <use x="516.841797" xlink:href="#DejaVuSans-115"/>
    <use x="568.941406" xlink:href="#DejaVuSans-117"/>
    <use x="632.320312" xlink:href="#DejaVuSans-108"/>
    <use x="660.103516" xlink:href="#DejaVuSans-116"/>
    <use x="699.3125" xlink:href="#DejaVuSans-115"/>
   </g>
  </g>
 </g>
 <defs>
  <clipPath id="pe46abd61a9">
   <rect height="434.88" width="837" x="135" y="69.12"/>
  </clipPath>
 </defs>
</svg>
