<?xml version="1.0" encoding="utf-8" standalone="no"?>
<!DOCTYPE svg PUBLIC "-//W3C//DTD SVG 1.1//EN"
  "http://www.w3.org/Graphics/SVG/1.1/DTD/svg11.dtd">
<svg height="576pt" version="1.1" viewBox="0 0 864 576" width="864pt" xmlns="http://www.w3.org/2000/svg" xmlns:xlink="http://www.w3.org/1999/xlink">
 <metadata>
  <rdf:RDF xmlns:cc="http://creativecommons.org/ns#" xmlns:dc="http://purl.org/dc/elements/1.1/" xmlns:rdf="http://www.w3.org/1999/02/22-rdf-syntax-ns#">
   <cc:Work>
    <dc:type rdf:resource="http://purl.org/dc/dcmitype/StillImage"/>
    <dc:date>2021-04-05T18:54:02.789358</dc:date>
    <dc:format>image/svg+xml</dc:format>
    <dc:creator>
     <cc:Agent>
      <dc:title>Matplotlib v3.4.1, https://matplotlib.org/</dc:title>
     </cc:Agent>
    </dc:creator>
   </cc:Work>
  </rdf:RDF>
 </metadata>
 <defs>
  <style type="text/css">*{stroke-linecap:butt;stroke-linejoin:round;}</style>
 </defs>
 <g id="figure_1">
  <g id="patch_1">
   <path d="M 0 576 
L 864 576 
L 864 0 
L 0 0 
z
" style="fill:#ffffff;"/>
  </g>
  <g id="axes_1">
   <g id="patch_2">
    <path d="M 108 504 
L 777.6 504 
L 777.6 69.12 
L 108 69.12 
z
" style="fill:#ffffff;"/>
   </g>
   <g id="PathCollection_1">
    <defs>
     <path d="M 0 4.511931 
C 1.196578 4.511931 2.344308 4.036525 3.190417 3.190417 
C 4.036525 2.344308 4.511931 1.196578 4.511931 0 
C 4.511931 -1.196578 4.036525 -2.344308 3.190417 -3.190417 
C 2.344308 -4.036525 1.196578 -4.511931 0 -4.511931 
C -1.196578 -4.511931 -2.344308 -4.036525 -3.190417 -3.190417 
C -4.036525 -2.344308 -4.511931 -1.196578 -4.511931 0 
C -4.511931 1.196578 -4.036525 2.344308 -3.190417 3.190417 
C -2.344308 4.036525 -1.196578 4.511931 0 4.511931 
z
" id="ma7e51f050e" style="stroke:#1f77b4;stroke-width:2.7;"/>
    </defs>
    <g clip-path="url(#p834f0c37bb)">
     <use style="fill:#1f77b4;stroke:#1f77b4;stroke-width:2.7;" x="303.858555" xlink:href="#ma7e51f050e" y="106.857521"/>
    </g>
   </g>
   <g id="PolyCollection_1">
    <path clip-path="url(#p834f0c37bb)" d="M 469.280747 466.262479 
L 469.280747 106.857521 
L 463.459406 106.857521 
L 457.638065 106.857521 
L 451.816724 106.857521 
L 445.995382 106.857521 
L 440.174041 106.857521 
L 434.3527 106.857521 
L 428.531359 106.857521 
L 422.710018 106.857521 
L 416.888677 106.857521 
L 416.888677 466.262479 
L 416.888677 466.262479 
L 422.710018 466.262479 
L 428.531359 466.262479 
L 434.3527 466.262479 
L 440.174041 466.262479 
L 445.995382 466.262479 
L 451.816724 466.262479 
L 457.638065 466.262479 
L 463.459406 466.262479 
L 469.280747 466.262479 
z
" style="fill:#ff0000;fill-opacity:0.4;"/>
   </g>
   <g id="line2d_1">
    <path clip-path="url(#p834f0c37bb)" d="M 303.858555 106.857521 
" style="fill:none;stroke:#1f77b4;stroke-linecap:square;stroke-width:3.6;"/>
   </g>
   <g id="line2d_2">
    <path clip-path="url(#p834f0c37bb)" d="M 138.436364 106.857521 
L 469.280747 106.857521 
" style="fill:none;stroke:#1f77b4;stroke-linecap:square;stroke-width:3.6;"/>
   </g>
   <g id="line2d_3">
    <path clip-path="url(#p834f0c37bb)" d="M 138.436364 88.887273 
L 138.436364 124.827769 
" style="fill:none;stroke:#1f77b4;stroke-linecap:square;stroke-width:3.6;"/>
   </g>
   <g id="line2d_4">
    <path clip-path="url(#p834f0c37bb)" d="M 469.280747 88.887273 
L 469.280747 124.827769 
" style="fill:none;stroke:#1f77b4;stroke-linecap:square;stroke-width:3.6;"/>
   </g>
   <g id="line2d_5">
    <path clip-path="url(#p834f0c37bb)" d="M 0 0 
" style="fill:none;stroke:#1f77b4;stroke-linecap:square;stroke-width:3.6;"/>
   </g>
   <g id="line2d_6">
    <path clip-path="url(#p834f0c37bb)" d="M 0 0 
" style="fill:none;stroke:#1f77b4;stroke-linecap:square;stroke-width:3.6;"/>
   </g>
   <g id="line2d_7">
    <path clip-path="url(#p834f0c37bb)" d="M 0 0 
" style="fill:none;stroke:#1f77b4;stroke-linecap:square;stroke-width:3.6;"/>
   </g>
   <g id="matplotlib.axis_1">
    <g id="xtick_1">
     <g id="line2d_8">
      <path clip-path="url(#p834f0c37bb)" d="M 149.377464 504 
L 149.377464 69.12 
" style="fill:none;stroke:#808080;stroke-dasharray:0.3,0.495;stroke-dashoffset:0;stroke-width:0.3;"/>
     </g>
     <g id="line2d_9">
      <defs>
       <path d="M 0 0 
L 0 3.5 
" id="m3189849cbf" style="stroke:#000000;stroke-width:0.8;"/>
      </defs>
      <g>
       <use style="stroke:#000000;stroke-width:0.8;" x="149.377464" xlink:href="#m3189849cbf" y="504"/>
      </g>
     </g>
     <g id="text_1">
      <!-- 8.0% -->
      <g transform="translate(134.134652 520.118125)scale(0.12 -0.12)">
       <defs>
        <path d="M 2034 2216 
Q 1584 2216 1326 1975 
Q 1069 1734 1069 1313 
Q 1069 891 1326 650 
Q 1584 409 2034 409 
Q 2484 409 2743 651 
Q 3003 894 3003 1313 
Q 3003 1734 2745 1975 
Q 2488 2216 2034 2216 
z
M 1403 2484 
Q 997 2584 770 2862 
Q 544 3141 544 3541 
Q 544 4100 942 4425 
Q 1341 4750 2034 4750 
Q 2731 4750 3128 4425 
Q 3525 4100 3525 3541 
Q 3525 3141 3298 2862 
Q 3072 2584 2669 2484 
Q 3125 2378 3379 2068 
Q 3634 1759 3634 1313 
Q 3634 634 3220 271 
Q 2806 -91 2034 -91 
Q 1263 -91 848 271 
Q 434 634 434 1313 
Q 434 1759 690 2068 
Q 947 2378 1403 2484 
z
M 1172 3481 
Q 1172 3119 1398 2916 
Q 1625 2713 2034 2713 
Q 2441 2713 2670 2916 
Q 2900 3119 2900 3481 
Q 2900 3844 2670 4047 
Q 2441 4250 2034 4250 
Q 1625 4250 1398 4047 
Q 1172 3844 1172 3481 
z
" id="DejaVuSans-38" transform="scale(0.015625)"/>
        <path d="M 684 794 
L 1344 794 
L 1344 0 
L 684 0 
L 684 794 
z
" id="DejaVuSans-2e" transform="scale(0.015625)"/>
        <path d="M 2034 4250 
Q 1547 4250 1301 3770 
Q 1056 3291 1056 2328 
Q 1056 1369 1301 889 
Q 1547 409 2034 409 
Q 2525 409 2770 889 
Q 3016 1369 3016 2328 
Q 3016 3291 2770 3770 
Q 2525 4250 2034 4250 
z
M 2034 4750 
Q 2819 4750 3233 4129 
Q 3647 3509 3647 2328 
Q 3647 1150 3233 529 
Q 2819 -91 2034 -91 
Q 1250 -91 836 529 
Q 422 1150 422 2328 
Q 422 3509 836 4129 
Q 1250 4750 2034 4750 
z
" id="DejaVuSans-30" transform="scale(0.015625)"/>
        <path d="M 4653 2053 
Q 4381 2053 4226 1822 
Q 4072 1591 4072 1178 
Q 4072 772 4226 539 
Q 4381 306 4653 306 
Q 4919 306 5073 539 
Q 5228 772 5228 1178 
Q 5228 1588 5073 1820 
Q 4919 2053 4653 2053 
z
M 4653 2450 
Q 5147 2450 5437 2106 
Q 5728 1763 5728 1178 
Q 5728 594 5436 251 
Q 5144 -91 4653 -91 
Q 4153 -91 3862 251 
Q 3572 594 3572 1178 
Q 3572 1766 3864 2108 
Q 4156 2450 4653 2450 
z
M 1428 4353 
Q 1159 4353 1004 4120 
Q 850 3888 850 3481 
Q 850 3069 1003 2837 
Q 1156 2606 1428 2606 
Q 1700 2606 1854 2837 
Q 2009 3069 2009 3481 
Q 2009 3884 1853 4118 
Q 1697 4353 1428 4353 
z
M 4250 4750 
L 4750 4750 
L 1831 -91 
L 1331 -91 
L 4250 4750 
z
M 1428 4750 
Q 1922 4750 2215 4408 
Q 2509 4066 2509 3481 
Q 2509 2891 2217 2550 
Q 1925 2209 1428 2209 
Q 931 2209 642 2551 
Q 353 2894 353 3481 
Q 353 4063 643 4406 
Q 934 4750 1428 4750 
z
" id="DejaVuSans-25" transform="scale(0.015625)"/>
       </defs>
       <use xlink:href="#DejaVuSans-38"/>
       <use x="63.623047" xlink:href="#DejaVuSans-2e"/>
       <use x="95.410156" xlink:href="#DejaVuSans-30"/>
       <use x="159.033203" xlink:href="#DejaVuSans-25"/>
      </g>
     </g>
    </g>
    <g id="xtick_2">
     <g id="line2d_10">
      <path clip-path="url(#p834f0c37bb)" d="M 247.986997 504 
L 247.986997 69.12 
" style="fill:none;stroke:#808080;stroke-dasharray:0.3,0.495;stroke-dashoffset:0;stroke-width:0.3;"/>
     </g>
     <g id="line2d_11">
      <g>
       <use style="stroke:#000000;stroke-width:0.8;" x="247.986997" xlink:href="#m3189849cbf" y="504"/>
      </g>
     </g>
     <g id="text_2">
      <!-- 8.2% -->
      <g transform="translate(232.744184 520.118125)scale(0.12 -0.12)">
       <defs>
        <path d="M 1228 531 
L 3431 531 
L 3431 0 
L 469 0 
L 469 531 
Q 828 903 1448 1529 
Q 2069 2156 2228 2338 
Q 2531 2678 2651 2914 
Q 2772 3150 2772 3378 
Q 2772 3750 2511 3984 
Q 2250 4219 1831 4219 
Q 1534 4219 1204 4116 
Q 875 4013 500 3803 
L 500 4441 
Q 881 4594 1212 4672 
Q 1544 4750 1819 4750 
Q 2544 4750 2975 4387 
Q 3406 4025 3406 3419 
Q 3406 3131 3298 2873 
Q 3191 2616 2906 2266 
Q 2828 2175 2409 1742 
Q 1991 1309 1228 531 
z
" id="DejaVuSans-32" transform="scale(0.015625)"/>
       </defs>
       <use xlink:href="#DejaVuSans-38"/>
       <use x="63.623047" xlink:href="#DejaVuSans-2e"/>
       <use x="95.410156" xlink:href="#DejaVuSans-32"/>
       <use x="159.033203" xlink:href="#DejaVuSans-25"/>
      </g>
     </g>
    </g>
    <g id="xtick_3">
     <g id="line2d_12">
      <path clip-path="url(#p834f0c37bb)" d="M 346.596529 504 
L 346.596529 69.12 
" style="fill:none;stroke:#808080;stroke-dasharray:0.3,0.495;stroke-dashoffset:0;stroke-width:0.3;"/>
     </g>
     <g id="line2d_13">
      <g>
       <use style="stroke:#000000;stroke-width:0.8;" x="346.596529" xlink:href="#m3189849cbf" y="504"/>
      </g>
     </g>
     <g id="text_3">
      <!-- 8.4% -->
      <g transform="translate(331.353717 520.118125)scale(0.12 -0.12)">
       <defs>
        <path d="M 2419 4116 
L 825 1625 
L 2419 1625 
L 2419 4116 
z
M 2253 4666 
L 3047 4666 
L 3047 1625 
L 3713 1625 
L 3713 1100 
L 3047 1100 
L 3047 0 
L 2419 0 
L 2419 1100 
L 313 1100 
L 313 1709 
L 2253 4666 
z
" id="DejaVuSans-34" transform="scale(0.015625)"/>
       </defs>
       <use xlink:href="#DejaVuSans-38"/>
       <use x="63.623047" xlink:href="#DejaVuSans-2e"/>
       <use x="95.410156" xlink:href="#DejaVuSans-34"/>
       <use x="159.033203" xlink:href="#DejaVuSans-25"/>
      </g>
     </g>
    </g>
    <g id="xtick_4">
     <g id="line2d_14">
      <path clip-path="url(#p834f0c37bb)" d="M 445.206062 504 
L 445.206062 69.12 
" style="fill:none;stroke:#808080;stroke-dasharray:0.3,0.495;stroke-dashoffset:0;stroke-width:0.3;"/>
     </g>
     <g id="line2d_15">
      <g>
       <use style="stroke:#000000;stroke-width:0.8;" x="445.206062" xlink:href="#m3189849cbf" y="504"/>
      </g>
     </g>
     <g id="text_4">
      <!-- 8.6% -->
      <g transform="translate(429.96325 520.118125)scale(0.12 -0.12)">
       <defs>
        <path d="M 2113 2584 
Q 1688 2584 1439 2293 
Q 1191 2003 1191 1497 
Q 1191 994 1439 701 
Q 1688 409 2113 409 
Q 2538 409 2786 701 
Q 3034 994 3034 1497 
Q 3034 2003 2786 2293 
Q 2538 2584 2113 2584 
z
M 3366 4563 
L 3366 3988 
Q 3128 4100 2886 4159 
Q 2644 4219 2406 4219 
Q 1781 4219 1451 3797 
Q 1122 3375 1075 2522 
Q 1259 2794 1537 2939 
Q 1816 3084 2150 3084 
Q 2853 3084 3261 2657 
Q 3669 2231 3669 1497 
Q 3669 778 3244 343 
Q 2819 -91 2113 -91 
Q 1303 -91 875 529 
Q 447 1150 447 2328 
Q 447 3434 972 4092 
Q 1497 4750 2381 4750 
Q 2619 4750 2861 4703 
Q 3103 4656 3366 4563 
z
" id="DejaVuSans-36" transform="scale(0.015625)"/>
       </defs>
       <use xlink:href="#DejaVuSans-38"/>
       <use x="63.623047" xlink:href="#DejaVuSans-2e"/>
       <use x="95.410156" xlink:href="#DejaVuSans-36"/>
       <use x="159.033203" xlink:href="#DejaVuSans-25"/>
      </g>
     </g>
    </g>
    <g id="xtick_5">
     <g id="line2d_16">
      <path clip-path="url(#p834f0c37bb)" d="M 543.815595 504 
L 543.815595 69.12 
" style="fill:none;stroke:#808080;stroke-dasharray:0.3,0.495;stroke-dashoffset:0;stroke-width:0.3;"/>
     </g>
     <g id="line2d_17">
      <g>
       <use style="stroke:#000000;stroke-width:0.8;" x="543.815595" xlink:href="#m3189849cbf" y="504"/>
      </g>
     </g>
     <g id="text_5">
      <!-- 8.8% -->
      <g transform="translate(528.572782 520.118125)scale(0.12 -0.12)">
       <use xlink:href="#DejaVuSans-38"/>
       <use x="63.623047" xlink:href="#DejaVuSans-2e"/>
       <use x="95.410156" xlink:href="#DejaVuSans-38"/>
       <use x="159.033203" xlink:href="#DejaVuSans-25"/>
      </g>
     </g>
    </g>
    <g id="xtick_6">
     <g id="line2d_18">
      <path clip-path="url(#p834f0c37bb)" d="M 642.425127 504 
L 642.425127 69.12 
" style="fill:none;stroke:#808080;stroke-dasharray:0.3,0.495;stroke-dashoffset:0;stroke-width:0.3;"/>
     </g>
     <g id="line2d_19">
      <g>
       <use style="stroke:#000000;stroke-width:0.8;" x="642.425127" xlink:href="#m3189849cbf" y="504"/>
      </g>
     </g>
     <g id="text_6">
      <!-- 9.0% -->
      <g transform="translate(627.182315 520.118125)scale(0.12 -0.12)">
       <defs>
        <path d="M 703 97 
L 703 672 
Q 941 559 1184 500 
Q 1428 441 1663 441 
Q 2288 441 2617 861 
Q 2947 1281 2994 2138 
Q 2813 1869 2534 1725 
Q 2256 1581 1919 1581 
Q 1219 1581 811 2004 
Q 403 2428 403 3163 
Q 403 3881 828 4315 
Q 1253 4750 1959 4750 
Q 2769 4750 3195 4129 
Q 3622 3509 3622 2328 
Q 3622 1225 3098 567 
Q 2575 -91 1691 -91 
Q 1453 -91 1209 -44 
Q 966 3 703 97 
z
M 1959 2075 
Q 2384 2075 2632 2365 
Q 2881 2656 2881 3163 
Q 2881 3666 2632 3958 
Q 2384 4250 1959 4250 
Q 1534 4250 1286 3958 
Q 1038 3666 1038 3163 
Q 1038 2656 1286 2365 
Q 1534 2075 1959 2075 
z
" id="DejaVuSans-39" transform="scale(0.015625)"/>
       </defs>
       <use xlink:href="#DejaVuSans-39"/>
       <use x="63.623047" xlink:href="#DejaVuSans-2e"/>
       <use x="95.410156" xlink:href="#DejaVuSans-30"/>
       <use x="159.033203" xlink:href="#DejaVuSans-25"/>
      </g>
     </g>
    </g>
    <g id="xtick_7">
     <g id="line2d_20">
      <path clip-path="url(#p834f0c37bb)" d="M 741.03466 504 
L 741.03466 69.12 
" style="fill:none;stroke:#808080;stroke-dasharray:0.3,0.495;stroke-dashoffset:0;stroke-width:0.3;"/>
     </g>
     <g id="line2d_21">
      <g>
       <use style="stroke:#000000;stroke-width:0.8;" x="741.03466" xlink:href="#m3189849cbf" y="504"/>
      </g>
     </g>
     <g id="text_7">
      <!-- 9.2% -->
      <g transform="translate(725.791847 520.118125)scale(0.12 -0.12)">
       <use xlink:href="#DejaVuSans-39"/>
       <use x="63.623047" xlink:href="#DejaVuSans-2e"/>
       <use x="95.410156" xlink:href="#DejaVuSans-32"/>
       <use x="159.033203" xlink:href="#DejaVuSans-25"/>
      </g>
     </g>
    </g>
    <g id="text_8">
     <!-- Base metric -->
     <g transform="translate(395.015 538.77125)scale(0.16 -0.16)">
      <defs>
       <path d="M 1259 2228 
L 1259 519 
L 2272 519 
Q 2781 519 3026 730 
Q 3272 941 3272 1375 
Q 3272 1813 3026 2020 
Q 2781 2228 2272 2228 
L 1259 2228 
z
M 1259 4147 
L 1259 2741 
L 2194 2741 
Q 2656 2741 2882 2914 
Q 3109 3088 3109 3444 
Q 3109 3797 2882 3972 
Q 2656 4147 2194 4147 
L 1259 4147 
z
M 628 4666 
L 2241 4666 
Q 2963 4666 3353 4366 
Q 3744 4066 3744 3513 
Q 3744 3084 3544 2831 
Q 3344 2578 2956 2516 
Q 3422 2416 3680 2098 
Q 3938 1781 3938 1306 
Q 3938 681 3513 340 
Q 3088 0 2303 0 
L 628 0 
L 628 4666 
z
" id="DejaVuSans-42" transform="scale(0.015625)"/>
       <path d="M 2194 1759 
Q 1497 1759 1228 1600 
Q 959 1441 959 1056 
Q 959 750 1161 570 
Q 1363 391 1709 391 
Q 2188 391 2477 730 
Q 2766 1069 2766 1631 
L 2766 1759 
L 2194 1759 
z
M 3341 1997 
L 3341 0 
L 2766 0 
L 2766 531 
Q 2569 213 2275 61 
Q 1981 -91 1556 -91 
Q 1019 -91 701 211 
Q 384 513 384 1019 
Q 384 1609 779 1909 
Q 1175 2209 1959 2209 
L 2766 2209 
L 2766 2266 
Q 2766 2663 2505 2880 
Q 2244 3097 1772 3097 
Q 1472 3097 1187 3025 
Q 903 2953 641 2809 
L 641 3341 
Q 956 3463 1253 3523 
Q 1550 3584 1831 3584 
Q 2591 3584 2966 3190 
Q 3341 2797 3341 1997 
z
" id="DejaVuSans-61" transform="scale(0.015625)"/>
       <path d="M 2834 3397 
L 2834 2853 
Q 2591 2978 2328 3040 
Q 2066 3103 1784 3103 
Q 1356 3103 1142 2972 
Q 928 2841 928 2578 
Q 928 2378 1081 2264 
Q 1234 2150 1697 2047 
L 1894 2003 
Q 2506 1872 2764 1633 
Q 3022 1394 3022 966 
Q 3022 478 2636 193 
Q 2250 -91 1575 -91 
Q 1294 -91 989 -36 
Q 684 19 347 128 
L 347 722 
Q 666 556 975 473 
Q 1284 391 1588 391 
Q 1994 391 2212 530 
Q 2431 669 2431 922 
Q 2431 1156 2273 1281 
Q 2116 1406 1581 1522 
L 1381 1569 
Q 847 1681 609 1914 
Q 372 2147 372 2553 
Q 372 3047 722 3315 
Q 1072 3584 1716 3584 
Q 2034 3584 2315 3537 
Q 2597 3491 2834 3397 
z
" id="DejaVuSans-73" transform="scale(0.015625)"/>
       <path d="M 3597 1894 
L 3597 1613 
L 953 1613 
Q 991 1019 1311 708 
Q 1631 397 2203 397 
Q 2534 397 2845 478 
Q 3156 559 3463 722 
L 3463 178 
Q 3153 47 2828 -22 
Q 2503 -91 2169 -91 
Q 1331 -91 842 396 
Q 353 884 353 1716 
Q 353 2575 817 3079 
Q 1281 3584 2069 3584 
Q 2775 3584 3186 3129 
Q 3597 2675 3597 1894 
z
M 3022 2063 
Q 3016 2534 2758 2815 
Q 2500 3097 2075 3097 
Q 1594 3097 1305 2825 
Q 1016 2553 972 2059 
L 3022 2063 
z
" id="DejaVuSans-65" transform="scale(0.015625)"/>
       <path id="DejaVuSans-20" transform="scale(0.015625)"/>
       <path d="M 3328 2828 
Q 3544 3216 3844 3400 
Q 4144 3584 4550 3584 
Q 5097 3584 5394 3201 
Q 5691 2819 5691 2113 
L 5691 0 
L 5113 0 
L 5113 2094 
Q 5113 2597 4934 2840 
Q 4756 3084 4391 3084 
Q 3944 3084 3684 2787 
Q 3425 2491 3425 1978 
L 3425 0 
L 2847 0 
L 2847 2094 
Q 2847 2600 2669 2842 
Q 2491 3084 2119 3084 
Q 1678 3084 1418 2786 
Q 1159 2488 1159 1978 
L 1159 0 
L 581 0 
L 581 3500 
L 1159 3500 
L 1159 2956 
Q 1356 3278 1631 3431 
Q 1906 3584 2284 3584 
Q 2666 3584 2933 3390 
Q 3200 3197 3328 2828 
z
" id="DejaVuSans-6d" transform="scale(0.015625)"/>
       <path d="M 1172 4494 
L 1172 3500 
L 2356 3500 
L 2356 3053 
L 1172 3053 
L 1172 1153 
Q 1172 725 1289 603 
Q 1406 481 1766 481 
L 2356 481 
L 2356 0 
L 1766 0 
Q 1100 0 847 248 
Q 594 497 594 1153 
L 594 3053 
L 172 3053 
L 172 3500 
L 594 3500 
L 594 4494 
L 1172 4494 
z
" id="DejaVuSans-74" transform="scale(0.015625)"/>
       <path d="M 2631 2963 
Q 2534 3019 2420 3045 
Q 2306 3072 2169 3072 
Q 1681 3072 1420 2755 
Q 1159 2438 1159 1844 
L 1159 0 
L 581 0 
L 581 3500 
L 1159 3500 
L 1159 2956 
Q 1341 3275 1631 3429 
Q 1922 3584 2338 3584 
Q 2397 3584 2469 3576 
Q 2541 3569 2628 3553 
L 2631 2963 
z
" id="DejaVuSans-72" transform="scale(0.015625)"/>
       <path d="M 603 3500 
L 1178 3500 
L 1178 0 
L 603 0 
L 603 3500 
z
M 603 4863 
L 1178 4863 
L 1178 4134 
L 603 4134 
L 603 4863 
z
" id="DejaVuSans-69" transform="scale(0.015625)"/>
       <path d="M 3122 3366 
L 3122 2828 
Q 2878 2963 2633 3030 
Q 2388 3097 2138 3097 
Q 1578 3097 1268 2742 
Q 959 2388 959 1747 
Q 959 1106 1268 751 
Q 1578 397 2138 397 
Q 2388 397 2633 464 
Q 2878 531 3122 666 
L 3122 134 
Q 2881 22 2623 -34 
Q 2366 -91 2075 -91 
Q 1284 -91 818 406 
Q 353 903 353 1747 
Q 353 2603 823 3093 
Q 1294 3584 2113 3584 
Q 2378 3584 2631 3529 
Q 2884 3475 3122 3366 
z
" id="DejaVuSans-63" transform="scale(0.015625)"/>
      </defs>
      <use xlink:href="#DejaVuSans-42"/>
      <use x="68.603516" xlink:href="#DejaVuSans-61"/>
      <use x="129.882812" xlink:href="#DejaVuSans-73"/>
      <use x="181.982422" xlink:href="#DejaVuSans-65"/>
      <use x="243.505859" xlink:href="#DejaVuSans-20"/>
      <use x="275.292969" xlink:href="#DejaVuSans-6d"/>
      <use x="372.705078" xlink:href="#DejaVuSans-65"/>
      <use x="434.228516" xlink:href="#DejaVuSans-74"/>
      <use x="473.4375" xlink:href="#DejaVuSans-72"/>
      <use x="514.550781" xlink:href="#DejaVuSans-69"/>
      <use x="542.333984" xlink:href="#DejaVuSans-63"/>
     </g>
    </g>
   </g>
   <g id="matplotlib.axis_2">
    <g id="ytick_1">
     <g id="line2d_22">
      <defs>
       <path d="M 0 0 
L -3.5 0 
" id="m87bb99df0f" style="stroke:#000000;stroke-width:0.8;"/>
      </defs>
      <g>
       <use style="stroke:#000000;stroke-width:0.8;" x="108" xlink:href="#m87bb99df0f" y="106.857521"/>
      </g>
     </g>
     <g id="text_9">
      <!-- A -->
      <g transform="translate(92.79125 111.416583)scale(0.12 -0.12)">
       <defs>
        <path d="M 2188 4044 
L 1331 1722 
L 3047 1722 
L 2188 4044 
z
M 1831 4666 
L 2547 4666 
L 4325 0 
L 3669 0 
L 3244 1197 
L 1141 1197 
L 716 0 
L 50 0 
L 1831 4666 
z
" id="DejaVuSans-41" transform="scale(0.015625)"/>
       </defs>
       <use xlink:href="#DejaVuSans-41"/>
      </g>
     </g>
    </g>
    <g id="ytick_2">
     <g id="line2d_23">
      <g>
       <use style="stroke:#000000;stroke-width:0.8;" x="108" xlink:href="#m87bb99df0f" y="466.262479"/>
      </g>
     </g>
     <g id="text_10">
      <!-- B -->
      <g transform="translate(92.766875 470.821542)scale(0.12 -0.12)">
       <use xlink:href="#DejaVuSans-42"/>
      </g>
     </g>
    </g>
    <g id="text_11">
     <!-- Variant -->
     <g transform="translate(85.439375 314.935)rotate(-90)scale(0.16 -0.16)">
      <defs>
       <path d="M 1831 0 
L 50 4666 
L 709 4666 
L 2188 738 
L 3669 4666 
L 4325 4666 
L 2547 0 
L 1831 0 
z
" id="DejaVuSans-56" transform="scale(0.015625)"/>
       <path d="M 3513 2113 
L 3513 0 
L 2938 0 
L 2938 2094 
Q 2938 2591 2744 2837 
Q 2550 3084 2163 3084 
Q 1697 3084 1428 2787 
Q 1159 2491 1159 1978 
L 1159 0 
L 581 0 
L 581 3500 
L 1159 3500 
L 1159 2956 
Q 1366 3272 1645 3428 
Q 1925 3584 2291 3584 
Q 2894 3584 3203 3211 
Q 3513 2838 3513 2113 
z
" id="DejaVuSans-6e" transform="scale(0.015625)"/>
      </defs>
      <use xlink:href="#DejaVuSans-56"/>
      <use x="60.658203" xlink:href="#DejaVuSans-61"/>
      <use x="121.9375" xlink:href="#DejaVuSans-72"/>
      <use x="163.050781" xlink:href="#DejaVuSans-69"/>
      <use x="190.833984" xlink:href="#DejaVuSans-61"/>
      <use x="252.113281" xlink:href="#DejaVuSans-6e"/>
      <use x="315.492188" xlink:href="#DejaVuSans-74"/>
     </g>
    </g>
   </g>
   <g id="PathCollection_2">
    <defs>
     <path d="M 0 4.511931 
C 1.196578 4.511931 2.344308 4.036525 3.190417 3.190417 
C 4.036525 2.344308 4.511931 1.196578 4.511931 0 
C 4.511931 -1.196578 4.036525 -2.344308 3.190417 -3.190417 
C 2.344308 -4.036525 1.196578 -4.511931 0 -4.511931 
C -1.196578 -4.511931 -2.344308 -4.036525 -3.190417 -3.190417 
C -4.036525 -2.344308 -4.511931 -1.196578 -4.511931 0 
C -4.511931 1.196578 -4.036525 2.344308 -3.190417 3.190417 
C -2.344308 4.036525 -1.196578 4.511931 0 4.511931 
z
" id="m17d652eec6" style="stroke:#ff7f0e;stroke-width:2.7;"/>
    </defs>
    <g clip-path="url(#p834f0c37bb)">
     <use style="fill:#ff7f0e;stroke:#ff7f0e;stroke-width:2.7;" x="582.026157" xlink:href="#m17d652eec6" y="466.262479"/>
    </g>
   </g>
   <g id="line2d_24">
    <path clip-path="url(#p834f0c37bb)" d="M 582.026157 466.262479 
" style="fill:none;stroke:#ff7f0e;stroke-linecap:square;stroke-width:3.6;"/>
   </g>
   <g id="line2d_25">
    <path clip-path="url(#p834f0c37bb)" d="M 0 0 
" style="fill:none;stroke:#ff7f0e;stroke-linecap:square;stroke-width:3.6;"/>
   </g>
   <g id="line2d_26">
    <path clip-path="url(#p834f0c37bb)" d="M 0 0 
" style="fill:none;stroke:#ff7f0e;stroke-linecap:square;stroke-width:3.6;"/>
   </g>
   <g id="line2d_27">
    <path clip-path="url(#p834f0c37bb)" d="M 0 0 
" style="fill:none;stroke:#ff7f0e;stroke-linecap:square;stroke-width:3.6;"/>
   </g>
   <g id="line2d_28">
    <path clip-path="url(#p834f0c37bb)" d="M 416.888677 466.262479 
L 747.163636 466.262479 
" style="fill:none;stroke:#ff7f0e;stroke-linecap:square;stroke-width:3.6;"/>
   </g>
   <g id="line2d_29">
    <path clip-path="url(#p834f0c37bb)" d="M 416.888677 448.292231 
L 416.888677 484.232727 
" style="fill:none;stroke:#ff7f0e;stroke-linecap:square;stroke-width:3.6;"/>
   </g>
   <g id="line2d_30">
    <path clip-path="url(#p834f0c37bb)" d="M 747.163636 448.292231 
L 747.163636 484.232727 
" style="fill:none;stroke:#ff7f0e;stroke-linecap:square;stroke-width:3.6;"/>
   </g>
   <g id="patch_3">
    <path d="M 108 504 
L 108 69.12 
" style="fill:none;stroke:#d3d3d3;stroke-linecap:square;stroke-linejoin:miter;stroke-width:0.8;"/>
   </g>
   <g id="patch_4">
    <path d="M 777.6 504 
L 777.6 69.12 
" style="fill:none;stroke:#d3d3d3;stroke-linecap:square;stroke-linejoin:miter;stroke-width:0.8;"/>
   </g>
   <g id="patch_5">
    <path d="M 108 504 
L 777.6 504 
" style="fill:none;stroke:#d3d3d3;stroke-linecap:square;stroke-linejoin:miter;stroke-width:0.8;"/>
   </g>
   <g id="patch_6">
    <path d="M 108 69.12 
L 777.6 69.12 
" style="fill:none;stroke:#d3d3d3;stroke-linecap:square;stroke-linejoin:miter;stroke-width:0.8;"/>
   </g>
   <g id="text_12">
    <!-- The two confidence intervals overlap, there might not be a significative difference -->
    <g transform="translate(146.401875 63.12)scale(0.144 -0.144)">
     <defs>
      <path d="M -19 4666 
L 3928 4666 
L 3928 4134 
L 2272 4134 
L 2272 0 
L 1638 0 
L 1638 4134 
L -19 4134 
L -19 4666 
z
" id="DejaVuSans-54" transform="scale(0.015625)"/>
      <path d="M 3513 2113 
L 3513 0 
L 2938 0 
L 2938 2094 
Q 2938 2591 2744 2837 
Q 2550 3084 2163 3084 
Q 1697 3084 1428 2787 
Q 1159 2491 1159 1978 
L 1159 0 
L 581 0 
L 581 4863 
L 1159 4863 
L 1159 2956 
Q 1366 3272 1645 3428 
Q 1925 3584 2291 3584 
Q 2894 3584 3203 3211 
Q 3513 2838 3513 2113 
z
" id="DejaVuSans-68" transform="scale(0.015625)"/>
      <path d="M 269 3500 
L 844 3500 
L 1563 769 
L 2278 3500 
L 2956 3500 
L 3675 769 
L 4391 3500 
L 4966 3500 
L 4050 0 
L 3372 0 
L 2619 2869 
L 1863 0 
L 1184 0 
L 269 3500 
z
" id="DejaVuSans-77" transform="scale(0.015625)"/>
      <path d="M 1959 3097 
Q 1497 3097 1228 2736 
Q 959 2375 959 1747 
Q 959 1119 1226 758 
Q 1494 397 1959 397 
Q 2419 397 2687 759 
Q 2956 1122 2956 1747 
Q 2956 2369 2687 2733 
Q 2419 3097 1959 3097 
z
M 1959 3584 
Q 2709 3584 3137 3096 
Q 3566 2609 3566 1747 
Q 3566 888 3137 398 
Q 2709 -91 1959 -91 
Q 1206 -91 779 398 
Q 353 888 353 1747 
Q 353 2609 779 3096 
Q 1206 3584 1959 3584 
z
" id="DejaVuSans-6f" transform="scale(0.015625)"/>
      <path d="M 2375 4863 
L 2375 4384 
L 1825 4384 
Q 1516 4384 1395 4259 
Q 1275 4134 1275 3809 
L 1275 3500 
L 2222 3500 
L 2222 3053 
L 1275 3053 
L 1275 0 
L 697 0 
L 697 3053 
L 147 3053 
L 147 3500 
L 697 3500 
L 697 3744 
Q 697 4328 969 4595 
Q 1241 4863 1831 4863 
L 2375 4863 
z
" id="DejaVuSans-66" transform="scale(0.015625)"/>
      <path d="M 2906 2969 
L 2906 4863 
L 3481 4863 
L 3481 0 
L 2906 0 
L 2906 525 
Q 2725 213 2448 61 
Q 2172 -91 1784 -91 
Q 1150 -91 751 415 
Q 353 922 353 1747 
Q 353 2572 751 3078 
Q 1150 3584 1784 3584 
Q 2172 3584 2448 3432 
Q 2725 3281 2906 2969 
z
M 947 1747 
Q 947 1113 1208 752 
Q 1469 391 1925 391 
Q 2381 391 2643 752 
Q 2906 1113 2906 1747 
Q 2906 2381 2643 2742 
Q 2381 3103 1925 3103 
Q 1469 3103 1208 2742 
Q 947 2381 947 1747 
z
" id="DejaVuSans-64" transform="scale(0.015625)"/>
      <path d="M 191 3500 
L 800 3500 
L 1894 563 
L 2988 3500 
L 3597 3500 
L 2284 0 
L 1503 0 
L 191 3500 
z
" id="DejaVuSans-76" transform="scale(0.015625)"/>
      <path d="M 603 4863 
L 1178 4863 
L 1178 0 
L 603 0 
L 603 4863 
z
" id="DejaVuSans-6c" transform="scale(0.015625)"/>
      <path d="M 1159 525 
L 1159 -1331 
L 581 -1331 
L 581 3500 
L 1159 3500 
L 1159 2969 
Q 1341 3281 1617 3432 
Q 1894 3584 2278 3584 
Q 2916 3584 3314 3078 
Q 3713 2572 3713 1747 
Q 3713 922 3314 415 
Q 2916 -91 2278 -91 
Q 1894 -91 1617 61 
Q 1341 213 1159 525 
z
M 3116 1747 
Q 3116 2381 2855 2742 
Q 2594 3103 2138 3103 
Q 1681 3103 1420 2742 
Q 1159 2381 1159 1747 
Q 1159 1113 1420 752 
Q 1681 391 2138 391 
Q 2594 391 2855 752 
Q 3116 1113 3116 1747 
z
" id="DejaVuSans-70" transform="scale(0.015625)"/>
      <path d="M 750 794 
L 1409 794 
L 1409 256 
L 897 -744 
L 494 -744 
L 750 256 
L 750 794 
z
" id="DejaVuSans-2c" transform="scale(0.015625)"/>
      <path d="M 2906 1791 
Q 2906 2416 2648 2759 
Q 2391 3103 1925 3103 
Q 1463 3103 1205 2759 
Q 947 2416 947 1791 
Q 947 1169 1205 825 
Q 1463 481 1925 481 
Q 2391 481 2648 825 
Q 2906 1169 2906 1791 
z
M 3481 434 
Q 3481 -459 3084 -895 
Q 2688 -1331 1869 -1331 
Q 1566 -1331 1297 -1286 
Q 1028 -1241 775 -1147 
L 775 -588 
Q 1028 -725 1275 -790 
Q 1522 -856 1778 -856 
Q 2344 -856 2625 -561 
Q 2906 -266 2906 331 
L 2906 616 
Q 2728 306 2450 153 
Q 2172 0 1784 0 
Q 1141 0 747 490 
Q 353 981 353 1791 
Q 353 2603 747 3093 
Q 1141 3584 1784 3584 
Q 2172 3584 2450 3431 
Q 2728 3278 2906 2969 
L 2906 3500 
L 3481 3500 
L 3481 434 
z
" id="DejaVuSans-67" transform="scale(0.015625)"/>
      <path d="M 3116 1747 
Q 3116 2381 2855 2742 
Q 2594 3103 2138 3103 
Q 1681 3103 1420 2742 
Q 1159 2381 1159 1747 
Q 1159 1113 1420 752 
Q 1681 391 2138 391 
Q 2594 391 2855 752 
Q 3116 1113 3116 1747 
z
M 1159 2969 
Q 1341 3281 1617 3432 
Q 1894 3584 2278 3584 
Q 2916 3584 3314 3078 
Q 3713 2572 3713 1747 
Q 3713 922 3314 415 
Q 2916 -91 2278 -91 
Q 1894 -91 1617 61 
Q 1341 213 1159 525 
L 1159 0 
L 581 0 
L 581 4863 
L 1159 4863 
L 1159 2969 
z
" id="DejaVuSans-62" transform="scale(0.015625)"/>
     </defs>
     <use xlink:href="#DejaVuSans-54"/>
     <use x="61.083984" xlink:href="#DejaVuSans-68"/>
     <use x="124.462891" xlink:href="#DejaVuSans-65"/>
     <use x="185.986328" xlink:href="#DejaVuSans-20"/>
     <use x="217.773438" xlink:href="#DejaVuSans-74"/>
     <use x="256.982422" xlink:href="#DejaVuSans-77"/>
     <use x="338.769531" xlink:href="#DejaVuSans-6f"/>
     <use x="399.951172" xlink:href="#DejaVuSans-20"/>
     <use x="431.738281" xlink:href="#DejaVuSans-63"/>
     <use x="486.71875" xlink:href="#DejaVuSans-6f"/>
     <use x="547.900391" xlink:href="#DejaVuSans-6e"/>
     <use x="611.279297" xlink:href="#DejaVuSans-66"/>
     <use x="646.484375" xlink:href="#DejaVuSans-69"/>
     <use x="674.267578" xlink:href="#DejaVuSans-64"/>
     <use x="737.744141" xlink:href="#DejaVuSans-65"/>
     <use x="799.267578" xlink:href="#DejaVuSans-6e"/>
     <use x="862.646484" xlink:href="#DejaVuSans-63"/>
     <use x="917.626953" xlink:href="#DejaVuSans-65"/>
     <use x="979.150391" xlink:href="#DejaVuSans-20"/>
     <use x="1010.9375" xlink:href="#DejaVuSans-69"/>
     <use x="1038.720703" xlink:href="#DejaVuSans-6e"/>
     <use x="1102.099609" xlink:href="#DejaVuSans-74"/>
     <use x="1141.308594" xlink:href="#DejaVuSans-65"/>
     <use x="1202.832031" xlink:href="#DejaVuSans-72"/>
     <use x="1243.945312" xlink:href="#DejaVuSans-76"/>
     <use x="1303.125" xlink:href="#DejaVuSans-61"/>
     <use x="1364.404297" xlink:href="#DejaVuSans-6c"/>
     <use x="1392.1875" xlink:href="#DejaVuSans-73"/>
     <use x="1444.287109" xlink:href="#DejaVuSans-20"/>
     <use x="1476.074219" xlink:href="#DejaVuSans-6f"/>
     <use x="1537.255859" xlink:href="#DejaVuSans-76"/>
     <use x="1596.435547" xlink:href="#DejaVuSans-65"/>
     <use x="1657.958984" xlink:href="#DejaVuSans-72"/>
     <use x="1699.072266" xlink:href="#DejaVuSans-6c"/>
     <use x="1726.855469" xlink:href="#DejaVuSans-61"/>
     <use x="1788.134766" xlink:href="#DejaVuSans-70"/>
     <use x="1851.611328" xlink:href="#DejaVuSans-2c"/>
     <use x="1883.398438" xlink:href="#DejaVuSans-20"/>
     <use x="1915.185547" xlink:href="#DejaVuSans-74"/>
     <use x="1954.394531" xlink:href="#DejaVuSans-68"/>
     <use x="2017.773438" xlink:href="#DejaVuSans-65"/>
     <use x="2079.296875" xlink:href="#DejaVuSans-72"/>
     <use x="2118.160156" xlink:href="#DejaVuSans-65"/>
     <use x="2179.683594" xlink:href="#DejaVuSans-20"/>
     <use x="2211.470703" xlink:href="#DejaVuSans-6d"/>
     <use x="2308.882812" xlink:href="#DejaVuSans-69"/>
     <use x="2336.666016" xlink:href="#DejaVuSans-67"/>
     <use x="2400.142578" xlink:href="#DejaVuSans-68"/>
     <use x="2463.521484" xlink:href="#DejaVuSans-74"/>
     <use x="2502.730469" xlink:href="#DejaVuSans-20"/>
     <use x="2534.517578" xlink:href="#DejaVuSans-6e"/>
     <use x="2597.896484" xlink:href="#DejaVuSans-6f"/>
     <use x="2659.078125" xlink:href="#DejaVuSans-74"/>
     <use x="2698.287109" xlink:href="#DejaVuSans-20"/>
     <use x="2730.074219" xlink:href="#DejaVuSans-62"/>
     <use x="2793.550781" xlink:href="#DejaVuSans-65"/>
     <use x="2855.074219" xlink:href="#DejaVuSans-20"/>
     <use x="2886.861328" xlink:href="#DejaVuSans-61"/>
     <use x="2948.140625" xlink:href="#DejaVuSans-20"/>
     <use x="2979.927734" xlink:href="#DejaVuSans-73"/>
     <use x="3032.027344" xlink:href="#DejaVuSans-69"/>
     <use x="3059.810547" xlink:href="#DejaVuSans-67"/>
     <use x="3123.287109" xlink:href="#DejaVuSans-6e"/>
     <use x="3186.666016" xlink:href="#DejaVuSans-69"/>
     <use x="3214.449219" xlink:href="#DejaVuSans-66"/>
     <use x="3249.654297" xlink:href="#DejaVuSans-69"/>
     <use x="3277.4375" xlink:href="#DejaVuSans-63"/>
     <use x="3332.417969" xlink:href="#DejaVuSans-61"/>
     <use x="3393.697266" xlink:href="#DejaVuSans-74"/>
     <use x="3432.90625" xlink:href="#DejaVuSans-69"/>
     <use x="3460.689453" xlink:href="#DejaVuSans-76"/>
     <use x="3519.869141" xlink:href="#DejaVuSans-65"/>
     <use x="3581.392578" xlink:href="#DejaVuSans-20"/>
     <use x="3613.179688" xlink:href="#DejaVuSans-64"/>
     <use x="3676.65625" xlink:href="#DejaVuSans-69"/>
     <use x="3704.439453" xlink:href="#DejaVuSans-66"/>
     <use x="3739.644531" xlink:href="#DejaVuSans-66"/>
     <use x="3774.849609" xlink:href="#DejaVuSans-65"/>
     <use x="3836.373047" xlink:href="#DejaVuSans-72"/>
     <use x="3875.236328" xlink:href="#DejaVuSans-65"/>
     <use x="3936.759766" xlink:href="#DejaVuSans-6e"/>
     <use x="4000.138672" xlink:href="#DejaVuSans-63"/>
     <use x="4055.119141" xlink:href="#DejaVuSans-65"/>
    </g>
   </g>
   <g id="legend_1">
    <g id="patch_7">
     <path d="M 722.01375 131.56125 
L 769.2 131.56125 
Q 771.6 131.56125 771.6 129.16125 
L 771.6 77.52 
Q 771.6 75.12 769.2 75.12 
L 722.01375 75.12 
Q 719.61375 75.12 719.61375 77.52 
L 719.61375 129.16125 
Q 719.61375 131.56125 722.01375 131.56125 
z
" style="fill:#ffffff;opacity:0.8;stroke:#cccccc;stroke-linejoin:miter;"/>
    </g>
    <g id="text_13">
     <!-- variant -->
     <g transform="translate(724.41375 89.038125)scale(0.12 -0.12)">
      <use xlink:href="#DejaVuSans-76"/>
      <use x="59.179688" xlink:href="#DejaVuSans-61"/>
      <use x="120.458984" xlink:href="#DejaVuSans-72"/>
      <use x="161.572266" xlink:href="#DejaVuSans-69"/>
      <use x="189.355469" xlink:href="#DejaVuSans-61"/>
      <use x="250.634766" xlink:href="#DejaVuSans-6e"/>
      <use x="314.013672" xlink:href="#DejaVuSans-74"/>
     </g>
    </g>
    <g id="PathCollection_3">
     <g>
      <use style="fill:#1f77b4;stroke:#1f77b4;stroke-width:2.7;" x="736.690312" xlink:href="#ma7e51f050e" y="103.501875"/>
     </g>
    </g>
    <g id="text_14">
     <!-- A -->
     <g transform="translate(758.290312 106.651875)scale(0.12 -0.12)">
      <use xlink:href="#DejaVuSans-41"/>
     </g>
    </g>
    <g id="PathCollection_4">
     <g>
      <use style="fill:#ff7f0e;stroke:#ff7f0e;stroke-width:2.7;" x="736.690312" xlink:href="#m17d652eec6" y="121.115625"/>
     </g>
    </g>
    <g id="text_15">
     <!-- B -->
     <g transform="translate(758.290312 124.265625)scale(0.12 -0.12)">
      <use xlink:href="#DejaVuSans-42"/>
     </g>
    </g>
   </g>
  </g>
  <g id="text_16">
   <!-- Comparison of the confidence intervals of the two variants A and B -->
   <g transform="translate(129.3525 36.717187)scale(0.18 -0.18)">
    <defs>
     <path d="M 4122 4306 
L 4122 3641 
Q 3803 3938 3442 4084 
Q 3081 4231 2675 4231 
Q 1875 4231 1450 3742 
Q 1025 3253 1025 2328 
Q 1025 1406 1450 917 
Q 1875 428 2675 428 
Q 3081 428 3442 575 
Q 3803 722 4122 1019 
L 4122 359 
Q 3791 134 3420 21 
Q 3050 -91 2638 -91 
Q 1578 -91 968 557 
Q 359 1206 359 2328 
Q 359 3453 968 4101 
Q 1578 4750 2638 4750 
Q 3056 4750 3426 4639 
Q 3797 4528 4122 4306 
z
" id="DejaVuSans-43" transform="scale(0.015625)"/>
    </defs>
    <use xlink:href="#DejaVuSans-43"/>
    <use x="69.824219" xlink:href="#DejaVuSans-6f"/>
    <use x="131.005859" xlink:href="#DejaVuSans-6d"/>
    <use x="228.417969" xlink:href="#DejaVuSans-70"/>
    <use x="291.894531" xlink:href="#DejaVuSans-61"/>
    <use x="353.173828" xlink:href="#DejaVuSans-72"/>
    <use x="394.287109" xlink:href="#DejaVuSans-69"/>
    <use x="422.070312" xlink:href="#DejaVuSans-73"/>
    <use x="474.169922" xlink:href="#DejaVuSans-6f"/>
    <use x="535.351562" xlink:href="#DejaVuSans-6e"/>
    <use x="598.730469" xlink:href="#DejaVuSans-20"/>
    <use x="630.517578" xlink:href="#DejaVuSans-6f"/>
    <use x="691.699219" xlink:href="#DejaVuSans-66"/>
    <use x="726.904297" xlink:href="#DejaVuSans-20"/>
    <use x="758.691406" xlink:href="#DejaVuSans-74"/>
    <use x="797.900391" xlink:href="#DejaVuSans-68"/>
    <use x="861.279297" xlink:href="#DejaVuSans-65"/>
    <use x="922.802734" xlink:href="#DejaVuSans-20"/>
    <use x="954.589844" xlink:href="#DejaVuSans-63"/>
    <use x="1009.570312" xlink:href="#DejaVuSans-6f"/>
    <use x="1070.751953" xlink:href="#DejaVuSans-6e"/>
    <use x="1134.130859" xlink:href="#DejaVuSans-66"/>
    <use x="1169.335938" xlink:href="#DejaVuSans-69"/>
    <use x="1197.119141" xlink:href="#DejaVuSans-64"/>
    <use x="1260.595703" xlink:href="#DejaVuSans-65"/>
    <use x="1322.119141" xlink:href="#DejaVuSans-6e"/>
    <use x="1385.498047" xlink:href="#DejaVuSans-63"/>
    <use x="1440.478516" xlink:href="#DejaVuSans-65"/>
    <use x="1502.001953" xlink:href="#DejaVuSans-20"/>
    <use x="1533.789062" xlink:href="#DejaVuSans-69"/>
    <use x="1561.572266" xlink:href="#DejaVuSans-6e"/>
    <use x="1624.951172" xlink:href="#DejaVuSans-74"/>
    <use x="1664.160156" xlink:href="#DejaVuSans-65"/>
    <use x="1725.683594" xlink:href="#DejaVuSans-72"/>
    <use x="1766.796875" xlink:href="#DejaVuSans-76"/>
    <use x="1825.976562" xlink:href="#DejaVuSans-61"/>
    <use x="1887.255859" xlink:href="#DejaVuSans-6c"/>
    <use x="1915.039062" xlink:href="#DejaVuSans-73"/>
    <use x="1967.138672" xlink:href="#DejaVuSans-20"/>
    <use x="1998.925781" xlink:href="#DejaVuSans-6f"/>
    <use x="2060.107422" xlink:href="#DejaVuSans-66"/>
    <use x="2095.3125" xlink:href="#DejaVuSans-20"/>
    <use x="2127.099609" xlink:href="#DejaVuSans-74"/>
    <use x="2166.308594" xlink:href="#DejaVuSans-68"/>
    <use x="2229.6875" xlink:href="#DejaVuSans-65"/>
    <use x="2291.210938" xlink:href="#DejaVuSans-20"/>
    <use x="2322.998047" xlink:href="#DejaVuSans-74"/>
    <use x="2362.207031" xlink:href="#DejaVuSans-77"/>
    <use x="2443.994141" xlink:href="#DejaVuSans-6f"/>
    <use x="2505.175781" xlink:href="#DejaVuSans-20"/>
    <use x="2536.962891" xlink:href="#DejaVuSans-76"/>
    <use x="2596.142578" xlink:href="#DejaVuSans-61"/>
    <use x="2657.421875" xlink:href="#DejaVuSans-72"/>
    <use x="2698.535156" xlink:href="#DejaVuSans-69"/>
    <use x="2726.318359" xlink:href="#DejaVuSans-61"/>
    <use x="2787.597656" xlink:href="#DejaVuSans-6e"/>
    <use x="2850.976562" xlink:href="#DejaVuSans-74"/>
    <use x="2890.185547" xlink:href="#DejaVuSans-73"/>
    <use x="2942.285156" xlink:href="#DejaVuSans-20"/>
    <use x="2974.072266" xlink:href="#DejaVuSans-41"/>
    <use x="3042.480469" xlink:href="#DejaVuSans-20"/>
    <use x="3074.267578" xlink:href="#DejaVuSans-61"/>
    <use x="3135.546875" xlink:href="#DejaVuSans-6e"/>
    <use x="3198.925781" xlink:href="#DejaVuSans-64"/>
    <use x="3262.402344" xlink:href="#DejaVuSans-20"/>
    <use x="3294.189453" xlink:href="#DejaVuSans-42"/>
   </g>
  </g>
 </g>
 <defs>
  <clipPath id="p834f0c37bb">
   <rect height="434.88" width="669.6" x="108" y="69.12"/>
  </clipPath>
 </defs>
</svg>
