<?xml version="1.0" encoding="utf-8" standalone="no"?>
<!DOCTYPE svg PUBLIC "-//W3C//DTD SVG 1.1//EN"
  "http://www.w3.org/Graphics/SVG/1.1/DTD/svg11.dtd">
<svg height="576pt" version="1.1" viewBox="0 0 864 576" width="864pt" xmlns="http://www.w3.org/2000/svg" xmlns:xlink="http://www.w3.org/1999/xlink">
 <metadata>
  <rdf:RDF xmlns:cc="http://creativecommons.org/ns#" xmlns:dc="http://purl.org/dc/elements/1.1/" xmlns:rdf="http://www.w3.org/1999/02/22-rdf-syntax-ns#">
   <cc:Work>
    <dc:type rdf:resource="http://purl.org/dc/dcmitype/StillImage"/>
    <dc:date>2021-04-04T18:27:42.938215</dc:date>
    <dc:format>image/svg+xml</dc:format>
    <dc:creator>
     <cc:Agent>
      <dc:title>Matplotlib v3.4.1, https://matplotlib.org/</dc:title>
     </cc:Agent>
    </dc:creator>
   </cc:Work>
  </rdf:RDF>
 </metadata>
 <defs>
  <style type="text/css">*{stroke-linecap:butt;stroke-linejoin:round;}</style>
 </defs>
 <g id="figure_1">
  <g id="patch_1">
   <path d="M 0 576 
L 864 576 
L 864 0 
L 0 0 
z
" style="fill:#ffffff;"/>
  </g>
  <g id="axes_1">
   <g id="patch_2">
    <path d="M 108 504 
L 777.6 504 
L 777.6 69.12 
L 108 69.12 
z
" style="fill:#ffffff;"/>
   </g>
   <g id="matplotlib.axis_1">
    <g id="xtick_1">
     <g id="line2d_1">
      <path clip-path="url(#p61b9ab1289)" d="M 138.436364 504 
L 138.436364 69.12 
" style="fill:none;stroke:#808080;stroke-dasharray:0.3,0.495;stroke-dashoffset:0;stroke-width:0.3;"/>
     </g>
     <g id="line2d_2">
      <defs>
       <path d="M 0 0 
L 0 3.5 
" id="m84fa00ddeb" style="stroke:#000000;stroke-width:0.8;"/>
      </defs>
      <g>
       <use style="stroke:#000000;stroke-width:0.8;" x="138.436364" xlink:href="#m84fa00ddeb" y="504"/>
      </g>
     </g>
     <g id="text_1">
      <!-- 5% -->
      <g transform="translate(128.917926 520.118125)scale(0.12 -0.12)">
       <defs>
        <path d="M 691 4666 
L 3169 4666 
L 3169 4134 
L 1269 4134 
L 1269 2991 
Q 1406 3038 1543 3061 
Q 1681 3084 1819 3084 
Q 2600 3084 3056 2656 
Q 3513 2228 3513 1497 
Q 3513 744 3044 326 
Q 2575 -91 1722 -91 
Q 1428 -91 1123 -41 
Q 819 9 494 109 
L 494 744 
Q 775 591 1075 516 
Q 1375 441 1709 441 
Q 2250 441 2565 725 
Q 2881 1009 2881 1497 
Q 2881 1984 2565 2268 
Q 2250 2553 1709 2553 
Q 1456 2553 1204 2497 
Q 953 2441 691 2322 
L 691 4666 
z
" id="DejaVuSans-35" transform="scale(0.015625)"/>
        <path d="M 4653 2053 
Q 4381 2053 4226 1822 
Q 4072 1591 4072 1178 
Q 4072 772 4226 539 
Q 4381 306 4653 306 
Q 4919 306 5073 539 
Q 5228 772 5228 1178 
Q 5228 1588 5073 1820 
Q 4919 2053 4653 2053 
z
M 4653 2450 
Q 5147 2450 5437 2106 
Q 5728 1763 5728 1178 
Q 5728 594 5436 251 
Q 5144 -91 4653 -91 
Q 4153 -91 3862 251 
Q 3572 594 3572 1178 
Q 3572 1766 3864 2108 
Q 4156 2450 4653 2450 
z
M 1428 4353 
Q 1159 4353 1004 4120 
Q 850 3888 850 3481 
Q 850 3069 1003 2837 
Q 1156 2606 1428 2606 
Q 1700 2606 1854 2837 
Q 2009 3069 2009 3481 
Q 2009 3884 1853 4118 
Q 1697 4353 1428 4353 
z
M 4250 4750 
L 4750 4750 
L 1831 -91 
L 1331 -91 
L 4250 4750 
z
M 1428 4750 
Q 1922 4750 2215 4408 
Q 2509 4066 2509 3481 
Q 2509 2891 2217 2550 
Q 1925 2209 1428 2209 
Q 931 2209 642 2551 
Q 353 2894 353 3481 
Q 353 4063 643 4406 
Q 934 4750 1428 4750 
z
" id="DejaVuSans-25" transform="scale(0.015625)"/>
       </defs>
       <use xlink:href="#DejaVuSans-35"/>
       <use x="63.623047" xlink:href="#DejaVuSans-25"/>
      </g>
     </g>
    </g>
    <g id="xtick_2">
     <g id="line2d_3">
      <path clip-path="url(#p61b9ab1289)" d="M 216.080148 504 
L 216.080148 69.12 
" style="fill:none;stroke:#808080;stroke-dasharray:0.3,0.495;stroke-dashoffset:0;stroke-width:0.3;"/>
     </g>
     <g id="line2d_4">
      <g>
       <use style="stroke:#000000;stroke-width:0.8;" x="216.080148" xlink:href="#m84fa00ddeb" y="504"/>
      </g>
     </g>
     <g id="text_2">
      <!-- 8% -->
      <g transform="translate(206.561711 520.118125)scale(0.12 -0.12)">
       <defs>
        <path d="M 2034 2216 
Q 1584 2216 1326 1975 
Q 1069 1734 1069 1313 
Q 1069 891 1326 650 
Q 1584 409 2034 409 
Q 2484 409 2743 651 
Q 3003 894 3003 1313 
Q 3003 1734 2745 1975 
Q 2488 2216 2034 2216 
z
M 1403 2484 
Q 997 2584 770 2862 
Q 544 3141 544 3541 
Q 544 4100 942 4425 
Q 1341 4750 2034 4750 
Q 2731 4750 3128 4425 
Q 3525 4100 3525 3541 
Q 3525 3141 3298 2862 
Q 3072 2584 2669 2484 
Q 3125 2378 3379 2068 
Q 3634 1759 3634 1313 
Q 3634 634 3220 271 
Q 2806 -91 2034 -91 
Q 1263 -91 848 271 
Q 434 634 434 1313 
Q 434 1759 690 2068 
Q 947 2378 1403 2484 
z
M 1172 3481 
Q 1172 3119 1398 2916 
Q 1625 2713 2034 2713 
Q 2441 2713 2670 2916 
Q 2900 3119 2900 3481 
Q 2900 3844 2670 4047 
Q 2441 4250 2034 4250 
Q 1625 4250 1398 4047 
Q 1172 3844 1172 3481 
z
" id="DejaVuSans-38" transform="scale(0.015625)"/>
       </defs>
       <use xlink:href="#DejaVuSans-38"/>
       <use x="63.623047" xlink:href="#DejaVuSans-25"/>
      </g>
     </g>
    </g>
    <g id="xtick_3">
     <g id="line2d_5">
      <path clip-path="url(#p61b9ab1289)" d="M 293.723933 504 
L 293.723933 69.12 
" style="fill:none;stroke:#808080;stroke-dasharray:0.3,0.495;stroke-dashoffset:0;stroke-width:0.3;"/>
     </g>
     <g id="line2d_6">
      <g>
       <use style="stroke:#000000;stroke-width:0.8;" x="293.723933" xlink:href="#m84fa00ddeb" y="504"/>
      </g>
     </g>
     <g id="text_3">
      <!-- 10% -->
      <g transform="translate(280.387996 520.118125)scale(0.12 -0.12)">
       <defs>
        <path d="M 794 531 
L 1825 531 
L 1825 4091 
L 703 3866 
L 703 4441 
L 1819 4666 
L 2450 4666 
L 2450 531 
L 3481 531 
L 3481 0 
L 794 0 
L 794 531 
z
" id="DejaVuSans-31" transform="scale(0.015625)"/>
        <path d="M 2034 4250 
Q 1547 4250 1301 3770 
Q 1056 3291 1056 2328 
Q 1056 1369 1301 889 
Q 1547 409 2034 409 
Q 2525 409 2770 889 
Q 3016 1369 3016 2328 
Q 3016 3291 2770 3770 
Q 2525 4250 2034 4250 
z
M 2034 4750 
Q 2819 4750 3233 4129 
Q 3647 3509 3647 2328 
Q 3647 1150 3233 529 
Q 2819 -91 2034 -91 
Q 1250 -91 836 529 
Q 422 1150 422 2328 
Q 422 3509 836 4129 
Q 1250 4750 2034 4750 
z
" id="DejaVuSans-30" transform="scale(0.015625)"/>
       </defs>
       <use xlink:href="#DejaVuSans-31"/>
       <use x="63.623047" xlink:href="#DejaVuSans-30"/>
       <use x="127.246094" xlink:href="#DejaVuSans-25"/>
      </g>
     </g>
    </g>
    <g id="xtick_4">
     <g id="line2d_7">
      <path clip-path="url(#p61b9ab1289)" d="M 371.367718 504 
L 371.367718 69.12 
" style="fill:none;stroke:#808080;stroke-dasharray:0.3,0.495;stroke-dashoffset:0;stroke-width:0.3;"/>
     </g>
     <g id="line2d_8">
      <g>
       <use style="stroke:#000000;stroke-width:0.8;" x="371.367718" xlink:href="#m84fa00ddeb" y="504"/>
      </g>
     </g>
     <g id="text_4">
      <!-- 12% -->
      <g transform="translate(358.03178 520.118125)scale(0.12 -0.12)">
       <defs>
        <path d="M 1228 531 
L 3431 531 
L 3431 0 
L 469 0 
L 469 531 
Q 828 903 1448 1529 
Q 2069 2156 2228 2338 
Q 2531 2678 2651 2914 
Q 2772 3150 2772 3378 
Q 2772 3750 2511 3984 
Q 2250 4219 1831 4219 
Q 1534 4219 1204 4116 
Q 875 4013 500 3803 
L 500 4441 
Q 881 4594 1212 4672 
Q 1544 4750 1819 4750 
Q 2544 4750 2975 4387 
Q 3406 4025 3406 3419 
Q 3406 3131 3298 2873 
Q 3191 2616 2906 2266 
Q 2828 2175 2409 1742 
Q 1991 1309 1228 531 
z
" id="DejaVuSans-32" transform="scale(0.015625)"/>
       </defs>
       <use xlink:href="#DejaVuSans-31"/>
       <use x="63.623047" xlink:href="#DejaVuSans-32"/>
       <use x="127.246094" xlink:href="#DejaVuSans-25"/>
      </g>
     </g>
    </g>
    <g id="xtick_5">
     <g id="line2d_9">
      <path clip-path="url(#p61b9ab1289)" d="M 449.011503 504 
L 449.011503 69.12 
" style="fill:none;stroke:#808080;stroke-dasharray:0.3,0.495;stroke-dashoffset:0;stroke-width:0.3;"/>
     </g>
     <g id="line2d_10">
      <g>
       <use style="stroke:#000000;stroke-width:0.8;" x="449.011503" xlink:href="#m84fa00ddeb" y="504"/>
      </g>
     </g>
     <g id="text_5">
      <!-- 15% -->
      <g transform="translate(435.675565 520.118125)scale(0.12 -0.12)">
       <use xlink:href="#DejaVuSans-31"/>
       <use x="63.623047" xlink:href="#DejaVuSans-35"/>
       <use x="127.246094" xlink:href="#DejaVuSans-25"/>
      </g>
     </g>
    </g>
    <g id="xtick_6">
     <g id="line2d_11">
      <path clip-path="url(#p61b9ab1289)" d="M 526.655288 504 
L 526.655288 69.12 
" style="fill:none;stroke:#808080;stroke-dasharray:0.3,0.495;stroke-dashoffset:0;stroke-width:0.3;"/>
     </g>
     <g id="line2d_12">
      <g>
       <use style="stroke:#000000;stroke-width:0.8;" x="526.655288" xlink:href="#m84fa00ddeb" y="504"/>
      </g>
     </g>
     <g id="text_6">
      <!-- 18% -->
      <g transform="translate(513.31935 520.118125)scale(0.12 -0.12)">
       <use xlink:href="#DejaVuSans-31"/>
       <use x="63.623047" xlink:href="#DejaVuSans-38"/>
       <use x="127.246094" xlink:href="#DejaVuSans-25"/>
      </g>
     </g>
    </g>
    <g id="xtick_7">
     <g id="line2d_13">
      <path clip-path="url(#p61b9ab1289)" d="M 604.299072 504 
L 604.299072 69.12 
" style="fill:none;stroke:#808080;stroke-dasharray:0.3,0.495;stroke-dashoffset:0;stroke-width:0.3;"/>
     </g>
     <g id="line2d_14">
      <g>
       <use style="stroke:#000000;stroke-width:0.8;" x="604.299072" xlink:href="#m84fa00ddeb" y="504"/>
      </g>
     </g>
     <g id="text_7">
      <!-- 20% -->
      <g transform="translate(590.963135 520.118125)scale(0.12 -0.12)">
       <use xlink:href="#DejaVuSans-32"/>
       <use x="63.623047" xlink:href="#DejaVuSans-30"/>
       <use x="127.246094" xlink:href="#DejaVuSans-25"/>
      </g>
     </g>
    </g>
    <g id="xtick_8">
     <g id="line2d_15">
      <path clip-path="url(#p61b9ab1289)" d="M 681.942857 504 
L 681.942857 69.12 
" style="fill:none;stroke:#808080;stroke-dasharray:0.3,0.495;stroke-dashoffset:0;stroke-width:0.3;"/>
     </g>
     <g id="line2d_16">
      <g>
       <use style="stroke:#000000;stroke-width:0.8;" x="681.942857" xlink:href="#m84fa00ddeb" y="504"/>
      </g>
     </g>
     <g id="text_8">
      <!-- 22% -->
      <g transform="translate(668.60692 520.118125)scale(0.12 -0.12)">
       <use xlink:href="#DejaVuSans-32"/>
       <use x="63.623047" xlink:href="#DejaVuSans-32"/>
       <use x="127.246094" xlink:href="#DejaVuSans-25"/>
      </g>
     </g>
    </g>
    <g id="xtick_9">
     <g id="line2d_17">
      <path clip-path="url(#p61b9ab1289)" d="M 759.586642 504 
L 759.586642 69.12 
" style="fill:none;stroke:#808080;stroke-dasharray:0.3,0.495;stroke-dashoffset:0;stroke-width:0.3;"/>
     </g>
     <g id="line2d_18">
      <g>
       <use style="stroke:#000000;stroke-width:0.8;" x="759.586642" xlink:href="#m84fa00ddeb" y="504"/>
      </g>
     </g>
     <g id="text_9">
      <!-- 25% -->
      <g transform="translate(746.250704 520.118125)scale(0.12 -0.12)">
       <use xlink:href="#DejaVuSans-32"/>
       <use x="63.623047" xlink:href="#DejaVuSans-35"/>
       <use x="127.246094" xlink:href="#DejaVuSans-25"/>
      </g>
     </g>
    </g>
    <g id="text_10">
     <!-- Minimum detectable difference (% of base metric: 8.40%) -->
     <g transform="translate(210.43375 538.77125)scale(0.16 -0.16)">
      <defs>
       <path d="M 628 4666 
L 1569 4666 
L 2759 1491 
L 3956 4666 
L 4897 4666 
L 4897 0 
L 4281 0 
L 4281 4097 
L 3078 897 
L 2444 897 
L 1241 4097 
L 1241 0 
L 628 0 
L 628 4666 
z
" id="DejaVuSans-4d" transform="scale(0.015625)"/>
       <path d="M 603 3500 
L 1178 3500 
L 1178 0 
L 603 0 
L 603 3500 
z
M 603 4863 
L 1178 4863 
L 1178 4134 
L 603 4134 
L 603 4863 
z
" id="DejaVuSans-69" transform="scale(0.015625)"/>
       <path d="M 3513 2113 
L 3513 0 
L 2938 0 
L 2938 2094 
Q 2938 2591 2744 2837 
Q 2550 3084 2163 3084 
Q 1697 3084 1428 2787 
Q 1159 2491 1159 1978 
L 1159 0 
L 581 0 
L 581 3500 
L 1159 3500 
L 1159 2956 
Q 1366 3272 1645 3428 
Q 1925 3584 2291 3584 
Q 2894 3584 3203 3211 
Q 3513 2838 3513 2113 
z
" id="DejaVuSans-6e" transform="scale(0.015625)"/>
       <path d="M 3328 2828 
Q 3544 3216 3844 3400 
Q 4144 3584 4550 3584 
Q 5097 3584 5394 3201 
Q 5691 2819 5691 2113 
L 5691 0 
L 5113 0 
L 5113 2094 
Q 5113 2597 4934 2840 
Q 4756 3084 4391 3084 
Q 3944 3084 3684 2787 
Q 3425 2491 3425 1978 
L 3425 0 
L 2847 0 
L 2847 2094 
Q 2847 2600 2669 2842 
Q 2491 3084 2119 3084 
Q 1678 3084 1418 2786 
Q 1159 2488 1159 1978 
L 1159 0 
L 581 0 
L 581 3500 
L 1159 3500 
L 1159 2956 
Q 1356 3278 1631 3431 
Q 1906 3584 2284 3584 
Q 2666 3584 2933 3390 
Q 3200 3197 3328 2828 
z
" id="DejaVuSans-6d" transform="scale(0.015625)"/>
       <path d="M 544 1381 
L 544 3500 
L 1119 3500 
L 1119 1403 
Q 1119 906 1312 657 
Q 1506 409 1894 409 
Q 2359 409 2629 706 
Q 2900 1003 2900 1516 
L 2900 3500 
L 3475 3500 
L 3475 0 
L 2900 0 
L 2900 538 
Q 2691 219 2414 64 
Q 2138 -91 1772 -91 
Q 1169 -91 856 284 
Q 544 659 544 1381 
z
M 1991 3584 
L 1991 3584 
z
" id="DejaVuSans-75" transform="scale(0.015625)"/>
       <path id="DejaVuSans-20" transform="scale(0.015625)"/>
       <path d="M 2906 2969 
L 2906 4863 
L 3481 4863 
L 3481 0 
L 2906 0 
L 2906 525 
Q 2725 213 2448 61 
Q 2172 -91 1784 -91 
Q 1150 -91 751 415 
Q 353 922 353 1747 
Q 353 2572 751 3078 
Q 1150 3584 1784 3584 
Q 2172 3584 2448 3432 
Q 2725 3281 2906 2969 
z
M 947 1747 
Q 947 1113 1208 752 
Q 1469 391 1925 391 
Q 2381 391 2643 752 
Q 2906 1113 2906 1747 
Q 2906 2381 2643 2742 
Q 2381 3103 1925 3103 
Q 1469 3103 1208 2742 
Q 947 2381 947 1747 
z
" id="DejaVuSans-64" transform="scale(0.015625)"/>
       <path d="M 3597 1894 
L 3597 1613 
L 953 1613 
Q 991 1019 1311 708 
Q 1631 397 2203 397 
Q 2534 397 2845 478 
Q 3156 559 3463 722 
L 3463 178 
Q 3153 47 2828 -22 
Q 2503 -91 2169 -91 
Q 1331 -91 842 396 
Q 353 884 353 1716 
Q 353 2575 817 3079 
Q 1281 3584 2069 3584 
Q 2775 3584 3186 3129 
Q 3597 2675 3597 1894 
z
M 3022 2063 
Q 3016 2534 2758 2815 
Q 2500 3097 2075 3097 
Q 1594 3097 1305 2825 
Q 1016 2553 972 2059 
L 3022 2063 
z
" id="DejaVuSans-65" transform="scale(0.015625)"/>
       <path d="M 1172 4494 
L 1172 3500 
L 2356 3500 
L 2356 3053 
L 1172 3053 
L 1172 1153 
Q 1172 725 1289 603 
Q 1406 481 1766 481 
L 2356 481 
L 2356 0 
L 1766 0 
Q 1100 0 847 248 
Q 594 497 594 1153 
L 594 3053 
L 172 3053 
L 172 3500 
L 594 3500 
L 594 4494 
L 1172 4494 
z
" id="DejaVuSans-74" transform="scale(0.015625)"/>
       <path d="M 3122 3366 
L 3122 2828 
Q 2878 2963 2633 3030 
Q 2388 3097 2138 3097 
Q 1578 3097 1268 2742 
Q 959 2388 959 1747 
Q 959 1106 1268 751 
Q 1578 397 2138 397 
Q 2388 397 2633 464 
Q 2878 531 3122 666 
L 3122 134 
Q 2881 22 2623 -34 
Q 2366 -91 2075 -91 
Q 1284 -91 818 406 
Q 353 903 353 1747 
Q 353 2603 823 3093 
Q 1294 3584 2113 3584 
Q 2378 3584 2631 3529 
Q 2884 3475 3122 3366 
z
" id="DejaVuSans-63" transform="scale(0.015625)"/>
       <path d="M 2194 1759 
Q 1497 1759 1228 1600 
Q 959 1441 959 1056 
Q 959 750 1161 570 
Q 1363 391 1709 391 
Q 2188 391 2477 730 
Q 2766 1069 2766 1631 
L 2766 1759 
L 2194 1759 
z
M 3341 1997 
L 3341 0 
L 2766 0 
L 2766 531 
Q 2569 213 2275 61 
Q 1981 -91 1556 -91 
Q 1019 -91 701 211 
Q 384 513 384 1019 
Q 384 1609 779 1909 
Q 1175 2209 1959 2209 
L 2766 2209 
L 2766 2266 
Q 2766 2663 2505 2880 
Q 2244 3097 1772 3097 
Q 1472 3097 1187 3025 
Q 903 2953 641 2809 
L 641 3341 
Q 956 3463 1253 3523 
Q 1550 3584 1831 3584 
Q 2591 3584 2966 3190 
Q 3341 2797 3341 1997 
z
" id="DejaVuSans-61" transform="scale(0.015625)"/>
       <path d="M 3116 1747 
Q 3116 2381 2855 2742 
Q 2594 3103 2138 3103 
Q 1681 3103 1420 2742 
Q 1159 2381 1159 1747 
Q 1159 1113 1420 752 
Q 1681 391 2138 391 
Q 2594 391 2855 752 
Q 3116 1113 3116 1747 
z
M 1159 2969 
Q 1341 3281 1617 3432 
Q 1894 3584 2278 3584 
Q 2916 3584 3314 3078 
Q 3713 2572 3713 1747 
Q 3713 922 3314 415 
Q 2916 -91 2278 -91 
Q 1894 -91 1617 61 
Q 1341 213 1159 525 
L 1159 0 
L 581 0 
L 581 4863 
L 1159 4863 
L 1159 2969 
z
" id="DejaVuSans-62" transform="scale(0.015625)"/>
       <path d="M 603 4863 
L 1178 4863 
L 1178 0 
L 603 0 
L 603 4863 
z
" id="DejaVuSans-6c" transform="scale(0.015625)"/>
       <path d="M 2375 4863 
L 2375 4384 
L 1825 4384 
Q 1516 4384 1395 4259 
Q 1275 4134 1275 3809 
L 1275 3500 
L 2222 3500 
L 2222 3053 
L 1275 3053 
L 1275 0 
L 697 0 
L 697 3053 
L 147 3053 
L 147 3500 
L 697 3500 
L 697 3744 
Q 697 4328 969 4595 
Q 1241 4863 1831 4863 
L 2375 4863 
z
" id="DejaVuSans-66" transform="scale(0.015625)"/>
       <path d="M 2631 2963 
Q 2534 3019 2420 3045 
Q 2306 3072 2169 3072 
Q 1681 3072 1420 2755 
Q 1159 2438 1159 1844 
L 1159 0 
L 581 0 
L 581 3500 
L 1159 3500 
L 1159 2956 
Q 1341 3275 1631 3429 
Q 1922 3584 2338 3584 
Q 2397 3584 2469 3576 
Q 2541 3569 2628 3553 
L 2631 2963 
z
" id="DejaVuSans-72" transform="scale(0.015625)"/>
       <path d="M 1984 4856 
Q 1566 4138 1362 3434 
Q 1159 2731 1159 2009 
Q 1159 1288 1364 580 
Q 1569 -128 1984 -844 
L 1484 -844 
Q 1016 -109 783 600 
Q 550 1309 550 2009 
Q 550 2706 781 3412 
Q 1013 4119 1484 4856 
L 1984 4856 
z
" id="DejaVuSans-28" transform="scale(0.015625)"/>
       <path d="M 1959 3097 
Q 1497 3097 1228 2736 
Q 959 2375 959 1747 
Q 959 1119 1226 758 
Q 1494 397 1959 397 
Q 2419 397 2687 759 
Q 2956 1122 2956 1747 
Q 2956 2369 2687 2733 
Q 2419 3097 1959 3097 
z
M 1959 3584 
Q 2709 3584 3137 3096 
Q 3566 2609 3566 1747 
Q 3566 888 3137 398 
Q 2709 -91 1959 -91 
Q 1206 -91 779 398 
Q 353 888 353 1747 
Q 353 2609 779 3096 
Q 1206 3584 1959 3584 
z
" id="DejaVuSans-6f" transform="scale(0.015625)"/>
       <path d="M 2834 3397 
L 2834 2853 
Q 2591 2978 2328 3040 
Q 2066 3103 1784 3103 
Q 1356 3103 1142 2972 
Q 928 2841 928 2578 
Q 928 2378 1081 2264 
Q 1234 2150 1697 2047 
L 1894 2003 
Q 2506 1872 2764 1633 
Q 3022 1394 3022 966 
Q 3022 478 2636 193 
Q 2250 -91 1575 -91 
Q 1294 -91 989 -36 
Q 684 19 347 128 
L 347 722 
Q 666 556 975 473 
Q 1284 391 1588 391 
Q 1994 391 2212 530 
Q 2431 669 2431 922 
Q 2431 1156 2273 1281 
Q 2116 1406 1581 1522 
L 1381 1569 
Q 847 1681 609 1914 
Q 372 2147 372 2553 
Q 372 3047 722 3315 
Q 1072 3584 1716 3584 
Q 2034 3584 2315 3537 
Q 2597 3491 2834 3397 
z
" id="DejaVuSans-73" transform="scale(0.015625)"/>
       <path d="M 750 794 
L 1409 794 
L 1409 0 
L 750 0 
L 750 794 
z
M 750 3309 
L 1409 3309 
L 1409 2516 
L 750 2516 
L 750 3309 
z
" id="DejaVuSans-3a" transform="scale(0.015625)"/>
       <path d="M 684 794 
L 1344 794 
L 1344 0 
L 684 0 
L 684 794 
z
" id="DejaVuSans-2e" transform="scale(0.015625)"/>
       <path d="M 2419 4116 
L 825 1625 
L 2419 1625 
L 2419 4116 
z
M 2253 4666 
L 3047 4666 
L 3047 1625 
L 3713 1625 
L 3713 1100 
L 3047 1100 
L 3047 0 
L 2419 0 
L 2419 1100 
L 313 1100 
L 313 1709 
L 2253 4666 
z
" id="DejaVuSans-34" transform="scale(0.015625)"/>
       <path d="M 513 4856 
L 1013 4856 
Q 1481 4119 1714 3412 
Q 1947 2706 1947 2009 
Q 1947 1309 1714 600 
Q 1481 -109 1013 -844 
L 513 -844 
Q 928 -128 1133 580 
Q 1338 1288 1338 2009 
Q 1338 2731 1133 3434 
Q 928 4138 513 4856 
z
" id="DejaVuSans-29" transform="scale(0.015625)"/>
      </defs>
      <use xlink:href="#DejaVuSans-4d"/>
      <use x="86.279297" xlink:href="#DejaVuSans-69"/>
      <use x="114.0625" xlink:href="#DejaVuSans-6e"/>
      <use x="177.441406" xlink:href="#DejaVuSans-69"/>
      <use x="205.224609" xlink:href="#DejaVuSans-6d"/>
      <use x="302.636719" xlink:href="#DejaVuSans-75"/>
      <use x="366.015625" xlink:href="#DejaVuSans-6d"/>
      <use x="463.427734" xlink:href="#DejaVuSans-20"/>
      <use x="495.214844" xlink:href="#DejaVuSans-64"/>
      <use x="558.691406" xlink:href="#DejaVuSans-65"/>
      <use x="620.214844" xlink:href="#DejaVuSans-74"/>
      <use x="659.423828" xlink:href="#DejaVuSans-65"/>
      <use x="720.947266" xlink:href="#DejaVuSans-63"/>
      <use x="775.927734" xlink:href="#DejaVuSans-74"/>
      <use x="815.136719" xlink:href="#DejaVuSans-61"/>
      <use x="876.416016" xlink:href="#DejaVuSans-62"/>
      <use x="939.892578" xlink:href="#DejaVuSans-6c"/>
      <use x="967.675781" xlink:href="#DejaVuSans-65"/>
      <use x="1029.199219" xlink:href="#DejaVuSans-20"/>
      <use x="1060.986328" xlink:href="#DejaVuSans-64"/>
      <use x="1124.462891" xlink:href="#DejaVuSans-69"/>
      <use x="1152.246094" xlink:href="#DejaVuSans-66"/>
      <use x="1187.451172" xlink:href="#DejaVuSans-66"/>
      <use x="1222.65625" xlink:href="#DejaVuSans-65"/>
      <use x="1284.179688" xlink:href="#DejaVuSans-72"/>
      <use x="1323.042969" xlink:href="#DejaVuSans-65"/>
      <use x="1384.566406" xlink:href="#DejaVuSans-6e"/>
      <use x="1447.945312" xlink:href="#DejaVuSans-63"/>
      <use x="1502.925781" xlink:href="#DejaVuSans-65"/>
      <use x="1564.449219" xlink:href="#DejaVuSans-20"/>
      <use x="1596.236328" xlink:href="#DejaVuSans-28"/>
      <use x="1635.25" xlink:href="#DejaVuSans-25"/>
      <use x="1730.269531" xlink:href="#DejaVuSans-20"/>
      <use x="1762.056641" xlink:href="#DejaVuSans-6f"/>
      <use x="1823.238281" xlink:href="#DejaVuSans-66"/>
      <use x="1858.443359" xlink:href="#DejaVuSans-20"/>
      <use x="1890.230469" xlink:href="#DejaVuSans-62"/>
      <use x="1953.707031" xlink:href="#DejaVuSans-61"/>
      <use x="2014.986328" xlink:href="#DejaVuSans-73"/>
      <use x="2067.085938" xlink:href="#DejaVuSans-65"/>
      <use x="2128.609375" xlink:href="#DejaVuSans-20"/>
      <use x="2160.396484" xlink:href="#DejaVuSans-6d"/>
      <use x="2257.808594" xlink:href="#DejaVuSans-65"/>
      <use x="2319.332031" xlink:href="#DejaVuSans-74"/>
      <use x="2358.541016" xlink:href="#DejaVuSans-72"/>
      <use x="2399.654297" xlink:href="#DejaVuSans-69"/>
      <use x="2427.4375" xlink:href="#DejaVuSans-63"/>
      <use x="2482.417969" xlink:href="#DejaVuSans-3a"/>
      <use x="2516.109375" xlink:href="#DejaVuSans-20"/>
      <use x="2547.896484" xlink:href="#DejaVuSans-38"/>
      <use x="2611.519531" xlink:href="#DejaVuSans-2e"/>
      <use x="2643.306641" xlink:href="#DejaVuSans-34"/>
      <use x="2706.929688" xlink:href="#DejaVuSans-30"/>
      <use x="2770.552734" xlink:href="#DejaVuSans-25"/>
      <use x="2865.572266" xlink:href="#DejaVuSans-29"/>
     </g>
    </g>
   </g>
   <g id="matplotlib.axis_2">
    <g id="ytick_1">
     <g id="line2d_19">
      <path clip-path="url(#p61b9ab1289)" d="M 108 496.486238 
L 777.6 496.486238 
" style="fill:none;stroke:#808080;stroke-dasharray:0.3,0.495;stroke-dashoffset:0;stroke-width:0.3;"/>
     </g>
     <g id="line2d_20">
      <defs>
       <path d="M 0 0 
L -3.5 0 
" id="m4fe9d1e0c7" style="stroke:#000000;stroke-width:0.8;"/>
      </defs>
      <g>
       <use style="stroke:#000000;stroke-width:0.8;" x="108" xlink:href="#m4fe9d1e0c7" y="496.486238"/>
      </g>
     </g>
     <g id="text_11">
      <!-- 0k -->
      <g transform="translate(86.41625 501.045301)scale(0.12 -0.12)">
       <defs>
        <path d="M 581 4863 
L 1159 4863 
L 1159 1991 
L 2875 3500 
L 3609 3500 
L 1753 1863 
L 3688 0 
L 2938 0 
L 1159 1709 
L 1159 0 
L 581 0 
L 581 4863 
z
" id="DejaVuSans-6b" transform="scale(0.015625)"/>
       </defs>
       <use xlink:href="#DejaVuSans-30"/>
       <use x="63.623047" xlink:href="#DejaVuSans-6b"/>
      </g>
     </g>
    </g>
    <g id="ytick_2">
     <g id="line2d_21">
      <path clip-path="url(#p61b9ab1289)" d="M 108 418.235856 
L 777.6 418.235856 
" style="fill:none;stroke:#808080;stroke-dasharray:0.3,0.495;stroke-dashoffset:0;stroke-width:0.3;"/>
     </g>
     <g id="line2d_22">
      <g>
       <use style="stroke:#000000;stroke-width:0.8;" x="108" xlink:href="#m4fe9d1e0c7" y="418.235856"/>
      </g>
     </g>
     <g id="text_12">
      <!-- 20k -->
      <g transform="translate(78.78125 422.794918)scale(0.12 -0.12)">
       <use xlink:href="#DejaVuSans-32"/>
       <use x="63.623047" xlink:href="#DejaVuSans-30"/>
       <use x="127.246094" xlink:href="#DejaVuSans-6b"/>
      </g>
     </g>
    </g>
    <g id="ytick_3">
     <g id="line2d_23">
      <path clip-path="url(#p61b9ab1289)" d="M 108 339.985473 
L 777.6 339.985473 
" style="fill:none;stroke:#808080;stroke-dasharray:0.3,0.495;stroke-dashoffset:0;stroke-width:0.3;"/>
     </g>
     <g id="line2d_24">
      <g>
       <use style="stroke:#000000;stroke-width:0.8;" x="108" xlink:href="#m4fe9d1e0c7" y="339.985473"/>
      </g>
     </g>
     <g id="text_13">
      <!-- 40k -->
      <g transform="translate(78.78125 344.544535)scale(0.12 -0.12)">
       <use xlink:href="#DejaVuSans-34"/>
       <use x="63.623047" xlink:href="#DejaVuSans-30"/>
       <use x="127.246094" xlink:href="#DejaVuSans-6b"/>
      </g>
     </g>
    </g>
    <g id="ytick_4">
     <g id="line2d_25">
      <path clip-path="url(#p61b9ab1289)" d="M 108 261.73509 
L 777.6 261.73509 
" style="fill:none;stroke:#808080;stroke-dasharray:0.3,0.495;stroke-dashoffset:0;stroke-width:0.3;"/>
     </g>
     <g id="line2d_26">
      <g>
       <use style="stroke:#000000;stroke-width:0.8;" x="108" xlink:href="#m4fe9d1e0c7" y="261.73509"/>
      </g>
     </g>
     <g id="text_14">
      <!-- 60k -->
      <g transform="translate(78.78125 266.294153)scale(0.12 -0.12)">
       <defs>
        <path d="M 2113 2584 
Q 1688 2584 1439 2293 
Q 1191 2003 1191 1497 
Q 1191 994 1439 701 
Q 1688 409 2113 409 
Q 2538 409 2786 701 
Q 3034 994 3034 1497 
Q 3034 2003 2786 2293 
Q 2538 2584 2113 2584 
z
M 3366 4563 
L 3366 3988 
Q 3128 4100 2886 4159 
Q 2644 4219 2406 4219 
Q 1781 4219 1451 3797 
Q 1122 3375 1075 2522 
Q 1259 2794 1537 2939 
Q 1816 3084 2150 3084 
Q 2853 3084 3261 2657 
Q 3669 2231 3669 1497 
Q 3669 778 3244 343 
Q 2819 -91 2113 -91 
Q 1303 -91 875 529 
Q 447 1150 447 2328 
Q 447 3434 972 4092 
Q 1497 4750 2381 4750 
Q 2619 4750 2861 4703 
Q 3103 4656 3366 4563 
z
" id="DejaVuSans-36" transform="scale(0.015625)"/>
       </defs>
       <use xlink:href="#DejaVuSans-36"/>
       <use x="63.623047" xlink:href="#DejaVuSans-30"/>
       <use x="127.246094" xlink:href="#DejaVuSans-6b"/>
      </g>
     </g>
    </g>
    <g id="ytick_5">
     <g id="line2d_27">
      <path clip-path="url(#p61b9ab1289)" d="M 108 183.484707 
L 777.6 183.484707 
" style="fill:none;stroke:#808080;stroke-dasharray:0.3,0.495;stroke-dashoffset:0;stroke-width:0.3;"/>
     </g>
     <g id="line2d_28">
      <g>
       <use style="stroke:#000000;stroke-width:0.8;" x="108" xlink:href="#m4fe9d1e0c7" y="183.484707"/>
      </g>
     </g>
     <g id="text_15">
      <!-- 80k -->
      <g transform="translate(78.78125 188.04377)scale(0.12 -0.12)">
       <use xlink:href="#DejaVuSans-38"/>
       <use x="63.623047" xlink:href="#DejaVuSans-30"/>
       <use x="127.246094" xlink:href="#DejaVuSans-6b"/>
      </g>
     </g>
    </g>
    <g id="ytick_6">
     <g id="line2d_29">
      <path clip-path="url(#p61b9ab1289)" d="M 108 105.234325 
L 777.6 105.234325 
" style="fill:none;stroke:#808080;stroke-dasharray:0.3,0.495;stroke-dashoffset:0;stroke-width:0.3;"/>
     </g>
     <g id="line2d_30">
      <g>
       <use style="stroke:#000000;stroke-width:0.8;" x="108" xlink:href="#m4fe9d1e0c7" y="105.234325"/>
      </g>
     </g>
     <g id="text_16">
      <!-- 100k -->
      <g transform="translate(71.14625 109.793387)scale(0.12 -0.12)">
       <use xlink:href="#DejaVuSans-31"/>
       <use x="63.623047" xlink:href="#DejaVuSans-30"/>
       <use x="127.246094" xlink:href="#DejaVuSans-30"/>
       <use x="190.869141" xlink:href="#DejaVuSans-6b"/>
      </g>
     </g>
    </g>
    <g id="text_17">
     <!-- Sample size -->
     <g transform="translate(63.81875 334.61125)rotate(-90)scale(0.16 -0.16)">
      <defs>
       <path d="M 3425 4513 
L 3425 3897 
Q 3066 4069 2747 4153 
Q 2428 4238 2131 4238 
Q 1616 4238 1336 4038 
Q 1056 3838 1056 3469 
Q 1056 3159 1242 3001 
Q 1428 2844 1947 2747 
L 2328 2669 
Q 3034 2534 3370 2195 
Q 3706 1856 3706 1288 
Q 3706 609 3251 259 
Q 2797 -91 1919 -91 
Q 1588 -91 1214 -16 
Q 841 59 441 206 
L 441 856 
Q 825 641 1194 531 
Q 1563 422 1919 422 
Q 2459 422 2753 634 
Q 3047 847 3047 1241 
Q 3047 1584 2836 1778 
Q 2625 1972 2144 2069 
L 1759 2144 
Q 1053 2284 737 2584 
Q 422 2884 422 3419 
Q 422 4038 858 4394 
Q 1294 4750 2059 4750 
Q 2388 4750 2728 4690 
Q 3069 4631 3425 4513 
z
" id="DejaVuSans-53" transform="scale(0.015625)"/>
       <path d="M 1159 525 
L 1159 -1331 
L 581 -1331 
L 581 3500 
L 1159 3500 
L 1159 2969 
Q 1341 3281 1617 3432 
Q 1894 3584 2278 3584 
Q 2916 3584 3314 3078 
Q 3713 2572 3713 1747 
Q 3713 922 3314 415 
Q 2916 -91 2278 -91 
Q 1894 -91 1617 61 
Q 1341 213 1159 525 
z
M 3116 1747 
Q 3116 2381 2855 2742 
Q 2594 3103 2138 3103 
Q 1681 3103 1420 2742 
Q 1159 2381 1159 1747 
Q 1159 1113 1420 752 
Q 1681 391 2138 391 
Q 2594 391 2855 752 
Q 3116 1113 3116 1747 
z
" id="DejaVuSans-70" transform="scale(0.015625)"/>
       <path d="M 353 3500 
L 3084 3500 
L 3084 2975 
L 922 459 
L 3084 459 
L 3084 0 
L 275 0 
L 275 525 
L 2438 3041 
L 353 3041 
L 353 3500 
z
" id="DejaVuSans-7a" transform="scale(0.015625)"/>
      </defs>
      <use xlink:href="#DejaVuSans-53"/>
      <use x="63.476562" xlink:href="#DejaVuSans-61"/>
      <use x="124.755859" xlink:href="#DejaVuSans-6d"/>
      <use x="222.167969" xlink:href="#DejaVuSans-70"/>
      <use x="285.644531" xlink:href="#DejaVuSans-6c"/>
      <use x="313.427734" xlink:href="#DejaVuSans-65"/>
      <use x="374.951172" xlink:href="#DejaVuSans-20"/>
      <use x="406.738281" xlink:href="#DejaVuSans-73"/>
      <use x="458.837891" xlink:href="#DejaVuSans-69"/>
      <use x="486.621094" xlink:href="#DejaVuSans-7a"/>
      <use x="539.111328" xlink:href="#DejaVuSans-65"/>
     </g>
    </g>
   </g>
   <g id="line2d_31">
    <path clip-path="url(#p61b9ab1289)" d="M 138.436364 88.887273 
L 150.859369 146.426302 
L 163.282375 192.517844 
L 175.70538 230.013257 
L 188.128386 260.927889 
L 200.551391 286.718937 
L 212.974397 308.461225 
L 225.397403 326.961622 
L 237.820408 342.835409 
L 250.243414 356.558412 
L 262.666419 368.503292 
L 275.089425 378.965282 
L 287.51243 388.180728 
L 299.935436 396.340646 
L 312.358442 403.600778 
L 324.781447 410.08913 
L 337.204453 415.911701 
L 349.627458 421.156875 
L 362.050464 425.898819 
L 374.473469 430.200149 
L 386.896475 434.114019 
L 399.319481 437.685793 
L 411.742486 440.954373 
L 424.165492 443.953277 
L 436.588497 446.711505 
L 449.011503 449.254258 
L 461.434508 451.603513 
L 473.857514 453.778513 
L 486.280519 455.796161 
L 498.703525 457.671354 
L 511.126531 459.417264 
L 523.549536 461.045573 
L 535.972542 462.566669 
L 548.395547 463.989814 
L 560.818553 465.32329 
L 573.241558 466.574521 
L 585.664564 467.750174 
L 598.08757 468.856253 
L 610.510575 469.898177 
L 622.933581 470.880845 
L 635.356586 471.808697 
L 647.779592 472.685762 
L 660.202597 473.515706 
L 672.625603 474.301869 
L 685.048609 475.047298 
L 697.471614 475.754781 
L 709.89462 476.426868 
L 722.317625 477.065901 
L 734.740631 477.674028 
L 747.163636 478.253227 
" style="fill:none;stroke:#6495ed;stroke-linecap:square;stroke-width:2;"/>
   </g>
   <g id="line2d_32">
    <path clip-path="url(#p61b9ab1289)" d="M 138.436364 179.92681 
L 150.859369 224.614171 
L 163.282375 260.410906 
L 175.70538 289.531506 
L 188.128386 313.541181 
L 200.551391 333.571652 
L 212.974397 350.457677 
L 225.397403 364.825905 
L 237.820408 377.154192 
L 250.243414 387.812085 
L 262.666419 397.089008 
L 275.089425 405.214254 
L 287.51243 412.371377 
L 299.935436 418.708731 
L 312.358442 424.347271 
L 324.781447 429.386413 
L 337.204453 433.90848 
L 349.627458 437.982115 
L 362.050464 441.664919 
L 374.473469 445.005522 
L 386.896475 448.045207 
L 399.319481 450.819206 
L 411.742486 453.35773 
L 424.165492 455.686811 
L 436.588497 457.828974 
L 449.011503 459.803788 
L 461.434508 461.628324 
L 473.857514 463.317526 
L 486.280519 464.88452 
L 498.703525 466.340878 
L 511.126531 467.696829 
L 523.549536 468.961446 
L 535.972542 470.142797 
L 548.395547 471.248074 
L 560.818553 472.283711 
L 573.241558 473.255472 
L 585.664564 474.168537 
L 598.08757 475.027567 
L 610.510575 475.836771 
L 622.933581 476.599955 
L 635.356586 477.320566 
L 647.779592 478.001733 
L 660.202597 478.646305 
L 672.625603 479.256873 
L 685.048609 479.835807 
L 697.471614 480.385269 
L 709.89462 480.907242 
L 722.317625 481.403544 
L 734.740631 481.875842 
L 747.163636 482.325673 
" style="fill:none;stroke:#ffa500;stroke-linecap:square;stroke-width:2;"/>
   </g>
   <g id="line2d_33">
    <path clip-path="url(#p61b9ab1289)" d="M 138.436364 222.559006 
L 150.859369 261.228159 
L 163.282375 292.204019 
L 175.70538 317.402844 
L 188.128386 338.179049 
L 200.551391 355.511945 
L 212.974397 370.123868 
L 225.397403 382.557075 
L 237.820408 393.225068 
L 250.243414 402.447623 
L 262.666419 410.47519 
L 275.089425 417.50618 
L 287.51243 423.699428 
L 299.935436 429.183308 
L 312.358442 434.062485 
L 324.781447 438.422988 
L 337.204453 442.336052 
L 349.627458 445.861075 
L 362.050464 449.047903 
L 374.473469 451.938615 
L 386.896475 454.568935 
L 399.319481 456.969349 
L 411.742486 459.166001 
L 424.165492 461.181417 
L 436.588497 463.035086 
L 449.011503 464.743945 
L 461.434508 466.322765 
L 473.857514 467.784475 
L 486.280519 469.140437 
L 498.703525 470.400662 
L 511.126531 471.574003 
L 523.549536 472.668309 
L 535.972542 473.690562 
L 548.395547 474.646988 
L 560.818553 475.543152 
L 573.241558 476.384043 
L 585.664564 477.174142 
L 598.08757 477.917483 
L 610.510575 478.617709 
L 622.933581 479.278112 
L 635.356586 479.901676 
L 647.779592 480.491108 
L 660.202597 481.048872 
L 672.625603 481.577214 
L 685.048609 482.07818 
L 697.471614 482.553645 
L 709.89462 483.005322 
L 722.317625 483.434784 
L 734.740631 483.843477 
L 747.163636 484.232727 
" style="fill:none;stroke:#008000;stroke-linecap:square;stroke-width:2;"/>
   </g>
   <g id="line2d_34"/>
   <g id="line2d_35"/>
   <g id="line2d_36"/>
   <g id="patch_3">
    <path d="M 108 504 
L 108 69.12 
" style="fill:none;stroke:#d3d3d3;stroke-linecap:square;stroke-linejoin:miter;stroke-width:0.8;"/>
   </g>
   <g id="patch_4">
    <path d="M 777.6 504 
L 777.6 69.12 
" style="fill:none;stroke:#d3d3d3;stroke-linecap:square;stroke-linejoin:miter;stroke-width:0.8;"/>
   </g>
   <g id="patch_5">
    <path d="M 108 504 
L 777.6 504 
" style="fill:none;stroke:#d3d3d3;stroke-linecap:square;stroke-linejoin:miter;stroke-width:0.8;"/>
   </g>
   <g id="patch_6">
    <path d="M 108 69.12 
L 777.6 69.12 
" style="fill:none;stroke:#d3d3d3;stroke-linecap:square;stroke-linejoin:miter;stroke-width:0.8;"/>
   </g>
   <g id="text_18">
    <!-- Power: 80% (1-$\beta$) -->
    <g transform="translate(380.376 63.12)scale(0.144 -0.144)">
     <defs>
      <path d="M 1259 4147 
L 1259 2394 
L 2053 2394 
Q 2494 2394 2734 2622 
Q 2975 2850 2975 3272 
Q 2975 3691 2734 3919 
Q 2494 4147 2053 4147 
L 1259 4147 
z
M 628 4666 
L 2053 4666 
Q 2838 4666 3239 4311 
Q 3641 3956 3641 3272 
Q 3641 2581 3239 2228 
Q 2838 1875 2053 1875 
L 1259 1875 
L 1259 0 
L 628 0 
L 628 4666 
z
" id="DejaVuSans-50" transform="scale(0.015625)"/>
      <path d="M 269 3500 
L 844 3500 
L 1563 769 
L 2278 3500 
L 2956 3500 
L 3675 769 
L 4391 3500 
L 4966 3500 
L 4050 0 
L 3372 0 
L 2619 2869 
L 1863 0 
L 1184 0 
L 269 3500 
z
" id="DejaVuSans-77" transform="scale(0.015625)"/>
      <path d="M 313 2009 
L 1997 2009 
L 1997 1497 
L 313 1497 
L 313 2009 
z
" id="DejaVuSans-2d" transform="scale(0.015625)"/>
      <path d="M 872 216 
L 572 -1331 
L -6 -1331 
L 928 3478 
Q 1206 4903 2538 4903 
Q 3888 4903 3659 3700 
Q 3503 2844 2894 2531 
Q 3713 2250 3553 1416 
Q 3272 -69 1759 -66 
Q 1097 -63 872 216 
z
M 1019 966 
Q 1259 422 1875 425 
Q 2775 425 2966 1406 
Q 3138 2288 1675 2219 
L 1778 2750 
Q 2909 2731 3106 3750 
Q 3241 4438 2509 4434 
Q 1691 4434 1503 3459 
L 1019 966 
z
" id="DejaVuSans-Oblique-3b2" transform="scale(0.015625)"/>
     </defs>
     <use transform="translate(0 0.390625)" xlink:href="#DejaVuSans-50"/>
     <use transform="translate(60.302734 0.390625)" xlink:href="#DejaVuSans-6f"/>
     <use transform="translate(121.484375 0.390625)" xlink:href="#DejaVuSans-77"/>
     <use transform="translate(203.271484 0.390625)" xlink:href="#DejaVuSans-65"/>
     <use transform="translate(264.794922 0.390625)" xlink:href="#DejaVuSans-72"/>
     <use transform="translate(305.908203 0.390625)" xlink:href="#DejaVuSans-3a"/>
     <use transform="translate(339.599609 0.390625)" xlink:href="#DejaVuSans-20"/>
     <use transform="translate(371.386719 0.390625)" xlink:href="#DejaVuSans-38"/>
     <use transform="translate(435.009766 0.390625)" xlink:href="#DejaVuSans-30"/>
     <use transform="translate(498.632812 0.390625)" xlink:href="#DejaVuSans-25"/>
     <use transform="translate(593.652344 0.390625)" xlink:href="#DejaVuSans-20"/>
     <use transform="translate(625.439453 0.390625)" xlink:href="#DejaVuSans-28"/>
     <use transform="translate(664.453125 0.390625)" xlink:href="#DejaVuSans-31"/>
     <use transform="translate(728.076172 0.390625)" xlink:href="#DejaVuSans-2d"/>
     <use transform="translate(764.160156 0.390625)" xlink:href="#DejaVuSans-Oblique-3b2"/>
     <use transform="translate(827.978516 0.390625)" xlink:href="#DejaVuSans-29"/>
    </g>
   </g>
   <g id="legend_1">
    <g id="patch_7">
     <path d="M 693.16125 149.175 
L 769.2 149.175 
Q 771.6 149.175 771.6 146.775 
L 771.6 77.52 
Q 771.6 75.12 769.2 75.12 
L 693.16125 75.12 
Q 690.76125 75.12 690.76125 77.52 
L 690.76125 146.775 
Q 690.76125 149.175 693.16125 149.175 
z
" style="fill:#ffffff;opacity:0.8;stroke:#cccccc;stroke-linejoin:miter;"/>
    </g>
    <g id="text_19">
     <!-- significance -->
     <g transform="translate(695.56125 89.038125)scale(0.12 -0.12)">
      <defs>
       <path d="M 2906 1791 
Q 2906 2416 2648 2759 
Q 2391 3103 1925 3103 
Q 1463 3103 1205 2759 
Q 947 2416 947 1791 
Q 947 1169 1205 825 
Q 1463 481 1925 481 
Q 2391 481 2648 825 
Q 2906 1169 2906 1791 
z
M 3481 434 
Q 3481 -459 3084 -895 
Q 2688 -1331 1869 -1331 
Q 1566 -1331 1297 -1286 
Q 1028 -1241 775 -1147 
L 775 -588 
Q 1028 -725 1275 -790 
Q 1522 -856 1778 -856 
Q 2344 -856 2625 -561 
Q 2906 -266 2906 331 
L 2906 616 
Q 2728 306 2450 153 
Q 2172 0 1784 0 
Q 1141 0 747 490 
Q 353 981 353 1791 
Q 353 2603 747 3093 
Q 1141 3584 1784 3584 
Q 2172 3584 2450 3431 
Q 2728 3278 2906 2969 
L 2906 3500 
L 3481 3500 
L 3481 434 
z
" id="DejaVuSans-67" transform="scale(0.015625)"/>
      </defs>
      <use xlink:href="#DejaVuSans-73"/>
      <use x="52.099609" xlink:href="#DejaVuSans-69"/>
      <use x="79.882812" xlink:href="#DejaVuSans-67"/>
      <use x="143.359375" xlink:href="#DejaVuSans-6e"/>
      <use x="206.738281" xlink:href="#DejaVuSans-69"/>
      <use x="234.521484" xlink:href="#DejaVuSans-66"/>
      <use x="269.726562" xlink:href="#DejaVuSans-69"/>
      <use x="297.509766" xlink:href="#DejaVuSans-63"/>
      <use x="352.490234" xlink:href="#DejaVuSans-61"/>
      <use x="413.769531" xlink:href="#DejaVuSans-6e"/>
      <use x="477.148438" xlink:href="#DejaVuSans-63"/>
      <use x="532.128906" xlink:href="#DejaVuSans-65"/>
     </g>
    </g>
    <g id="line2d_37">
     <path d="M 704.862188 102.451875 
L 728.862188 102.451875 
" style="fill:none;stroke:#6495ed;stroke-linecap:square;stroke-width:2;"/>
    </g>
    <g id="line2d_38"/>
    <g id="text_20">
     <!-- 1% -->
     <g transform="translate(738.462188 106.651875)scale(0.12 -0.12)">
      <use xlink:href="#DejaVuSans-31"/>
      <use x="63.623047" xlink:href="#DejaVuSans-25"/>
     </g>
    </g>
    <g id="line2d_39">
     <path d="M 704.862188 120.065625 
L 728.862188 120.065625 
" style="fill:none;stroke:#ffa500;stroke-linecap:square;stroke-width:2;"/>
    </g>
    <g id="line2d_40"/>
    <g id="text_21">
     <!-- 3% -->
     <g transform="translate(738.462188 124.265625)scale(0.12 -0.12)">
      <defs>
       <path d="M 2597 2516 
Q 3050 2419 3304 2112 
Q 3559 1806 3559 1356 
Q 3559 666 3084 287 
Q 2609 -91 1734 -91 
Q 1441 -91 1130 -33 
Q 819 25 488 141 
L 488 750 
Q 750 597 1062 519 
Q 1375 441 1716 441 
Q 2309 441 2620 675 
Q 2931 909 2931 1356 
Q 2931 1769 2642 2001 
Q 2353 2234 1838 2234 
L 1294 2234 
L 1294 2753 
L 1863 2753 
Q 2328 2753 2575 2939 
Q 2822 3125 2822 3475 
Q 2822 3834 2567 4026 
Q 2313 4219 1838 4219 
Q 1578 4219 1281 4162 
Q 984 4106 628 3988 
L 628 4550 
Q 988 4650 1302 4700 
Q 1616 4750 1894 4750 
Q 2613 4750 3031 4423 
Q 3450 4097 3450 3541 
Q 3450 3153 3228 2886 
Q 3006 2619 2597 2516 
z
" id="DejaVuSans-33" transform="scale(0.015625)"/>
      </defs>
      <use xlink:href="#DejaVuSans-33"/>
      <use x="63.623047" xlink:href="#DejaVuSans-25"/>
     </g>
    </g>
    <g id="line2d_41">
     <path d="M 704.862188 137.679375 
L 728.862188 137.679375 
" style="fill:none;stroke:#008000;stroke-linecap:square;stroke-width:2;"/>
    </g>
    <g id="line2d_42"/>
    <g id="text_22">
     <!-- 5% -->
     <g transform="translate(738.462188 141.879375)scale(0.12 -0.12)">
      <use xlink:href="#DejaVuSans-35"/>
      <use x="63.623047" xlink:href="#DejaVuSans-25"/>
     </g>
    </g>
   </g>
  </g>
  <g id="text_23">
   <!-- Sample size required vs. minimum detectable difference -->
   <g transform="translate(148.645312 26.716875)scale(0.2 -0.2)">
    <defs>
     <path d="M 947 1747 
Q 947 1113 1208 752 
Q 1469 391 1925 391 
Q 2381 391 2643 752 
Q 2906 1113 2906 1747 
Q 2906 2381 2643 2742 
Q 2381 3103 1925 3103 
Q 1469 3103 1208 2742 
Q 947 2381 947 1747 
z
M 2906 525 
Q 2725 213 2448 61 
Q 2172 -91 1784 -91 
Q 1150 -91 751 415 
Q 353 922 353 1747 
Q 353 2572 751 3078 
Q 1150 3584 1784 3584 
Q 2172 3584 2448 3432 
Q 2725 3281 2906 2969 
L 2906 3500 
L 3481 3500 
L 3481 -1331 
L 2906 -1331 
L 2906 525 
z
" id="DejaVuSans-71" transform="scale(0.015625)"/>
     <path d="M 191 3500 
L 800 3500 
L 1894 563 
L 2988 3500 
L 3597 3500 
L 2284 0 
L 1503 0 
L 191 3500 
z
" id="DejaVuSans-76" transform="scale(0.015625)"/>
    </defs>
    <use xlink:href="#DejaVuSans-53"/>
    <use x="63.476562" xlink:href="#DejaVuSans-61"/>
    <use x="124.755859" xlink:href="#DejaVuSans-6d"/>
    <use x="222.167969" xlink:href="#DejaVuSans-70"/>
    <use x="285.644531" xlink:href="#DejaVuSans-6c"/>
    <use x="313.427734" xlink:href="#DejaVuSans-65"/>
    <use x="374.951172" xlink:href="#DejaVuSans-20"/>
    <use x="406.738281" xlink:href="#DejaVuSans-73"/>
    <use x="458.837891" xlink:href="#DejaVuSans-69"/>
    <use x="486.621094" xlink:href="#DejaVuSans-7a"/>
    <use x="539.111328" xlink:href="#DejaVuSans-65"/>
    <use x="600.634766" xlink:href="#DejaVuSans-20"/>
    <use x="632.421875" xlink:href="#DejaVuSans-72"/>
    <use x="671.285156" xlink:href="#DejaVuSans-65"/>
    <use x="732.808594" xlink:href="#DejaVuSans-71"/>
    <use x="796.285156" xlink:href="#DejaVuSans-75"/>
    <use x="859.664062" xlink:href="#DejaVuSans-69"/>
    <use x="887.447266" xlink:href="#DejaVuSans-72"/>
    <use x="926.310547" xlink:href="#DejaVuSans-65"/>
    <use x="987.833984" xlink:href="#DejaVuSans-64"/>
    <use x="1051.310547" xlink:href="#DejaVuSans-20"/>
    <use x="1083.097656" xlink:href="#DejaVuSans-76"/>
    <use x="1142.277344" xlink:href="#DejaVuSans-73"/>
    <use x="1194.376953" xlink:href="#DejaVuSans-2e"/>
    <use x="1226.164062" xlink:href="#DejaVuSans-20"/>
    <use x="1257.951172" xlink:href="#DejaVuSans-6d"/>
    <use x="1355.363281" xlink:href="#DejaVuSans-69"/>
    <use x="1383.146484" xlink:href="#DejaVuSans-6e"/>
    <use x="1446.525391" xlink:href="#DejaVuSans-69"/>
    <use x="1474.308594" xlink:href="#DejaVuSans-6d"/>
    <use x="1571.720703" xlink:href="#DejaVuSans-75"/>
    <use x="1635.099609" xlink:href="#DejaVuSans-6d"/>
    <use x="1732.511719" xlink:href="#DejaVuSans-20"/>
    <use x="1764.298828" xlink:href="#DejaVuSans-64"/>
    <use x="1827.775391" xlink:href="#DejaVuSans-65"/>
    <use x="1889.298828" xlink:href="#DejaVuSans-74"/>
    <use x="1928.507812" xlink:href="#DejaVuSans-65"/>
    <use x="1990.03125" xlink:href="#DejaVuSans-63"/>
    <use x="2045.011719" xlink:href="#DejaVuSans-74"/>
    <use x="2084.220703" xlink:href="#DejaVuSans-61"/>
    <use x="2145.5" xlink:href="#DejaVuSans-62"/>
    <use x="2208.976562" xlink:href="#DejaVuSans-6c"/>
    <use x="2236.759766" xlink:href="#DejaVuSans-65"/>
    <use x="2298.283203" xlink:href="#DejaVuSans-20"/>
    <use x="2330.070312" xlink:href="#DejaVuSans-64"/>
    <use x="2393.546875" xlink:href="#DejaVuSans-69"/>
    <use x="2421.330078" xlink:href="#DejaVuSans-66"/>
    <use x="2456.535156" xlink:href="#DejaVuSans-66"/>
    <use x="2491.740234" xlink:href="#DejaVuSans-65"/>
    <use x="2553.263672" xlink:href="#DejaVuSans-72"/>
    <use x="2592.126953" xlink:href="#DejaVuSans-65"/>
    <use x="2653.650391" xlink:href="#DejaVuSans-6e"/>
    <use x="2717.029297" xlink:href="#DejaVuSans-63"/>
    <use x="2772.009766" xlink:href="#DejaVuSans-65"/>
   </g>
  </g>
 </g>
 <defs>
  <clipPath id="p61b9ab1289">
   <rect height="434.88" width="669.6" x="108" y="69.12"/>
  </clipPath>
 </defs>
</svg>
